<svg width="184" height="34" viewBox="0 0 184 34" fill="none" xmlns="http://www.w3.org/2000/svg">
<g clip-path="url(#clip0_26_513)">
<path fill-rule="evenodd" clip-rule="evenodd" d="M36.1211 12.9706C36.1211 12.128 36.3638 11.5212 36.8478 11.1457C37.3334 10.7702 38.0176 10.584 38.8976 10.584C39.4423 10.584 39.943 10.6501 40.3982 10.7852C40.8518 10.9219 41.1553 11.018 41.3085 11.0781V22.9209C41.3085 24.9635 41.791 26.5195 42.7635 27.5829C43.7346 28.6477 45.2199 29.1824 47.2227 29.1824C49.2239 29.1824 50.7093 28.6477 51.6803 27.5829C52.6514 26.5195 53.1369 24.9635 53.1369 22.9209V12.9706C53.1369 12.128 53.3781 11.5212 53.8636 11.1457C54.3492 10.7702 55.0152 10.584 55.8649 10.584C56.4429 10.584 56.9573 10.6501 57.4109 10.7852C57.8676 10.9219 58.1711 11.018 58.3213 11.0781V24.0473C58.3213 25.5793 58.0558 26.952 57.5262 28.1686C56.9937 29.3852 56.2381 30.4125 55.2519 31.2521C54.2672 32.0932 53.0914 32.7315 51.7259 33.167C50.3619 33.6011 48.8598 33.8204 47.2227 33.8204C45.5841 33.8204 44.0835 33.6011 42.7195 33.167C41.3525 32.7315 40.1858 32.0932 39.2147 31.2521C38.2437 30.4125 37.4866 29.3852 36.9404 28.1686C36.3957 26.952 36.1211 25.5793 36.1211 24.0473V12.9706Z" fill="#EE6513"/>
<path fill-rule="evenodd" clip-rule="evenodd" d="M62.4141 6.57602C62.4141 5.73344 62.6553 5.12816 63.1423 4.75118C63.6263 4.37569 64.2939 4.18945 65.1436 4.18945C65.6883 4.18945 66.195 4.25554 66.6669 4.39221C67.1372 4.52739 67.4467 4.62501 67.6 4.68359V10.5832H74.1969C75.1983 10.5832 75.9023 10.7859 76.3119 11.19C76.7216 11.597 76.9234 12.1872 76.9234 12.9698C76.9234 13.4819 76.8506 13.952 76.6988 14.3876C76.5456 14.8231 76.4242 15.131 76.3347 15.3113H67.6V25.3547C67.6 26.1342 67.7047 26.7725 67.9186 27.2666C68.131 27.7623 68.4253 28.1603 68.8047 28.4592C69.1855 28.7611 69.624 28.9713 70.1247 29.093C70.6238 29.2116 71.1488 29.2702 71.692 29.2702C72.5735 29.2702 73.3928 29.1366 74.1499 28.8662C74.907 28.5959 75.4562 28.3405 75.7885 28.1017L77.8808 31.5231C77.638 31.7034 77.2981 31.9301 76.8581 32.199C76.4166 32.4693 75.8795 32.7247 75.2423 32.9635C74.605 33.2053 73.8919 33.4066 73.1045 33.5733C72.3155 33.737 71.4522 33.8196 70.5131 33.8196C67.8427 33.8196 65.8263 33.1377 64.4623 31.7694C63.0953 30.4072 62.4141 28.6124 62.4141 26.3895V6.57602Z" fill="#EE6513"/>
<path fill-rule="evenodd" clip-rule="evenodd" d="M92.2105 29.1826C93.2407 29.1826 94.189 28.9948 95.0538 28.6193C95.9171 28.2438 96.6606 27.7347 97.2826 27.0874C97.9047 26.4415 98.3826 25.677 98.7164 24.7894C99.0487 23.9063 99.2156 22.939 99.2156 21.8862C99.2156 20.8348 99.0487 19.8586 98.7164 18.9574C98.3826 18.0577 97.9047 17.2857 97.2826 16.6399C96.6606 15.9956 95.9171 15.4849 95.0538 15.1094C94.189 14.734 93.2407 14.5447 92.2105 14.5447C91.1484 14.5447 90.1865 14.734 89.3217 15.1094C88.4569 15.4849 87.721 16.0031 87.1156 16.6609C86.5072 17.3233 86.0323 18.1043 85.6818 19.004C85.3344 19.9051 85.1599 20.8664 85.1599 21.8862C85.1599 22.9661 85.3344 23.9573 85.6818 24.857C86.0323 25.7596 86.5148 26.5241 87.1384 27.1534C87.7589 27.7843 88.5024 28.2799 89.3687 28.6404C90.2305 29.0023 91.1788 29.1826 92.2105 29.1826ZM80.0195 2.38657C80.0195 1.57703 80.2608 0.976256 80.7463 0.585754C81.2303 0.195251 81.9146 0 82.793 0C83.3392 0 83.8399 0.067587 84.2936 0.202761C84.7487 0.339437 85.0507 0.43556 85.2054 0.495638V13.4198C85.9625 12.4585 87.0094 11.6415 88.3431 10.9656C89.6782 10.2897 91.2091 9.9503 92.9373 9.9503C94.6062 9.9503 96.1462 10.2447 97.5557 10.8304C98.9652 11.4162 100.196 12.2423 101.24 13.3071C102.288 14.3735 103.107 15.6336 103.696 17.089C104.289 18.5459 104.584 20.1439 104.584 21.8862C104.584 23.5969 104.28 25.1904 103.675 26.6593C103.068 28.1312 102.217 29.3928 101.129 30.4427C100.035 31.494 98.7377 32.3201 97.2371 32.9194C95.735 33.5201 94.0904 33.819 92.3015 33.819C90.5112 33.819 88.8665 33.5502 87.366 33.0095C85.8624 32.4688 84.5697 31.6577 83.4758 30.5778C82.3834 29.4965 81.5352 28.1462 80.9283 26.5241C80.3215 24.902 80.0195 22.9976 80.0195 20.8063V2.38657Z" fill="#EE6513"/>
<path fill-rule="evenodd" clip-rule="evenodd" d="M107.633 18.6448C107.633 15.8828 108.489 13.744 110.203 12.2286C111.916 10.7116 114.29 9.95312 117.322 9.95312C119.234 9.95312 120.787 10.2175 121.986 10.7401C123.184 11.2673 123.784 12.0693 123.784 13.1522C123.784 13.6629 123.64 14.157 123.351 14.6362C123.062 15.1168 122.828 15.4172 122.647 15.5373C122.13 15.297 121.494 15.0717 120.736 14.8614C119.977 14.6527 119.111 14.546 118.141 14.546C114.595 14.546 112.82 16.4084 112.82 20.1302V33.191H107.633V18.6448Z" fill="#EE6513"/>
<path fill-rule="evenodd" clip-rule="evenodd" d="M141.069 23.1006C140.767 23.0405 140.198 22.9504 139.364 22.8302C138.528 22.7116 137.279 22.65 135.61 22.65C133.547 22.65 132.048 22.9579 131.107 23.5737C130.166 24.1895 129.696 25.1582 129.696 26.4784C129.696 27.0191 129.793 27.5133 129.992 27.9654C130.189 28.4159 130.531 28.7974 131.015 29.1143C131.5 29.4282 132.16 29.67 132.995 29.8338C133.829 29.999 134.868 30.0816 136.112 30.0816C137.505 30.0816 138.613 30.029 139.432 29.9224C140.25 29.8202 140.798 29.7361 141.069 29.6761V23.1006ZM146.208 33.099C145.906 33.1575 145.43 33.2251 144.777 33.3017C144.127 33.3753 143.359 33.4519 142.48 33.5255C141.6 33.6006 140.614 33.6682 139.522 33.7298C138.432 33.7868 137.294 33.8199 136.112 33.8199C133.746 33.8199 131.813 33.6156 130.311 33.2101C128.81 32.8061 127.627 32.2654 126.763 31.5895C125.9 30.9136 125.307 30.1341 124.988 29.2465C124.67 28.3634 124.512 27.4547 124.512 26.522C124.512 25.2919 124.701 24.212 125.081 23.2808C125.458 22.3511 126.081 21.5686 126.944 20.9408C127.809 20.31 128.939 19.8369 130.333 19.52C131.729 19.2046 133.429 19.0469 135.43 19.0469C136.58 19.0469 137.674 19.0859 138.702 19.161C139.734 19.2361 140.508 19.3037 141.024 19.3638C141.024 18.3124 140.848 17.4413 140.502 16.7519C140.153 16.061 139.675 15.5203 139.07 15.1313C138.461 14.7408 137.733 14.4705 136.885 14.3203C136.035 14.1701 135.094 14.095 134.064 14.095C132.336 14.095 130.948 14.2903 129.901 14.6808C128.856 15.0713 128.167 15.4002 127.831 15.672C127.649 15.5203 127.399 15.2365 127.08 14.8144C126.763 14.3954 126.604 13.8847 126.604 13.284C126.604 12.8649 126.718 12.4504 126.944 12.0449C127.173 11.6408 127.573 11.2804 128.15 10.965C128.727 10.6496 129.5 10.4033 130.47 10.2215C131.441 10.0413 132.67 9.95117 134.152 9.95117C135.944 9.95117 137.574 10.1254 139.045 10.4693C140.519 10.8148 141.782 11.363 142.843 12.114C143.905 12.8649 144.73 13.8562 145.322 15.0863C145.914 16.3164 146.208 17.8033 146.208 19.544V33.099Z" fill="#EE6513"/>
<path fill-rule="evenodd" clip-rule="evenodd" d="M150.845 12.9708C150.845 12.1282 151.09 11.5215 151.574 11.146C152.059 10.7705 152.742 10.5843 153.622 10.5843C154.167 10.5843 154.669 10.6503 155.123 10.7855C155.576 10.9222 155.88 11.0183 156.033 11.0784V33.1898H150.845V12.9708ZM153.44 0.449219C154.32 0.449219 155.062 0.749605 155.669 1.35188C156.274 1.95265 156.578 2.6871 156.578 3.55672C156.578 4.42934 156.274 5.16378 155.669 5.76306C155.062 6.36683 154.32 6.66572 153.44 6.66572C152.561 6.66572 151.818 6.36683 151.21 5.76306C150.604 5.16378 150.301 4.42934 150.301 3.55672C150.301 2.6871 150.604 1.95265 151.21 1.35188C151.818 0.749605 152.561 0.449219 153.44 0.449219Z" fill="#EE6513"/>
<path fill-rule="evenodd" clip-rule="evenodd" d="M160.676 19.544C160.676 18.0436 160.956 16.6994 161.516 15.5128C162.076 14.3263 162.851 13.3215 163.836 12.4969C164.822 11.6709 165.991 11.0416 167.341 10.606C168.688 10.1705 170.168 9.95117 171.773 9.95117C173.383 9.95117 174.868 10.1705 176.234 10.606C177.598 11.0416 178.773 11.6709 179.758 12.4969C180.743 13.3215 181.51 14.3263 182.057 15.5128C182.601 16.6994 182.876 18.0436 182.876 19.544V33.1891H177.69V20.8492C177.69 18.8096 177.188 17.2551 176.19 16.1902C175.187 15.1238 173.715 14.5891 171.773 14.5891C169.803 14.5891 168.326 15.1238 167.341 16.1902C166.355 17.2551 165.862 18.8096 165.862 20.8492V33.1891H160.676V19.544Z" fill="#EE6513"/>
<path fill-rule="evenodd" clip-rule="evenodd" d="M24.4138 28.6518C23.4307 29.607 22.2791 30.3535 20.9576 30.8972C19.6361 31.4364 18.1992 31.7067 16.6501 31.7067C15.0995 31.7067 13.6642 31.4364 12.3442 30.8972C11.0212 30.3535 9.8681 29.607 8.88493 28.6518C7.90176 27.6996 7.131 26.5731 6.5757 25.2739C6.0386 24.0198 5.76246 22.6636 5.74273 21.2082H8.35693C8.38424 21.6558 8.48134 22.0748 8.64976 22.4683C8.85155 22.9414 9.13224 23.35 9.48727 23.6954C9.84382 24.0424 10.2641 24.3142 10.7435 24.508C11.223 24.7062 11.7449 24.8053 12.3078 24.8053C12.8707 24.8053 13.3896 24.7062 13.8706 24.508C14.35 24.3142 14.7703 24.0424 15.1268 23.6954C15.4834 23.35 15.7641 22.9414 15.9643 22.4683C16.0994 22.1574 16.1874 21.827 16.2314 21.4816H17.0689C17.1129 21.827 17.2009 22.1574 17.3359 22.4683C17.5392 22.9414 17.8169 23.35 18.175 23.6954C18.53 24.0424 18.9503 24.3142 19.4297 24.508C19.9092 24.7062 20.4311 24.8053 20.9925 24.8053C21.5569 24.8053 22.0773 24.7062 22.5567 24.508C23.0362 24.3142 23.4565 24.0424 23.813 23.6954C24.1696 23.35 24.4502 22.9414 24.652 22.4683C24.8204 22.0748 24.9176 21.6558 24.9464 21.2082H27.5545C27.5393 22.6636 27.2617 24.0198 26.7246 25.2739C26.1678 26.5731 25.397 27.6996 24.4138 28.6518ZM14.6595 20.9364C14.6595 21.2638 14.5988 21.5672 14.4805 21.848C14.3606 22.1259 14.1953 22.3677 13.9813 22.575C13.7674 22.7822 13.5201 22.9429 13.2364 23.0586C12.9496 23.1757 12.6416 23.2343 12.3078 23.2343C11.9725 23.2343 11.663 23.1757 11.3777 23.0586C11.094 22.9429 10.8452 22.7822 10.6328 22.575C10.4189 22.3677 10.2535 22.1259 10.1351 21.848C10.0153 21.5672 9.95458 21.2638 9.95458 20.9364C9.95458 20.6119 10.0153 20.307 10.1351 20.0262C10.2535 19.7468 10.4189 19.505 10.6328 19.2977C10.8452 19.0935 11.094 18.9313 11.3777 18.8156C11.663 18.6985 11.9725 18.6399 12.3078 18.6399C12.6416 18.6399 12.9496 18.6985 13.2364 18.8156C13.5201 18.9313 13.7674 19.0935 13.9813 19.2977C14.1953 19.505 14.3606 19.7468 14.4805 20.0262C14.5988 20.307 14.6595 20.6119 14.6595 20.9364ZM23.3457 20.9364C23.3457 21.2638 23.2865 21.5672 23.1651 21.848C23.0468 22.1259 22.8799 22.3677 22.669 22.575C22.4566 22.7822 22.2063 22.9429 21.921 23.0586C21.6373 23.1757 21.3278 23.2343 20.9925 23.2343C20.6587 23.2343 20.3492 23.1757 20.0654 23.0586C19.7787 22.9429 19.5298 22.7822 19.319 22.575C19.1065 22.3677 18.9412 22.1259 18.8198 21.848C18.6999 21.5672 18.6408 21.2638 18.6408 20.9364C18.6408 20.6119 18.6999 20.307 18.8198 20.0262C18.9412 19.7468 19.1065 19.505 19.319 19.2977C19.5298 19.0935 19.7787 18.9313 20.0654 18.8156C20.3492 18.6985 20.6587 18.6399 20.9925 18.6399C21.3278 18.6399 21.6373 18.6985 21.921 18.8156C22.2063 18.9313 22.4566 19.0935 22.669 19.2977C22.8799 19.505 23.0468 19.7468 23.1651 20.0262C23.2865 20.307 23.3457 20.6119 23.3457 20.9364ZM6.71377 16.5522C8.56934 15.9469 11.0303 15.1749 11.0303 15.1749C16.4438 13.4702 17.169 11.4547 17.169 11.4547C17.169 11.4547 18.3085 13.4702 22.2381 14.7995C22.2381 14.7995 24.4093 15.5069 26.4287 16.2293C26.5304 16.4276 26.6351 16.6258 26.7246 16.8361C27.0796 17.6651 27.3209 18.5393 27.4483 19.4539H24.6702L24.652 19.4059C24.4502 18.9328 24.1696 18.5258 23.813 18.1788C23.4565 17.8319 23.0362 17.56 22.5567 17.3633C22.0773 17.168 21.5569 17.0704 20.9925 17.0704C20.4311 17.0704 19.9092 17.168 19.4297 17.3633C18.9503 17.56 18.53 17.8319 18.175 18.1788C17.8169 18.5258 17.5392 18.9328 17.3359 19.4059C17.2722 19.5546 17.2191 19.7063 17.1751 19.861H16.1252C16.0827 19.7063 16.0296 19.5546 15.9643 19.4059C15.7641 18.9328 15.4834 18.5258 15.1268 18.1788C14.7703 17.8319 14.35 17.56 13.8706 17.3633C13.3896 17.168 12.8707 17.0704 12.3078 17.0704C11.7449 17.0704 11.223 17.168 10.7435 17.3633C10.2641 17.56 9.84382 17.8319 9.48727 18.1788C9.13224 18.5258 8.85155 18.9328 8.64976 19.4059C8.64217 19.4209 8.63762 19.4374 8.63003 19.4539H5.85349C5.98094 18.5393 6.22066 17.6651 6.5757 16.8361C6.61818 16.7385 6.66976 16.6483 6.71377 16.5522ZM32.0273 11.303C31.1761 9.32191 30.0033 7.6037 28.4997 6.14833C26.9992 4.68995 25.2407 3.54998 23.2243 2.72542C21.2064 1.89936 19.0155 1.48633 16.6501 1.48633C14.2848 1.48633 12.0939 1.89936 10.076 2.72542C8.05955 3.54998 6.29956 4.68995 4.79901 6.14833C3.29847 7.6037 2.12261 9.32191 1.27448 11.303C0.423309 13.2855 0 15.4333 0 17.7432C0 20.0562 0.423309 22.201 1.27448 24.1835C2.12261 26.1661 3.29847 27.8828 4.79901 29.3397C6.29956 30.7965 8.05955 31.9365 10.076 32.7626C12.0939 33.5871 14.2848 34.0002 16.6501 34.0002C19.0155 34.0002 21.2064 33.5871 23.2243 32.7626C25.2407 31.9365 26.9992 30.7965 28.4997 29.3397C30.0033 27.8828 31.1761 26.1661 32.0273 24.1835C32.8739 22.201 33.2988 20.0562 33.2988 17.7432C33.2988 15.4333 32.8739 13.2855 32.0273 11.303Z" fill="#EE6513"/>
</g>
<defs>
<clipPath id="clip0_26_513">
<rect width="184" height="34" fill="white"/>
</clipPath>
</defs>
</svg>
