<svg width="160" height="54" viewBox="0 0 160 54" fill="none" xmlns="http://www.w3.org/2000/svg">
<path d="M68.0866 27.6925C68.0866 35.188 62.2102 40.7112 54.9984 40.7112C47.7866 40.7112 41.9102 35.188 41.9102 27.6925C41.9102 20.1443 47.7866 14.6738 54.9984 14.6738C62.2102 14.6738 68.0866 20.1443 68.0866 27.6925ZM62.3572 27.6925C62.3572 23.0086 58.9513 19.8038 54.9984 19.8038C51.0455 19.8038 47.6396 23.0086 47.6396 27.6925C47.6396 32.3295 51.0455 35.5812 54.9984 35.5812C58.9513 35.5812 62.3572 32.3236 62.3572 27.6925Z" fill="#EA4335"/>
<path d="M96.3249 27.6925C96.3249 35.188 90.4484 40.7112 83.2367 40.7112C76.0249 40.7112 70.1484 35.188 70.1484 27.6925C70.1484 20.1501 76.0249 14.6738 83.2367 14.6738C90.4484 14.6738 96.3249 20.1443 96.3249 27.6925ZM90.5955 27.6925C90.5955 23.0086 87.1896 19.8038 83.2367 19.8038C79.2837 19.8038 75.8779 23.0086 75.8779 27.6925C75.8779 32.3295 79.2837 35.5812 83.2367 35.5812C87.1896 35.5812 90.5955 32.3236 90.5955 27.6925Z" fill="#FBBC05"/>
<path d="M123.383 15.4603V38.833C123.383 48.4473 117.701 52.374 110.983 52.374C104.659 52.374 100.853 48.1538 99.4182 44.7025L104.406 42.6306C105.295 44.7495 107.471 47.2499 110.977 47.2499C115.277 47.2499 117.942 44.6027 117.942 39.6195V37.7471H117.742C116.459 39.326 113.989 40.7053 110.871 40.7053C104.348 40.7053 98.3711 35.0353 98.3711 27.7395C98.3711 20.3908 104.348 14.6738 110.871 14.6738C113.983 14.6738 116.453 16.0532 117.742 17.5851H117.942V15.4662H123.383V15.4603ZM118.348 27.7395C118.348 23.1553 115.283 19.8038 111.383 19.8038C107.43 19.8038 104.118 23.1553 104.118 27.7395C104.118 32.2767 107.43 35.5812 111.383 35.5812C115.283 35.5812 118.348 32.2767 118.348 27.7395Z" fill="#4285F4"/>
<path d="M132.354 1.76172V39.9139H126.766V1.76172H132.354Z" fill="#34A853"/>
<path d="M154.128 31.9773L158.575 34.9356C157.14 37.0545 153.681 40.7054 147.705 40.7054C140.293 40.7054 134.758 34.9884 134.758 27.6867C134.758 19.9447 140.34 14.668 147.064 14.668C153.834 14.668 157.146 20.0445 158.228 22.9499L158.823 24.4291L141.381 31.6369C142.717 34.2488 144.793 35.5812 147.705 35.5812C150.623 35.5812 152.646 34.1491 154.128 31.9773ZM140.44 27.2934L152.099 22.4628C151.458 20.8369 149.528 19.7041 147.258 19.7041C144.346 19.7041 140.293 22.2691 140.44 27.2934Z" fill="#EA4335"/>
<path d="M20.758 24.3054V18.7821H39.4109C39.5933 19.7447 39.6874 20.8834 39.6874 22.116C39.6874 26.26 38.5521 31.3841 34.8933 35.035C31.3345 38.7328 26.7874 40.705 20.7639 40.705C9.59917 40.705 0.210938 31.6306 0.210938 20.4902C0.210938 9.34974 9.59917 0.275391 20.7639 0.275391C26.9403 0.275391 31.3404 2.69365 34.6462 5.84561L30.7403 9.743C28.3698 7.5243 25.158 5.79865 20.758 5.79865C12.6051 5.79865 6.22859 12.355 6.22859 20.4902C6.22859 28.6254 12.6051 35.1817 20.758 35.1817C26.0462 35.1817 29.058 33.0628 30.9874 31.1376C32.5521 29.5763 33.5815 27.3458 33.9874 24.2995L20.758 24.3054Z" fill="#4285F4"/>
</svg>
