<svg width="154" height="28" viewBox="0 0 154 28" fill="none" xmlns="http://www.w3.org/2000/svg">
<g clip-path="url(#clip0_26_525)">
<path d="M71.9868 5.94795H72.0209C72.5774 5.94795 80.7518 5.94795 82.5441 5.94795C82.7383 5.94795 82.8898 5.8063 82.8898 5.63154V0.470298C82.8898 0.464643 82.8847 0.460059 82.8784 0.460059H82.2645C80.9911 0.460059 79.7064 0.449821 78.4331 0.439582C75.5454 0.408867 72.5666 0.378151 69.6333 0.501014C65.279 0.68531 61.675 4.1562 61.6182 8.2414C61.5498 12.4392 61.5613 16.5449 61.584 20.8964C61.5953 22.7086 61.5953 24.5413 61.5953 26.3843V26.9678C61.5953 26.9735 61.6004 26.9781 61.6067 26.9781C61.613 26.9781 61.6182 26.9826 61.6182 26.9884V27.0344C61.6182 27.0655 61.6462 27.0907 61.6806 27.0907H67.3377C67.5319 27.0907 67.6893 26.949 67.6893 26.7743V21.8281C67.7233 20.5789 67.7119 19.3502 67.7119 18.0501C67.7119 18.0274 67.7324 18.009 67.7574 18.009H78.7978C78.992 18.009 79.1494 17.8674 79.1494 17.6926V12.7659C79.1494 12.5911 78.992 12.4495 78.7978 12.4495H68.0521C67.858 12.4495 67.7006 12.3076 67.7006 12.1329C67.7006 11.5391 67.7006 11.1492 67.7006 11.1492V9.86935C67.7006 7.27897 69.1331 5.94795 71.9868 5.94795Z" fill="#272742"/>
<path d="M46.4403 5.94795H46.4743C47.0308 5.94795 55.2054 5.94795 56.9977 5.94795C57.1917 5.94795 57.3432 5.8063 57.3432 5.63154V0.470298C57.3432 0.464643 57.3382 0.460059 57.3319 0.460059H56.7293C55.456 0.460059 54.1712 0.449821 52.8979 0.439582C50.0102 0.408867 47.0315 0.378151 44.0982 0.501014C39.7438 0.68531 36.1398 4.1562 36.083 8.2414C36.0148 12.4392 36.0261 16.5449 36.0488 20.8964C36.0603 22.7086 36.0603 24.5413 36.0603 26.3843V26.9678C36.0603 26.9735 36.0653 26.9781 36.0716 26.9781C36.0779 26.9781 36.083 26.9826 36.083 26.9884V27.0344C36.083 27.0655 36.111 27.0907 36.1455 27.0907H41.8025C41.9967 27.0907 42.1541 26.949 42.1541 26.7743V21.8281C42.1882 20.5789 42.1769 19.3502 42.1769 18.0501C42.1769 18.0274 42.1972 18.009 42.2224 18.009H53.2626C53.4568 18.009 53.6142 17.8674 53.6142 17.6926V12.7659C53.6142 12.5911 53.4568 12.4495 53.2626 12.4495H42.5056C42.3114 12.4495 42.1541 12.3076 42.1541 12.1329C42.1541 11.5391 42.1541 11.1492 42.1541 11.1492V9.86935C42.1541 7.27897 43.5865 5.94795 46.4403 5.94795Z" fill="#272742"/>
<path d="M93.1329 1.07472V0.7461C93.1329 0.571351 92.9756 0.429688 92.7815 0.429688H87.3679C87.1738 0.429688 87.0163 0.571351 87.0163 0.746102V8.0165C87.005 9.66492 87.005 11.3133 87.0163 12.9208C87.0163 13.4327 87.0163 13.9447 87.0163 14.4668V26.7746C87.0163 26.9494 87.1738 27.091 87.3679 27.091H92.7815C92.9756 27.091 93.1329 26.9494 93.1329 26.7746V17.7637C93.1444 10.7195 93.1329 1.19758 93.1329 1.07472Z" fill="#272742"/>
<path d="M129.605 13.4227C129.605 13.4841 129.605 13.5456 129.605 13.607C129.605 13.6377 129.605 13.6684 129.605 13.6991C129.605 13.6991 129.605 13.6991 129.605 13.7094C129.605 13.7094 129.605 13.7094 129.605 13.7196C129.605 14.1701 129.651 14.5592 129.719 14.9278C129.651 14.3441 129.628 13.8015 129.617 13.3203C129.617 13.351 129.605 13.392 129.605 13.4227Z" fill="#272742"/>
<path d="M144.543 16.7304C145.236 16.7304 145.884 16.7202 146.111 16.7202C148.169 16.7202 151.875 16.7118 153.117 16.7025C153.287 16.7013 153.43 16.5897 153.455 16.4381C153.555 15.8368 153.615 15.2266 153.615 14.6008C153.604 14.1197 153.569 13.5769 153.513 12.9933C153.217 10.1675 152.194 6.31776 149.022 3.59428C147.259 2.06873 145.054 0.962964 142.632 0.420317C141.506 0.164352 140.336 0.03125 139.131 0.03125C131.911 0.03125 125.931 4.87412 124.783 11.2221C124.658 11.908 124.578 12.6043 124.578 13.321C124.589 13.8022 124.624 14.3448 124.68 14.9284C124.976 17.7543 125.999 21.6041 129.16 24.3275C130.922 25.8531 133.128 26.9486 135.549 27.5014C136.675 27.7575 137.846 27.8905 139.051 27.8905C143.514 27.8905 147.491 26.0352 150.143 23.1288C150.262 22.9986 150.241 22.8074 150.1 22.6968L145.996 19.491C145.844 19.3712 145.61 19.3935 145.48 19.5343C143.931 21.2168 141.635 22.3003 139.051 22.3003C138.232 22.3003 137.437 22.1876 136.686 21.9829C134.06 21.2763 131.979 19.4437 131.081 17.0888C131.011 16.9142 131.15 16.7307 131.357 16.7308C133.286 16.7326 141.292 16.7395 144.543 16.7304ZM139.131 5.63177C139.949 5.63177 140.745 5.7444 141.495 5.94917C144.122 6.65563 146.202 8.48835 147.101 10.8432C147.109 10.8633 147.118 10.883 147.126 10.9026C147.185 11.0367 147.078 11.1709 146.919 11.1709H131.484C131.249 11.1709 131.08 10.9669 131.159 10.7676C132.346 7.77222 135.462 5.63177 139.131 5.63177Z" fill="#272742"/>
<path d="M119.121 14.2521C117.734 12.8904 115.733 11.9485 113.186 11.4468L108.661 10.556C106.74 10.1772 105.808 9.30691 105.808 7.90422C105.808 7.11584 106.183 6.44008 106.956 5.84625C107.74 5.25241 108.775 4.94525 110.014 4.94525C110.992 4.94525 111.856 5.08859 112.572 5.35479C113.277 5.621 113.811 5.97936 114.164 6.40937C114.551 6.87011 114.835 7.2899 115.017 7.66872C115.095 7.83566 115.165 8.00661 115.222 8.17908C115.279 8.34746 115.467 8.45547 115.658 8.41582L120.826 7.33902C120.983 7.30631 121.08 7.16472 121.042 7.02369C120.838 6.29675 120.531 5.59028 120.133 4.9043C119.735 4.21831 119.121 3.47089 118.336 2.68251C117.518 1.87366 116.37 1.21839 114.926 0.726942C113.482 0.245727 111.833 0 110.014 0C107.217 0 104.762 0.819089 102.738 2.44703C100.703 4.08521 99.6683 6.06126 99.6683 8.32399C99.6683 10.1874 100.328 11.8051 101.635 13.1259C102.931 14.4364 104.716 15.317 106.967 15.7573L111.72 16.6992C113.914 17.1497 114.982 18.0814 114.982 19.566C114.982 20.3953 114.619 21.0711 113.857 21.6444C113.084 22.2281 112.015 22.525 110.651 22.525C108.866 22.525 107.445 22.1052 106.41 21.286C105.571 20.6227 105.036 19.8265 104.763 18.8903C104.713 18.7177 104.522 18.6059 104.329 18.6459L98.8375 19.7844C98.8021 19.7917 98.8068 19.84 98.8126 19.8757C99.1108 21.719 100.267 23.4517 102.249 25.0436C104.25 26.6511 107.058 27.46 110.594 27.46C113.902 27.46 116.529 26.6102 118.405 24.9515C120.281 23.2826 121.224 21.3783 121.224 19.2998C121.224 17.3135 120.519 15.6241 119.121 14.2521Z" fill="#272742"/>
<path d="M22.4757 4.13311C22.7011 4.30516 23.0419 4.15978 23.0419 3.89383C23.0419 3.28435 23.0419 2.71154 23.0419 2.11821C23.0419 1.94346 23.1993 1.80176 23.3934 1.80176C25.2424 1.80176 27.0351 1.80176 28.8751 1.80176C29.0693 1.80176 29.2267 1.94344 29.2267 2.11821C29.2267 10.3332 29.2267 18.511 29.2267 26.7746C29.2267 26.9494 29.0693 27.0912 28.8751 27.0912C27.1082 27.0912 25.3176 27.0912 23.4163 27.0912C23.2221 27.0912 23.0646 26.9495 23.0646 26.7748C23.0646 26.2788 23.0646 25.7599 23.0646 25.1639C23.0646 24.8776 22.672 24.7355 22.4435 24.9348C20.8985 26.2823 19.2913 27.2007 17.3572 27.6338C9.59213 29.3641 1.75878 24.7875 0.337634 17.5283C-0.765174 11.9073 0.758293 7.00297 6.02221 3.43993C10.2174 0.603841 16.2886 0.296682 20.3701 2.62085C21.0918 3.04041 21.7328 3.56575 22.4757 4.13311ZM14.8106 22.7193C19.8129 22.709 23.2579 19.3507 23.2464 14.4874C23.2351 9.77765 19.6424 6.3477 14.7651 6.35794C9.81952 6.37842 6.30644 9.8186 6.32918 14.6308C6.34054 19.3609 9.86499 22.7193 14.8106 22.7193Z" fill="#272742"/>
</g>
<defs>
<clipPath id="clip0_26_525">
<rect width="154" height="28" fill="white"/>
</clipPath>
</defs>
</svg>
