<svg width="124" height="74" viewBox="0 0 124 74" fill="none" xmlns="http://www.w3.org/2000/svg">
<g clip-path="url(#clip0_26_533)">
<path d="M35.2408 26.9978C35.2408 28.5022 35.4039 29.722 35.6895 30.6165C36.0158 31.511 36.4237 32.4868 36.9947 33.544C37.1987 33.8692 37.2803 34.1945 37.2803 34.4791C37.2803 34.8857 37.0355 35.2923 36.5053 35.6989L33.9355 37.4066C33.5684 37.6506 33.2013 37.7725 32.875 37.7725C32.4671 37.7725 32.0592 37.5692 31.6513 37.2033C31.0803 36.5934 30.5908 35.9429 30.1829 35.2923C29.775 34.6011 29.3671 33.8286 28.9184 32.8934C25.7368 36.6341 21.7395 38.5044 16.9263 38.5044C13.5 38.5044 10.7671 37.5286 8.76842 35.5769C6.76974 33.6253 5.75 31.0231 5.75 27.7703C5.75 24.3143 6.97368 21.5088 9.46184 19.3945C11.95 17.2802 15.2539 16.2231 19.4553 16.2231C20.8421 16.2231 22.2697 16.3451 23.7789 16.5484C25.2882 16.7517 26.8382 17.0769 28.4697 17.4429V14.4747C28.4697 11.3846 27.8171 9.22968 26.5526 7.96924C25.2474 6.7088 23.0447 6.09891 19.9039 6.09891C18.4763 6.09891 17.0079 6.26155 15.4987 6.62748C13.9895 6.99342 12.5211 7.44067 11.0934 8.0099C10.4408 8.29452 9.95132 8.45716 9.66579 8.53847C9.38026 8.61979 9.17632 8.66045 9.01316 8.66045C8.44211 8.66045 8.15658 8.25386 8.15658 7.40001V5.40771C8.15658 4.75716 8.23816 4.26924 8.44211 3.98463C8.64605 3.70001 9.01316 3.4154 9.58421 3.13078C11.0118 2.39891 12.725 1.78902 14.7237 1.30111C16.7224 0.77254 18.8434 0.528584 21.0868 0.528584C25.9408 0.528584 29.4895 1.62639 31.7737 3.82199C34.0171 6.0176 35.1592 9.35166 35.1592 13.8242V26.9978H35.2408ZM18.6803 33.178C20.0263 33.178 21.4132 32.9341 22.8816 32.4462C24.35 31.9583 25.6553 31.0638 26.7566 29.844C27.4092 29.0714 27.8987 28.2176 28.1434 27.2418C28.3882 26.2659 28.5513 25.0868 28.5513 23.7044V21.9967C27.3684 21.7121 26.1039 21.4681 24.7987 21.3055C23.4934 21.1429 22.2289 21.0616 20.9645 21.0616C18.2316 21.0616 16.2329 21.5901 14.8868 22.6879C13.5408 23.7857 12.8882 25.3308 12.8882 27.3638C12.8882 29.2747 13.3776 30.6978 14.3974 31.6736C15.3763 32.6901 16.8039 33.178 18.6803 33.178ZM51.4342 37.5692C50.7 37.5692 50.2105 37.4473 49.8842 37.1627C49.5579 36.9187 49.2724 36.3495 49.0276 35.5769L39.4421 4.14727C39.1974 3.33408 39.075 2.80551 39.075 2.52089C39.075 1.87034 39.4013 1.50441 40.0539 1.50441H44.0513C44.8263 1.50441 45.3566 1.62639 45.6421 1.911C45.9684 2.15496 46.2132 2.72419 46.4579 3.49672L53.3105 30.4132L59.6737 3.49672C59.8776 2.68353 60.1224 2.15496 60.4487 1.911C60.775 1.66705 61.346 1.50441 62.0803 1.50441H65.3434C66.1184 1.50441 66.6487 1.62639 66.975 1.911C67.3013 2.15496 67.5868 2.72419 67.75 3.49672L74.1947 30.7385L81.2513 3.49672C81.496 2.68353 81.7816 2.15496 82.0671 1.911C82.3934 1.66705 82.9237 1.50441 83.6579 1.50441H87.4513C88.1039 1.50441 88.471 1.82968 88.471 2.52089C88.471 2.72419 88.4303 2.92749 88.3895 3.17144C88.3487 3.4154 88.2671 3.74067 88.1039 4.18792L78.2737 35.6176C78.0289 36.4308 77.7434 36.9594 77.4171 37.2033C77.0908 37.4473 76.5605 37.6099 75.8671 37.6099H72.3592C71.5842 37.6099 71.0539 37.4879 70.7276 37.2033C70.4013 36.9187 70.1158 36.3901 69.9526 35.5769L63.6303 9.35166L57.3487 35.5363C57.1447 36.3495 56.9 36.878 56.5737 37.1627C56.2474 37.4473 55.6763 37.5692 54.9421 37.5692H51.4342ZM103.849 38.667C101.728 38.667 99.6066 38.4231 97.5671 37.9352C95.5276 37.4473 93.9368 36.9187 92.8763 36.3088C92.2237 35.9429 91.775 35.5363 91.6118 35.1703C91.4487 34.8044 91.3671 34.3978 91.3671 34.0319V31.9583C91.3671 31.1044 91.6934 30.6978 92.3053 30.6978C92.55 30.6978 92.7947 30.7385 93.0395 30.8198C93.2842 30.9011 93.6513 31.0638 94.0592 31.2264C95.4461 31.8363 96.9553 32.3242 98.5461 32.6495C100.178 32.9747 101.768 33.1374 103.4 33.1374C105.97 33.1374 107.968 32.6901 109.355 31.7956C110.742 30.9011 111.476 29.6 111.476 27.933C111.476 26.7945 111.109 25.8594 110.375 25.0868C109.641 24.3143 108.254 23.6231 106.255 22.9725L100.341 21.1429C97.3632 20.2077 95.1605 18.8253 93.8145 16.9956C92.4684 15.2066 91.775 13.2143 91.775 11.1C91.775 9.39232 92.1421 7.88793 92.8763 6.58683C93.6105 5.28573 94.5895 4.14727 95.8131 3.25276C97.0368 2.3176 98.4237 1.62639 100.055 1.13847C101.687 0.650562 103.4 0.447266 105.195 0.447266C106.092 0.447266 107.03 0.487925 107.928 0.609903C108.866 0.731881 109.722 0.894518 110.579 1.05716C111.395 1.26045 112.17 1.46375 112.904 1.70771C113.638 1.95166 114.209 2.19562 114.617 2.43957C115.188 2.76485 115.596 3.09012 115.841 3.45606C116.086 3.78133 116.208 4.22858 116.208 4.79781V6.7088C116.208 7.56265 115.882 8.0099 115.27 8.0099C114.943 8.0099 114.413 7.84727 113.72 7.52199C111.395 6.46485 108.784 5.93628 105.888 5.93628C103.563 5.93628 101.728 6.30221 100.463 7.07474C99.1987 7.84727 98.5461 9.02639 98.5461 10.6934C98.5461 11.8319 98.9539 12.8077 99.7697 13.5802C100.586 14.3528 102.095 15.1253 104.257 15.8165L110.049 17.6462C112.986 18.5813 115.107 19.8824 116.371 21.5495C117.636 23.2165 118.247 25.1275 118.247 27.2418C118.247 28.9901 117.88 30.5758 117.187 31.9583C116.453 33.3407 115.474 34.5605 114.209 35.5363C112.945 36.5528 111.436 37.2846 109.682 37.8132C107.846 38.3824 105.929 38.667 103.849 38.667Z" fill="#252F3E"/>
<path fill-rule="evenodd" clip-rule="evenodd" d="M111.559 58.4281C98.1388 68.3083 78.6414 73.5534 61.877 73.5534C38.3822 73.5534 17.2125 64.8929 1.22301 50.4995C-0.0414634 49.3611 1.10064 47.816 2.60985 48.7105C19.9046 58.7127 41.2375 64.771 63.3046 64.771C78.1927 64.771 94.5493 61.6808 109.601 55.338C111.844 54.3215 113.761 56.8017 111.559 58.4281Z" fill="#FF9900"/>
<path fill-rule="evenodd" clip-rule="evenodd" d="M117.147 52.0848C115.434 49.8892 105.807 51.0277 101.443 51.5563C100.137 51.7189 99.9335 50.5804 101.116 49.7266C108.785 44.3596 121.389 45.9046 122.857 47.6936C124.326 49.5233 122.449 62.087 115.27 68.1046C114.169 69.0398 113.108 68.5519 113.598 67.3321C115.23 63.3068 118.86 54.2398 117.147 52.0848Z" fill="#FF9900"/>
</g>
<defs>
<clipPath id="clip0_26_533">
<rect width="124" height="74" fill="white"/>
</clipPath>
</defs>
</svg>
