<svg aria-hidden="true" xmlns="http://www.w3.org/2000/svg" xmlns:xlink="http://www.w3.org/1999/xlink"><symbol viewBox="0 0 21 21" id="+" xmlns="http://www.w3.org/2000/svg">
<path d="M10.9242 0.332031H9.84153V10.0764H0.097168V11.1591H9.84153V20.9035H10.9242V11.1591H20.6686V10.0764H10.9242V0.332031Z"/>
</symbol><symbol viewBox="0 0 12 20" id="arrow-next" xmlns="http://www.w3.org/2000/svg">
<path d="M11.5558 9.2196L2.65555 0.31951C2.4497 0.113495 2.1749 3.58416e-07 1.8819 3.07186e-07C1.58889 2.55955e-07 1.3141 0.113495 1.10824 0.31951L0.452802 0.974789C0.0263015 1.40178 0.0263014 2.09576 0.452802 2.52209L7.92656 9.99585L0.444507 17.4779C0.238655 17.6839 0.124997 17.9586 0.124997 18.2514C0.124997 18.5446 0.238654 18.8192 0.444506 19.0254L1.09995 19.6805C1.30596 19.8865 1.58059 20 1.8736 20C2.16661 20 2.4414 19.8865 2.64725 19.6805L11.5558 10.7723C11.7621 10.5656 11.8755 10.2897 11.8748 9.99634C11.8755 9.70187 11.7621 9.4261 11.5558 9.2196Z"/>
</symbol><symbol viewBox="0 0 12 20" id="arrow-prev" xmlns="http://www.w3.org/2000/svg">
<path d="M0.444198 10.7804L9.34445 19.6805C9.5503 19.8865 9.8251 20 10.1181 20C10.4111 20 10.6859 19.8865 10.8918 19.6805L11.5472 19.0252C11.9737 18.5982 11.9737 17.9042 11.5472 17.4779L4.07344 10.0041L11.5555 2.52209C11.7613 2.31608 11.875 2.04145 11.875 1.7486C11.875 1.45544 11.7613 1.1808 11.5555 0.974627L10.9001 0.319509C10.694 0.113495 10.4194 1.7801e-06 10.1264 1.75448e-06C9.83339 1.72887e-06 9.5586 0.113495 9.35275 0.319509L0.444199 9.22773C0.237859 9.43439 0.124527 9.71033 0.125177 10.0037C0.124527 10.2981 0.237859 10.5739 0.444198 10.7804Z"/>
</symbol><symbol viewBox="0 0 30 30" id="buy" xmlns="http://www.w3.org/2000/svg">
<g clip-path="url(#dclip0_86_1228)">
<path d="M8.75 30C10.1307 30 11.25 28.8807 11.25 27.5C11.25 26.1193 10.1307 25 8.75 25C7.36929 25 6.25 26.1193 6.25 27.5C6.25 28.8807 7.36929 30 8.75 30Z"/>
<path d="M21.25 30C22.6307 30 23.75 28.8807 23.75 27.5C23.75 26.1193 22.6307 25 21.25 25C19.8693 25 18.75 26.1193 18.75 27.5C18.75 28.8807 19.8693 30 21.25 30Z"/>
<path d="M29.6061 1.67067C29.3717 1.43633 29.0538 1.30469 28.7224 1.30469C28.3909 1.30469 28.073 1.43633 27.8386 1.67067L21.3899 8.12567L19.4511 6.10192C19.3374 5.98357 19.2014 5.88878 19.051 5.82297C18.9006 5.75716 18.7387 5.72161 18.5746 5.71836C18.4105 5.71511 18.2473 5.74422 18.0944 5.80403C17.9416 5.86383 17.802 5.95316 17.6836 6.06692C17.5653 6.18068 17.4705 6.31663 17.4047 6.46702C17.3388 6.61741 17.3033 6.77929 17.3001 6.94342C17.2935 7.27489 17.4189 7.5954 17.6486 7.83442L19.6661 9.93317C19.8811 10.1654 20.1409 10.3515 20.4299 10.4805C20.7189 10.6094 21.031 10.6783 21.3474 10.6832H21.3886C21.6987 10.6842 22.0059 10.6236 22.2923 10.505C22.5788 10.3863 22.8388 10.2119 23.0574 9.99192L29.6061 3.43817C29.8405 3.20376 29.9721 2.88588 29.9721 2.55442C29.9721 2.22297 29.8405 1.90508 29.6061 1.67067Z"/>
<path d="M27.375 11.27C27.2134 11.2408 27.0476 11.2437 26.8871 11.2786C26.7266 11.3135 26.5746 11.3797 26.4397 11.4734C26.3048 11.5671 26.1897 11.6864 26.101 11.8246C26.0122 11.9628 25.9516 12.1171 25.9225 12.2787L25.7625 13.165C25.6066 14.0304 25.1515 14.8135 24.4767 15.3774C23.802 15.9413 22.9506 16.2502 22.0713 16.25H6.7725L5.5975 6.25H13.75C14.0815 6.25 14.3995 6.1183 14.6339 5.88388C14.8683 5.64946 15 5.33152 15 5C15 4.66848 14.8683 4.35054 14.6339 4.11612C14.3995 3.8817 14.0815 3.75 13.75 3.75H5.3025L5.25 3.31C5.14228 2.39825 4.70382 1.55769 4.01774 0.94763C3.33165 0.337568 2.44559 0.000391046 1.5275 0L1.25 0C0.918479 0 0.600537 0.131696 0.366117 0.366117C0.131696 0.600537 0 0.918479 0 1.25C0 1.58152 0.131696 1.89946 0.366117 2.13388C0.600537 2.3683 0.918479 2.5 1.25 2.5H1.5275C1.83367 2.50004 2.12917 2.61245 2.35797 2.81589C2.58676 3.01934 2.73293 3.29969 2.76875 3.60375L4.48875 18.2288C4.66732 19.7497 5.3981 21.1522 6.54239 22.17C7.68667 23.1878 9.16482 23.75 10.6963 23.75H23.75C24.0815 23.75 24.3995 23.6183 24.6339 23.3839C24.8683 23.1495 25 22.8315 25 22.5C25 22.1685 24.8683 21.8505 24.6339 21.6161C24.3995 21.3817 24.0815 21.25 23.75 21.25H10.6963C9.92065 21.2501 9.16408 21.0098 8.53076 20.5621C7.89744 20.1143 7.41853 19.4812 7.16 18.75H22.0713C23.5366 18.7501 24.9554 18.2353 26.0798 17.2955C27.2041 16.3558 27.9625 15.0509 28.2225 13.6088L28.3825 12.7213C28.4411 12.3952 28.368 12.0593 28.1791 11.7871C27.9901 11.515 27.701 11.329 27.375 11.27Z"/>
</g>
<defs>
<clipPath id="dclip0_86_1228">
<rect width="30" height="30"/>
</clipPath>
</defs>
</symbol><symbol viewBox="0 0 16 14" id="check" xmlns="http://www.w3.org/2000/svg">
<path d="M2.44271 6.41018C2.16657 6.41095 1.89629 6.48989 1.66315 6.63787C1.43 6.78584 1.24351 6.9968 1.12526 7.24633C1.007 7.49587 0.961817 7.77379 0.994925 8.04794C1.02803 8.32209 1.13808 8.58126 1.31234 8.79547L5.02711 13.3461C5.15956 13.5105 5.32934 13.641 5.52234 13.7267C5.71535 13.8123 5.92601 13.8507 6.13683 13.8386C6.58772 13.8144 6.9948 13.5732 7.25434 13.1766L14.9709 0.749194C14.9721 0.747133 14.9734 0.745071 14.9748 0.743041C15.0472 0.631871 15.0237 0.411564 14.8743 0.273164C14.8332 0.235157 14.7848 0.205958 14.7321 0.187364C14.6793 0.168769 14.6233 0.161174 14.5675 0.165045C14.5117 0.168916 14.4572 0.184172 14.4075 0.209873C14.3578 0.235574 14.3139 0.271176 14.2785 0.314487C14.2758 0.317892 14.2729 0.321246 14.27 0.324548L6.48775 9.11729C6.45814 9.15075 6.42218 9.17799 6.38195 9.19743C6.34172 9.21687 6.29803 9.22813 6.25341 9.23054C6.20879 9.23296 6.16414 9.22648 6.12205 9.21149C6.07996 9.1965 6.04126 9.1733 6.00821 9.14323L3.42545 6.79289C3.1572 6.54699 2.8066 6.41046 2.44271 6.41018Z"/>
</symbol><symbol viewBox="0 0 20 20" id="google" xmlns="http://www.w3.org/2000/svg">
<g clip-path="url(#fclip0_97_9984)">
<path fill-rule="evenodd" clip-rule="evenodd" d="M19.7885 10.2266C19.7885 9.51764 19.7245 8.83664 19.6065 8.18164H10.1875V12.0496H15.5695C15.4582 12.6614 15.224 13.2443 14.8812 13.763C14.5383 14.2817 14.0938 14.7255 13.5745 15.0676V17.5776H16.8065C18.6965 15.8356 19.7885 13.2716 19.7885 10.2266Z"/>
<path fill-rule="evenodd" clip-rule="evenodd" d="M10.187 20.0004C12.887 20.0004 15.151 19.1054 16.806 17.5774L13.574 15.0684C12.678 15.6684 11.533 16.0234 10.187 16.0234C7.583 16.0234 5.378 14.2634 4.592 11.9004H1.25V14.4904C2.08209 16.1473 3.3586 17.5401 4.93686 18.5132C6.51511 19.4862 8.33289 20.0012 10.187 20.0004Z"/>
<path fill-rule="evenodd" clip-rule="evenodd" d="M4.5925 11.8988C4.3925 11.2988 4.2785 10.6578 4.2785 9.99881C4.2785 9.33881 4.3925 8.69881 4.5925 8.09881V5.50781H1.2525C0.552168 6.90093 0.187451 8.43857 0.1875 9.99781C0.1875 11.6128 0.5745 13.1398 1.2515 14.4898L4.5925 11.8988Z"/>
<path fill-rule="evenodd" clip-rule="evenodd" d="M10.187 3.977C11.656 3.977 12.974 4.482 14.01 5.473L16.878 2.605C15.146 0.990001 12.883 1.32647e-06 10.188 1.32647e-06C8.33372 -0.000953772 6.51573 0.513882 4.93728 1.48694C3.35884 2.46001 2.08216 3.85294 1.25 5.51L4.59 8.1C5.377 5.736 7.582 3.977 10.186 3.977H10.187Z"/>
</g>
<defs>
<clipPath id="fclip0_97_9984">
<rect width="20" height="20"/>
</clipPath>
</defs>
</symbol><symbol viewBox="0 0 17 14" id="line-arrow" xmlns="http://www.w3.org/2000/svg">
<path d="M16.544 4.13343C16.687 3.59996 16.3704 3.05162 15.8369 2.90868L7.1436 0.579312C6.61013 0.43637 6.06179 0.752953 5.91885 1.28642C5.77591 1.81988 6.09249 2.36822 6.62596 2.51116L14.3534 4.58172L12.2828 12.3091C12.1399 12.8426 12.4565 13.3909 12.9899 13.5339C13.5234 13.6768 14.0717 13.3602 14.2147 12.8268L16.544 4.13343ZM1.07422 13.4031L16.0781 4.74063L15.0781 3.00858L0.0742188 11.6711L1.07422 13.4031Z"/>
</symbol><symbol viewBox="0 0 18 8" id="line-arrow--long" xmlns="http://www.w3.org/2000/svg">
<path d="M17.6786 4.35355C17.8738 4.15829 17.8738 3.84171 17.6786 3.64645L14.4966 0.464466C14.3013 0.269204 13.9847 0.269204 13.7895 0.464466C13.5942 0.659728 13.5942 0.976311 13.7895 1.17157L16.6179 4L13.7895 6.82843C13.5942 7.02369 13.5942 7.34027 13.7895 7.53553C13.9847 7.7308 14.3013 7.7308 14.4966 7.53553L17.6786 4.35355ZM0 4.5L17.325 4.5V3.5L0 3.5L0 4.5Z"/>
</symbol><symbol viewBox="0 0 20 20" id="telegram" xmlns="http://www.w3.org/2000/svg">
<path d="M14.0154 7.08517L8.9438 11.2306L8.70516 11.4261C8.65274 11.4676 8.61852 11.5279 8.60971 11.5943L8.5563 12.0352L8.40971 13.2738C8.41107 13.2889 8.40638 13.3039 8.39668 13.3155C8.38699 13.3271 8.37307 13.3344 8.358 13.3357C8.34294 13.3371 8.32795 13.3324 8.31633 13.3227C8.30472 13.313 8.29743 13.2991 8.29607 13.284L7.88357 12.0454L7.45744 10.7783C7.43926 10.7216 7.44158 10.6602 7.46401 10.605C7.48644 10.5497 7.52755 10.5041 7.58016 10.4761L12.8574 7.45107L13.8506 6.88289C13.9949 6.7988 14.1427 6.98062 14.0154 7.08517Z"/>
<path d="M10 0C8.02219 0 6.08879 0.58649 4.4443 1.6853C2.79981 2.78412 1.51809 4.3459 0.761209 6.17316C0.00433288 8.00043 -0.1937 10.0111 0.192152 11.9509C0.578004 13.8907 1.53041 15.6725 2.92894 17.0711C4.32746 18.4696 6.10929 19.422 8.0491 19.8078C9.98891 20.1937 11.9996 19.9957 13.8268 19.2388C15.6541 18.4819 17.2159 17.2002 18.3147 15.5557C19.4135 13.9112 20 11.9778 20 10C20 7.34783 18.9464 4.8043 17.0711 2.92893C15.1957 1.05357 12.6522 0 10 0ZM16.2375 5.78864L14.2852 14.4148C14.1932 14.8193 13.6795 15.0023 13.3193 14.7557L10.3716 12.7557L8.87046 14.175C8.80925 14.2324 8.73495 14.2741 8.654 14.2963C8.57306 14.3185 8.48791 14.3206 8.40596 14.3025C8.324 14.2844 8.24771 14.2465 8.1837 14.1922C8.11969 14.1379 8.0699 14.0688 8.03864 13.9909L7.49659 12.4L6.95455 10.8091L4.04887 10.0136C3.96762 9.9959 3.89452 9.95182 3.84091 9.88824C3.78731 9.82467 3.75621 9.74517 3.75245 9.6621C3.74869 9.57902 3.77249 9.49704 3.82013 9.42888C3.86778 9.36073 3.9366 9.31023 4.01591 9.28523L15.2409 5.24091L15.4477 5.16704C15.883 5.01477 16.333 5.36704 16.2375 5.78864Z"/>
</symbol></svg>