<svg width="15" height="16" viewBox="0 0 15 16" fill="none" xmlns="http://www.w3.org/2000/svg">
<path d="M11.875 3H9.375V2.375C9.375 1.87772 9.17746 1.40081 8.82583 1.04917C8.47419 0.697544 7.99728 0.5 7.5 0.5C7.00272 0.5 6.52581 0.697544 6.17417 1.04917C5.82254 1.40081 5.625 1.87772 5.625 2.375V3H3.125C2.2965 3.00099 1.50222 3.33055 0.916387 3.91639C0.330551 4.50222 0.000992411 5.2965 0 6.125L0 12.375C0.000992411 13.2035 0.330551 13.9978 0.916387 14.5836C1.50222 15.1694 2.2965 15.499 3.125 15.5H11.875C12.7035 15.499 13.4978 15.1694 14.0836 14.5836C14.6694 13.9978 14.999 13.2035 15 12.375V6.125C14.999 5.2965 14.6694 4.50222 14.0836 3.91639C13.4978 3.33055 12.7035 3.00099 11.875 3ZM6.875 2.375C6.875 2.20924 6.94085 2.05027 7.05806 1.93306C7.17527 1.81585 7.33424 1.75 7.5 1.75C7.66576 1.75 7.82473 1.81585 7.94194 1.93306C8.05915 2.05027 8.125 2.20924 8.125 2.375V3.625C8.125 3.79076 8.05915 3.94973 7.94194 4.06694C7.82473 4.18415 7.66576 4.25 7.5 4.25C7.33424 4.25 7.17527 4.18415 7.05806 4.06694C6.94085 3.94973 6.875 3.79076 6.875 3.625V2.375ZM13.75 12.375C13.75 12.8723 13.5525 13.3492 13.2008 13.7008C12.8492 14.0525 12.3723 14.25 11.875 14.25H3.125C2.62772 14.25 2.15081 14.0525 1.79917 13.7008C1.44754 13.3492 1.25 12.8723 1.25 12.375V6.125C1.25 5.62772 1.44754 5.15081 1.79917 4.79917C2.15081 4.44754 2.62772 4.25 3.125 4.25H5.74C5.86728 4.61534 6.1051 4.93202 6.42047 5.15611C6.73583 5.3802 7.11312 5.50059 7.5 5.50059C7.88688 5.50059 8.26416 5.3802 8.57953 5.15611C8.8949 4.93202 9.13272 4.61534 9.26 4.25H11.875C12.3723 4.25 12.8492 4.44754 13.2008 4.79917C13.5525 5.15081 13.75 5.62772 13.75 6.125V12.375ZM6.25 6.75H3.125C2.95924 6.75 2.80027 6.81585 2.68306 6.93306C2.56585 7.05027 2.5 7.20924 2.5 7.375V12.375C2.5 12.5408 2.56585 12.6997 2.68306 12.8169C2.80027 12.9342 2.95924 13 3.125 13H6.25C6.41576 13 6.57473 12.9342 6.69194 12.8169C6.80915 12.6997 6.875 12.5408 6.875 12.375V7.375C6.875 7.20924 6.80915 7.05027 6.69194 6.93306C6.57473 6.81585 6.41576 6.75 6.25 6.75ZM5.625 11.75H3.75V8H5.625V11.75ZM12.5 9.875C12.5 10.0408 12.4342 10.1997 12.3169 10.3169C12.1997 10.4342 12.0408 10.5 11.875 10.5H8.75C8.58424 10.5 8.42527 10.4342 8.30806 10.3169C8.19085 10.1997 8.125 10.0408 8.125 9.875C8.125 9.70924 8.19085 9.55027 8.30806 9.43306C8.42527 9.31585 8.58424 9.25 8.75 9.25H11.875C12.0408 9.25 12.1997 9.31585 12.3169 9.43306C12.4342 9.55027 12.5 9.70924 12.5 9.875ZM12.5 7.375C12.5 7.54076 12.4342 7.69973 12.3169 7.81694C12.1997 7.93415 12.0408 8 11.875 8H8.75C8.58424 8 8.42527 7.93415 8.30806 7.81694C8.19085 7.69973 8.125 7.54076 8.125 7.375C8.125 7.20924 8.19085 7.05027 8.30806 6.93306C8.42527 6.81585 8.58424 6.75 8.75 6.75H11.875C12.0408 6.75 12.1997 6.81585 12.3169 6.93306C12.4342 7.05027 12.5 7.20924 12.5 7.375ZM11.25 12.375C11.25 12.5408 11.1842 12.6997 11.0669 12.8169C10.9497 12.9342 10.7908 13 10.625 13H8.75C8.58424 13 8.42527 12.9342 8.30806 12.8169C8.19085 12.6997 8.125 12.5408 8.125 12.375C8.125 12.2092 8.19085 12.0503 8.30806 11.9331C8.42527 11.8158 8.58424 11.75 8.75 11.75H10.625C10.7908 11.75 10.9497 11.8158 11.0669 11.9331C11.1842 12.0503 11.25 12.2092 11.25 12.375Z" fill="#073FF6"/>
</svg>
