<svg width="12" height="16" viewBox="0 0 12 16" fill="none" xmlns="http://www.w3.org/2000/svg">
<mask id="mask0_90_2598" style="mask-type:luminance" maskUnits="userSpaceOnUse" x="0" y="10" width="12" height="6">
<path fill-rule="evenodd" clip-rule="evenodd" d="M0.121094 10.0625H12.0002V16.0003H0.121094V10.0625Z" fill="white"/>
</mask>
<g mask="url(#mask0_90_2598)">
<path fill-rule="evenodd" clip-rule="evenodd" d="M6.0609 11.2705C2.86537 11.2705 1.24547 11.8599 1.24547 13.0235C1.24547 14.1975 2.86537 14.7926 6.0609 14.7926C9.25568 14.7926 10.8748 14.2032 10.8748 13.0396C10.8748 11.8656 9.25568 11.2705 6.0609 11.2705ZM6.06144 16.0003C4.59229 16.0003 0.121094 16.0003 0.121094 13.0233C0.121094 10.3693 3.51161 10.0625 6.06144 10.0625C7.53059 10.0625 12.0003 10.0625 12.0003 13.0395C12.0003 15.6935 8.61052 16.0003 6.06144 16.0003Z" fill="#073FF6"/>
</g>
<mask id="mask1_90_2598" style="mask-type:luminance" maskUnits="userSpaceOnUse" x="2" y="0" width="9" height="9">
<path fill-rule="evenodd" clip-rule="evenodd" d="M2.08008 0H10.0446V8.55046H2.08008V0Z" fill="white"/>
</mask>
<g mask="url(#mask1_90_2598)">
<path fill-rule="evenodd" clip-rule="evenodd" d="M6.0641 1.1499C4.45846 1.1499 3.15205 2.55181 3.15205 4.27582C3.1468 5.99419 4.44346 7.3953 6.04235 7.40174L6.0641 7.97668V7.40174C7.66899 7.40174 8.97466 5.99902 8.97466 4.27582C8.97466 2.55181 7.66899 1.1499 6.0641 1.1499ZM6.06308 8.55078H6.03908C3.84773 8.54353 2.0726 6.62466 2.0801 4.27338C2.0801 1.91807 3.86648 0 6.06308 0C8.25893 0 10.0446 1.91807 10.0446 4.27579C10.0446 6.63352 8.25893 8.55078 6.06308 8.55078Z" fill="#073FF6"/>
</g>
</svg>
