<svg width="16" height="16" viewBox="0 0 16 16" fill="none" xmlns="http://www.w3.org/2000/svg">
<path d="M14.7796 1.21167L14.0796 0.605C13.273 -0.201667 11.9663 -0.201667 11.1596 0.605C11.1396 0.625 9.9063 2.23167 9.9063 2.23167C9.1463 3.03167 9.1463 4.29167 9.9063 5.085L10.6796 6.05833C9.7063 8.265 8.19297 9.785 6.05964 10.6917L5.0863 9.91167C4.29297 9.145 3.0263 9.145 2.23297 9.91167C2.23297 9.91167 0.626303 11.145 0.606303 11.165C-0.200364 11.9717 -0.200364 13.2783 0.57297 14.0517L1.23964 14.8183C2.0063 15.585 3.03964 16.005 4.15964 16.005C9.25297 16.005 15.9996 9.25167 15.9996 4.165C15.9996 3.05167 15.5796 2.01167 14.7796 1.21833V1.21167ZM4.15964 14.665C3.39964 14.665 2.69964 14.385 2.21964 13.8983L1.55297 13.1317C1.27964 12.8583 1.2663 12.4117 1.5263 12.125C1.5263 12.125 3.11964 10.8983 3.13964 10.8783C3.41297 10.605 3.89297 10.605 4.17297 10.8783C4.19297 10.8983 5.53297 11.9717 5.53297 11.9717C5.71964 12.1183 5.9663 12.1583 6.1863 12.0717C8.9463 11.0183 10.9263 9.045 12.0663 6.19833C12.153 5.97833 12.1196 5.725 11.9663 5.53167C11.9663 5.53167 10.893 4.185 10.8796 4.17167C10.593 3.885 10.593 3.425 10.8796 3.13833C10.8996 3.11833 12.1263 1.525 12.1263 1.525C12.413 1.265 12.8596 1.27167 13.1663 1.57833L13.8663 2.185C14.3796 2.69833 14.6663 3.39833 14.6663 4.15833C14.6663 8.79833 8.15297 14.665 4.15964 14.665Z" fill="#073FF6"/>
</svg>
