<svg width="20" height="16" viewBox="0 0 20 16" fill="none" xmlns="http://www.w3.org/2000/svg">
<path fill-rule="evenodd" clip-rule="evenodd" d="M9.89229 9.04931C9.30587 9.04931 8.72121 8.84131 8.23209 8.42531L4.30072 5.02201C4.0176 4.77731 3.97377 4.33213 4.2008 4.02907C4.42958 3.72696 4.84331 3.67896 5.12556 3.92272L9.05342 7.32225C9.54693 7.74201 10.242 7.74201 10.739 7.31849L14.6275 3.9246C14.9097 3.67707 15.3234 3.72413 15.5531 4.02719C15.7819 4.32931 15.7389 4.77354 15.4576 5.02013L11.5621 8.41966C11.0695 8.83943 10.4805 9.04931 9.89229 9.04931Z" fill="#073FF6"/>
<mask id="mask0_90_2627" style="mask-type:luminance" maskUnits="userSpaceOnUse" x="0" y="0" width="20" height="16">
<path fill-rule="evenodd" clip-rule="evenodd" d="M0.441406 0H19.9996V16H0.441406V0Z" fill="white"/>
</mask>
<g mask="url(#mask0_90_2627)">
<path fill-rule="evenodd" clip-rule="evenodd" d="M5.56008 14.7694H14.1679C14.1696 14.7678 14.1766 14.7694 14.1819 14.7694C15.1821 14.7694 16.0691 14.4346 16.7493 13.7988C17.5391 13.0628 17.973 12.0051 17.973 10.8211V5.18583C17.973 2.89414 16.3724 1.23096 14.1679 1.23096H5.56183C3.35729 1.23096 1.75669 2.89414 1.75669 5.18583V10.8211C1.75669 12.0051 2.19146 13.0628 2.98037 13.7988C3.66058 14.4346 4.54853 14.7694 5.54781 14.7694H5.56008ZM5.54473 16C4.1922 16 2.9843 15.5405 2.05164 14.6708C1.01292 13.7009 0.441406 12.3339 0.441406 10.8209V5.18564C0.441406 2.22933 2.64244 0 5.56138 0H14.1674C17.0864 0 19.2874 2.22933 19.2874 5.18564V10.8209C19.2874 12.3339 18.7159 13.7009 17.6772 14.6708C16.7454 15.5397 15.5366 16 14.1815 16H14.1674H5.56138H5.54473Z" fill="#073FF6"/>
</g>
</svg>
