<svg width="1752" height="848" viewBox="0 0 1752 848" fill="none" xmlns="http://www.w3.org/2000/svg">
<g opacity="0.6">
<mask id="mask0_2033_2176" style="mask-type:alpha" maskUnits="userSpaceOnUse" x="4" y="0" width="1744" height="840">
<rect x="4.5" y="0.5" width="1742.8" height="839" fill="#D9D9D9" stroke="white"/>
</mask>
<g mask="url(#mask0_2033_2176)">
<path opacity="0.0294118" d="M-666.887 -3278.51C-721.093 -2878.56 -653.033 -1995.43 -93.8461 -1642.68C656.774 -1169.17 482.01 940.733 378.406 1274.79C289.039 1562.94 -930.154 2080.17 -884.154 3085.72C-847.354 3890.15 -438.37 4252.79 -238.478 4333.56" stroke="white" stroke-linecap="round"/>
<path opacity="0.0588235" d="M-403.093 -3242.02C-483.989 -2852.01 -476.845 -1977.74 52.3904 -1591.35C762.805 -1072.69 446.067 992.51 320.785 1314.18C212.72 1591.65 -1028.85 2015.73 -1051.88 3009C-1070.3 3803.61 -690.359 4189.24 -498.084 4282.73" stroke="white" stroke-linecap="round"/>
<path opacity="0.0882353" d="M-145.929 -3187.58C-252.397 -2809.27 -304.608 -1947.99 192.727 -1530.4C860.321 -969.849 406.969 1041.24 261.227 1349.16C135.513 1614.76 -1121.43 1945.11 -1211.56 2921.43C-1283.66 3702.49 -933.958 4108.85 -750.093 4214.4" stroke="white" stroke-linecap="round"/>
<path opacity="0.117647" d="M103.398 -3115.94C-27.4107 -2750.97 -137.138 -1906.64 326.539 -1460.4C948.954 -861.383 364.962 1086.74 200.061 1379.62C57.821 1632.26 -1207.53 1868.84 -1362.51 2823.76C-1486.5 3587.7 -1168.07 4012.47 -993.35 4129.37" stroke="white" stroke-linecap="round"/>
<path opacity="0.147059" d="M343.758 -3027.92C189.943 -2677.82 24.7978 -1854.22 453.26 -1381.95C1028.4 -748.013 320.306 1128.84 137.623 1405.54C-19.9564 1644.22 -1286.81 1787.49 -1504.12 2716.78C-1677.96 3460.22 -1391.65 3901.04 -1226.77 4028.53" stroke="white" stroke-linecap="round"/>
<path opacity="0.176471" d="M574.105 -2924.42C398.709 -2590.59 180.489 -1791.28 572.378 -1295.71C1098.43 -630.486 273.274 1167.39 74.2515 1426.89C-97.4217 1650.72 -1358.98 1701.64 -1635.81 2601.32C-1857.27 3321.06 -1603.77 3775.56 -1449.33 3912.84" stroke="white" stroke-linecap="round"/>
<path opacity="0.205882" d="M793.455 -2806.4C597.989 -2490.14 329.258 -1718.45 683.423 -1202.35C1158.83 -509.569 224.132 1202.28 10.269 1443.64C-174.205 1651.84 -1423.81 1611.86 -1757.12 2478.21C-2023.76 3171.29 -1803.57 3637.05 -1660.14 3783.3" stroke="white" stroke-linecap="round"/>
<path opacity="0.235294" d="M1000.93 -2674.89C786.971 -2377.34 470.498 -1636.39 785.995 -1102.58C1209.5 -386.021 173.164 1233.39 -53.9926 1455.83C-249.934 1647.71 -1481.12 1518.78 -1867.63 2348.36C-2176.83 3012.02 -1990.28 3486.64 -1858.35 3640.99" stroke="white" stroke-linecap="round"/>
<path opacity="0.264706" d="M1195.72 -2530.96C964.917 -2253.13 603.655 -1545.77 879.747 -997.103C1250.36 -260.604 120.655 1260.63 -118.214 1463.51C-324.257 1638.5 -1530.76 1422.98 -1966.99 2212.65C-2315.98 2844.38 -2163.22 3325.45 -2043.23 3487.02" stroke="white" stroke-linecap="round"/>
<path opacity="0.294118" d="M1377.13 -2375.73C1131.17 -2118.51 728.233 -1447.32 964.392 -886.669C1281.4 -134.078 66.8929 1283.96 -182.079 1466.72C-396.837 1624.36 -1572.64 1325.09 -2054.94 2072C-2440.79 2669.53 -2321.83 3154.68 -2214.12 3322.57" stroke="white" stroke-linecap="round"/>
<path opacity="0.323529" d="M1544.54 -2210.35C1285.16 -1974.49 843.801 -1341.8 1039.7 -772.029C1302.67 -7.19646 12.1672 1303.33 -245.282 1465.57C-467.353 1605.51 -1606.71 1225.71 -2131.29 1927.33C-2550.95 2488.63 -2465.61 2975.52 -2370.48 3148.81" stroke="white" stroke-linecap="round"/>
<path opacity="0.352941" d="M1697.43 -2036.03C1426.39 -1822.12 949.984 -1229.98 1105.51 -653.939C1314.28 119.302 -43.237 1318.71 -307.532 1460.15C-535.507 1582.15 -1632.97 1125.45 -2195.9 1779.58C-2646.24 2302.88 -2594.18 2789.2 -2511.86 2966.95" stroke="white" stroke-linecap="round"/>
<path opacity="0.382353" d="M1835.38 -1853.95C1554.47 -1662.46 1046.48 -1112.63 1161.71 -533.154C1316.39 244.699 -99.0276 1330.11 -368.539 1450.6C-601.015 1554.53 -1651.47 1024.91 -2248.72 1629.66C-2726.52 2113.45 -2707.25 2596.97 -2637.89 2778.25" stroke="white" stroke-linecap="round"/>
<path opacity="0.411765" d="M1958.07 -1665.35C1669.07 -1496.59 1133.03 -990.56 1208.25 -410.435C1309.21 368.29 -154.93 1337.56 -428.043 1437.07C-663.625 1522.9 -1662.31 924.686 -2289.78 1478.48C-2791.75 1921.52 -2804.64 2400.05 -2748.34 2583.93" stroke="white" stroke-linecap="round"/>
<path opacity="0.441176" d="M2065.28 -1471.45C1769.96 -1325.61 1209.47 -864.58 1245.14 -286.536C1293.02 489.396 -210.657 1341.08 -485.777 1419.7C-723.09 1487.52 -1665.61 825.337 -2319.15 1326.96C-2841.99 1728.25 -2886.25 2199.69 -2843.03 2385.24" stroke="white" stroke-linecap="round"/>
<path opacity="0.470588" d="M2156.85 -1273.48C1856.99 -1150.61 1275.67 -735.494 1272.44 -162.193C1268.1 607.373 -265.945 1340.74 -541.511 1398.69C-779.208 1448.68 -1661.56 727.425 -2337.01 1175.96C-2877.38 1534.79 -2952.09 1997.11 -2921.91 2183.42" stroke="white" stroke-linecap="round"/>
<path opacity="0.5" d="M2232.78 -1072.67C1930.1 -972.678 1331.58 -604.106 1290.28 -38.1303C1234.84 721.603 -320.524 1336.62 -595.012 1374.22C-831.78 1406.66 -1650.37 631.486 -2343.57 1026.36C-2898.13 1342.26 -3002.25 1793.53 -2984.99 1979.68" stroke="white" stroke-linecap="round"/>
<path opacity="0.529412" d="M2293.1 -870.216C1989.33 -792.889 1377.21 -471.216 1298.84 84.9443C1193.64 831.502 -374.141 1328.82 -646.077 1346.51C-880.644 1361.78 -1632.31 538.028 -2339.11 878.974C-2904.55 1151.73 -3036.92 1590.13 -3032.43 1775.24" stroke="white" stroke-linecap="round"/>
<path opacity="0.558824" d="M2337.97 -667.299C2034.76 -612.297 1412.63 -337.603 1298.34 206.354C1144.93 936.53 -426.547 1317.44 -694.512 1315.77C-925.655 1314.33 -1607.66 447.542 -2323.98 734.607C-2897.03 964.26 -3056.37 1388.07 -3064.41 1571.27" stroke="white" stroke-linecap="round"/>
<path opacity="0.588235" d="M2367.62 -465.079C2066.59 -431.941 1437.96 -204.04 1289.06 325.439C1089.19 1036.18 -477.513 1302.63 -740.154 1282.24C-966.703 1264.64 -1576.75 360.477 -2298.57 594.015C-2876.03 780.846 -3060.97 1188.46 -3081.26 1368.91" stroke="white" stroke-linecap="round"/>
<path opacity="0.617647" d="M2382.37 -264.671C2085.06 -252.824 1453.38 -71.2698 1271.32 441.577C1026.93 1129.99 -526.815 1284.52 -782.846 1246.14C-1003.69 1213.03 -1539.94 277.263 -2263.35 457.917C-2842.08 602.44 -3051.16 992.37 -3083.35 1169.27" stroke="white" stroke-linecap="round"/>
<path opacity="0.647059" d="M2382.63 -67.1528C2090.52 -75.9156 1459.12 59.9847 1245.48 554.178C958.705 1217.55 -574.243 1263.27 -822.456 1207.72C-1036.56 1159.8 -1497.62 198.288 -2218.82 326.985C-2795.78 429.942 -3027.44 800.824 -3071.15 973.396" stroke="white" stroke-linecap="round"/>
<path opacity="0.676471" d="M2368.87 126.447C2083.36 97.8569 1455.49 189.034 1211.96 662.689C885.07 1298.5 -619.604 1239.06 -858.874 1167.24C-1065.26 1105.29 -1450.19 123.912 -2165.53 201.844C-2737.79 264.19 -2990.41 614.792 -3045.19 782.3" stroke="white" stroke-linecap="round"/>
<path opacity="0.705882" d="M2341.64 315.151C2064.04 267.609 1442.81 315.219 1171.21 766.595C806.621 1372.5 -662.712 1212.06 -892 1124.95C-1089.78 1049.81 -1398.1 54.4534 -2104.05 83.0674C-2668.82 105.959 -2940.73 435.178 -3006.08 596.926" stroke="white" stroke-linecap="round"/>
<path opacity="0.735294" d="M2301.55 498.04C2033.1 432.508 1421.47 437.919 1123.68 865.426C723.955 1439.29 -703.41 1182.48 -921.77 1081.11C-1110.12 993.669 -1341.78 -9.80447 -2035.04 -28.8246C-2589.64 -44.0406 -2879.1 262.828 -2954.5 418.164" stroke="white" stroke-linecap="round"/>
<path opacity="0.764706" d="M2249.29 674.261C1991.12 591.776 1391.89 556.552 1069.91 958.757C637.7 1498.65 -741.544 1150.52 -948.124 1035.98C-1126.32 937.185 -1281.72 -68.6163 -1959.13 -133.366C-2501.05 -185.167 -2806.29 98.5178 -2891.18 246.835" stroke="white" stroke-linecap="round"/>
<path opacity="0.794118" d="M2185.59 843.017C1938.72 744.686 1354.53 670.575 1010.41 1046.2C548.485 1550.42 -776.98 1116.38 -971.028 989.82C-1138.41 880.651 -1218.4 -121.784 -1877.01 -230.158C-2403.9 -316.857 -2723.13 -57.053 -2816.88 83.6866" stroke="white" stroke-linecap="round"/>
<path opacity="0.823529" d="M2111.22 1003.59C1876.59 890.576 1309.9 779.49 945.749 1127.42C456.94 1594.47 -809.609 1080.29 -990.473 942.882C-1146.48 824.359 -1152.3 -169.145 -1789.4 -318.854C-2299.08 -438.622 -2630.47 -203.257 -2732.46 -70.6038" stroke="white" stroke-linecap="round"/>
<path opacity="0.852941" d="M2027.02 1155.33C1805.46 1028.85 1258.51 882.854 876.495 1202.14C363.706 1630.74 -839.327 1042.47 -1006.46 895.429C-1150.62 768.597 -1083.92 -210.571 -1697.01 -399.163C-2187.48 -550.037 -2529.21 -339.536 -2638.77 -215.426" stroke="white" stroke-linecap="round"/>
<path opacity="0.882353" d="M1933.85 1297.66C1726.06 1158.98 1200.92 980.264 803.237 1270.12C269.413 1659.22 -866.057 1003.14 -1019.01 847.707C-1150.95 713.63 -1013.78 -245.985 -1600.59 -470.865C-2070.04 -650.769 -2420.28 -465.421 -2536.71 -350.259" stroke="white" stroke-linecap="round"/>
<path opacity="0.911765" d="M1832.61 1430.09C1639.19 1280.5 1137.71 1071.36 726.573 1331.17C174.692 1679.93 -889.733 962.547 -1028.17 799.958C-1147.58 659.711 -942.354 -275.352 -1500.87 -533.801C-1947.69 -740.561 -2304.62 -580.524 -2427.23 -474.66" stroke="white" stroke-linecap="round"/>
<path opacity="0.941176" d="M1724.21 1552.2C1545.66 1393.01 1069.47 1155.86 647.107 1385.17C80.157 1692.97 -910.311 920.913 -1033.99 752.424C-1140.68 607.089 -870.158 -298.662 -1398.61 -587.864C-1821.38 -819.225 -2183.2 -684.526 -2311.26 -588.256" stroke="white" stroke-linecap="round"/>
<path opacity="0.970588" d="M1609.6 1663.64C1446.28 1496.18 996.806 1233.5 565.446 1432.01C-13.5879 1698.47 -927.76 878.471 -1036.56 705.333C-1130.4 555.987 -797.677 -315.961 -1294.55 -633.016C-1692.05 -886.66 -2056.99 -777.202 -2189.77 -690.768" stroke="white" stroke-linecap="round"/>
<path d="M1489.71 1764.17C1341.91 1589.77 920.343 1304.1 482.191 1471.66C-105.958 1696.6 -942.07 835.45 -1035.95 658.901C-1116.92 506.614 -725.392 -327.329 -1189.43 -669.281C-1560.65 -942.842 -1926.98 -858.406 -2063.73 -781.992" stroke="white" stroke-linecap="round"/>
</g>
</g>
</svg>
