<svg width="393" height="608" viewBox="0 0 393 608" fill="none" xmlns="http://www.w3.org/2000/svg">
<path opacity="0.0294118" d="M-1174.89 -3278.52C-1229.1 -2878.56 -1161.04 -1995.44 -601.852 -1642.69C148.767 -1169.18 -25.9959 940.726 -129.6 1274.78C-218.968 1562.94 -1438.16 2080.17 -1392.16 3085.71C-1355.36 3890.14 -946.377 4252.78 -746.485 4333.55" stroke="white" stroke-linecap="round"/>
<path opacity="0.0588235" d="M-911.099 -3242.03C-991.995 -2852.02 -984.851 -1977.75 -455.616 -1591.36C254.799 -1072.69 -61.9397 992.503 -187.221 1314.18C-295.286 1591.65 -1536.86 2015.72 -1559.89 3008.99C-1578.31 3803.6 -1198.37 4189.23 -1006.09 4282.72" stroke="white" stroke-linecap="round"/>
<path opacity="0.0882353" d="M-653.936 -3187.59C-760.403 -2809.28 -812.615 -1947.99 -315.28 -1530.4C352.314 -969.856 -101.037 1041.23 -246.779 1349.15C-372.493 1614.75 -1629.44 1945.1 -1719.57 2921.42C-1791.67 3702.48 -1441.96 4108.85 -1258.1 4214.39" stroke="white" stroke-linecap="round"/>
<path opacity="0.117647" d="M-404.609 -3115.95C-535.417 -2750.98 -645.145 -1906.65 -181.467 -1460.4C440.947 -861.39 -143.044 1086.73 -307.945 1379.62C-450.185 1632.25 -1715.54 1868.83 -1870.52 2823.75C-1994.51 3587.69 -1676.07 4012.47 -1501.36 4129.36" stroke="white" stroke-linecap="round"/>
<path opacity="0.147059" d="M-164.248 -3027.93C-318.064 -2677.83 -483.208 -1854.22 -54.7464 -1381.96C520.396 -748.02 -187.7 1128.83 -370.383 1405.54C-527.962 1644.22 -1794.81 1787.48 -2012.12 2716.77C-2185.97 3460.21 -1899.66 3901.04 -1734.77 4028.52" stroke="white" stroke-linecap="round"/>
<path opacity="0.176471" d="M66.104 -2924.42C-109.292 -2590.59 -327.512 -1791.28 64.377 -1295.71C590.427 -630.486 -234.727 1167.39 -433.75 1426.89C-605.423 1650.72 -1866.98 1701.64 -2143.81 2601.32C-2365.28 3321.06 -2111.77 3775.56 -1957.34 3912.84" stroke="white" stroke-linecap="round"/>
<path opacity="0.205882" d="M285.455 -2806.4C89.9884 -2490.14 -178.743 -1718.45 175.423 -1202.35C650.834 -509.569 -283.869 1202.28 -497.731 1443.64C-682.205 1651.84 -1931.82 1611.87 -2265.12 2478.21C-2531.76 3171.29 -2311.57 3637.05 -2168.14 3783.3" stroke="white" stroke-linecap="round"/>
<path opacity="0.235294" d="M492.926 -2674.89C278.97 -2377.34 -37.5025 -1636.39 277.995 -1102.58C701.5 -386.021 -334.837 1233.38 -561.993 1455.83C-757.935 1647.71 -1989.12 1518.78 -2375.63 2348.36C-2684.83 3012.02 -2498.28 3486.64 -2366.35 3640.99" stroke="white" stroke-linecap="round"/>
<path opacity="0.264706" d="M687.719 -2530.96C456.916 -2253.13 95.6537 -1545.77 371.746 -997.103C742.357 -260.605 -387.346 1260.63 -626.215 1463.5C-832.258 1638.5 -2038.76 1422.98 -2474.99 2212.65C-2823.98 2844.38 -2671.23 3325.45 -2551.23 3487.02" stroke="white" stroke-linecap="round"/>
<path opacity="0.294118" d="M869.126 -2375.73C623.171 -2118.51 220.233 -1447.32 456.392 -886.669C773.398 -134.078 -441.108 1283.96 -690.079 1466.72C-904.838 1624.36 -2080.64 1325.09 -2562.95 2072C-2948.79 2669.53 -2829.83 3154.68 -2722.12 3322.57" stroke="white" stroke-linecap="round"/>
<path opacity="0.323529" d="M1036.54 -2210.35C777.161 -1974.49 335.8 -1341.8 531.703 -772.029C794.672 -7.19646 -495.834 1303.33 -753.283 1465.57C-975.354 1605.51 -2114.71 1225.71 -2639.29 1927.33C-3058.95 2488.63 -2973.61 2975.52 -2878.48 3148.81" stroke="white" stroke-linecap="round"/>
<path opacity="0.352941" d="M1189.43 -2036.03C918.393 -1822.12 441.982 -1229.98 597.51 -653.939C806.281 119.301 -551.238 1318.71 -815.533 1460.15C-1043.51 1582.15 -2140.97 1125.45 -2703.9 1779.58C-3154.24 2302.88 -3102.18 2789.2 -3019.86 2966.95" stroke="white" stroke-linecap="round"/>
<path opacity="0.382353" d="M1327.38 -1853.95C1046.47 -1662.46 538.477 -1112.63 653.711 -533.154C808.394 244.699 -607.028 1330.11 -876.54 1450.6C-1109.02 1554.53 -2159.47 1024.91 -2756.72 1629.66C-3234.52 2113.45 -3215.25 2596.97 -3145.9 2778.25" stroke="white" stroke-linecap="round"/>
<path opacity="0.411765" d="M1450.07 -1665.35C1161.07 -1496.59 625.03 -990.56 700.247 -410.435C801.214 368.29 -662.93 1337.56 -936.043 1437.07C-1171.63 1522.9 -2170.31 924.686 -2797.78 1478.48C-3299.75 1921.52 -3312.64 2400.05 -3256.34 2583.93" stroke="white" stroke-linecap="round"/>
<path opacity="0.441176" d="M1557.27 -1471.45C1261.96 -1325.61 701.47 -864.58 737.137 -286.536C785.016 489.396 -718.657 1341.08 -993.778 1419.7C-1231.09 1487.52 -2173.61 825.337 -2827.16 1326.96C-3349.99 1728.25 -3394.25 2199.69 -3351.03 2385.24" stroke="white" stroke-linecap="round"/>
<path opacity="0.470588" d="M1648.85 -1273.48C1348.99 -1150.61 767.669 -735.494 764.439 -162.193C760.103 607.373 -773.947 1340.74 -1049.51 1398.69C-1287.21 1448.68 -2169.56 727.425 -2845.02 1175.96C-3385.38 1534.79 -3460.09 1997.11 -3429.91 2183.42" stroke="white" stroke-linecap="round"/>
<path opacity="0.5" d="M1724.77 -1072.67C1422.1 -972.678 823.583 -604.106 782.282 -38.1303C726.843 721.603 -828.525 1336.62 -1103.01 1374.22C-1339.78 1406.66 -2158.37 631.486 -2851.57 1026.36C-3406.13 1342.26 -3510.25 1793.53 -3493 1979.68" stroke="white" stroke-linecap="round"/>
<path opacity="0.529412" d="M1785.1 -870.216C1481.33 -792.889 869.213 -471.216 790.84 84.9443C685.636 831.502 -882.142 1328.82 -1154.08 1346.51C-1388.64 1361.78 -2140.31 538.028 -2847.11 878.974C-3412.55 1151.73 -3544.92 1590.13 -3540.43 1775.24" stroke="white" stroke-linecap="round"/>
<path opacity="0.558824" d="M1829.97 -667.3C1526.76 -612.297 904.631 -337.603 790.342 206.353C636.926 936.53 -934.547 1317.44 -1202.51 1315.77C-1433.66 1314.33 -2115.66 447.541 -2831.98 734.607C-3405.03 964.26 -3564.37 1388.07 -3572.41 1571.27" stroke="white" stroke-linecap="round"/>
<path opacity="0.588235" d="M1859.62 -465.079C1558.59 -431.942 929.956 -204.04 781.058 325.438C581.186 1036.18 -985.514 1302.63 -1248.16 1282.23C-1474.7 1264.64 -2084.75 360.477 -2806.57 594.015C-3384.03 780.845 -3568.97 1188.46 -3589.26 1368.91" stroke="white" stroke-linecap="round"/>
<path opacity="0.617647" d="M1874.37 -264.671C1577.06 -252.824 945.375 -71.2698 763.317 441.577C518.932 1129.99 -1034.82 1284.52 -1290.85 1246.14C-1511.69 1213.03 -2047.94 277.263 -2771.36 457.917C-3350.08 602.44 -3559.16 992.37 -3591.35 1169.27" stroke="white" stroke-linecap="round"/>
<path opacity="0.647059" d="M1874.63 -67.1533C1582.52 -75.9161 951.123 59.9842 737.483 554.178C450.704 1217.55 -1082.24 1263.27 -1330.46 1207.72C-1544.56 1159.8 -2005.62 198.288 -2726.82 326.984C-3303.79 429.941 -3535.44 800.824 -3579.15 973.395" stroke="white" stroke-linecap="round"/>
<path opacity="0.676471" d="M1860.87 126.446C1575.36 97.8564 947.488 189.034 703.963 662.688C377.069 1298.5 -1127.6 1239.06 -1366.87 1167.24C-1573.26 1105.29 -1958.19 123.912 -2673.53 201.844C-3245.79 264.189 -3498.41 614.791 -3553.19 782.299" stroke="white" stroke-linecap="round"/>
<path opacity="0.705882" d="M1833.64 315.15C1556.04 267.608 934.812 315.218 663.206 766.594C298.619 1372.5 -1170.71 1212.06 -1400 1124.95C-1597.78 1049.81 -1906.1 54.4527 -2612.06 83.0667C-3176.82 105.958 -3448.73 435.177 -3514.08 596.925" stroke="white" stroke-linecap="round"/>
<path opacity="0.735294" d="M1793.55 498.04C1525.1 432.507 913.468 437.918 615.683 865.426C215.954 1439.29 -1211.41 1182.48 -1429.77 1081.11C-1618.12 993.668 -1849.79 -9.8052 -2543.04 -28.8253C-3097.64 -44.0414 -3387.1 262.827 -3462.5 418.163" stroke="white" stroke-linecap="round"/>
<path opacity="0.764706" d="M1741.29 674.261C1483.12 591.776 883.888 556.552 561.907 958.757C129.699 1498.65 -1249.55 1150.52 -1456.13 1035.98C-1634.32 937.184 -1789.73 -68.6168 -2467.13 -133.367C-3009.05 -185.167 -3314.29 98.5173 -3399.18 246.834" stroke="white" stroke-linecap="round"/>
<path opacity="0.794118" d="M1677.59 843.017C1430.72 744.686 846.533 670.575 502.412 1046.2C40.4846 1550.42 -1284.98 1116.38 -1479.03 989.82C-1646.41 880.651 -1726.4 -121.784 -2385.01 -230.158C-2911.9 -316.857 -3231.13 -57.053 -3324.88 83.6866" stroke="white" stroke-linecap="round"/>
<path opacity="0.823529" d="M1603.22 1003.59C1368.59 890.575 801.896 779.489 437.749 1127.42C-51.0595 1594.47 -1317.61 1080.29 -1498.47 942.881C-1654.48 824.358 -1660.3 -169.146 -2297.4 -318.855C-2807.08 -438.623 -3138.47 -203.258 -3240.46 -70.6048" stroke="white" stroke-linecap="round"/>
<path opacity="0.852941" d="M1519.02 1155.32C1297.46 1028.85 750.507 882.852 368.496 1202.14C-144.294 1630.74 -1347.33 1042.46 -1514.46 895.427C-1658.62 768.595 -1591.92 -210.573 -2205.01 -399.166C-2695.48 -550.039 -3037.21 -339.538 -3146.76 -215.428" stroke="white" stroke-linecap="round"/>
<path opacity="0.882353" d="M1425.85 1297.66C1218.06 1158.98 692.917 980.262 295.237 1270.12C-238.586 1659.21 -1374.06 1003.14 -1527.01 847.705C-1658.95 713.628 -1521.78 -245.987 -2108.59 -470.867C-2578.04 -650.771 -2928.28 -465.423 -3044.71 -350.261" stroke="white" stroke-linecap="round"/>
<path opacity="0.911765" d="M1324.61 1430.09C1131.19 1280.5 629.707 1071.36 218.574 1331.17C-333.307 1679.93 -1397.73 962.545 -1536.17 799.956C-1655.58 659.709 -1450.35 -275.354 -2008.87 -533.803C-2455.69 -740.563 -2812.61 -580.526 -2935.23 -474.662" stroke="white" stroke-linecap="round"/>
<path opacity="0.941176" d="M1216.21 1552.19C1037.66 1393.01 561.467 1155.86 139.108 1385.16C-427.843 1692.97 -1418.31 920.912 -1541.99 752.423C-1648.68 607.088 -1378.16 -298.663 -1906.61 -587.865C-2329.38 -819.226 -2691.19 -684.527 -2819.26 -588.257" stroke="white" stroke-linecap="round"/>
<path opacity="0.970588" d="M1101.6 1663.64C938.283 1496.18 488.807 1233.5 57.4461 1432.01C-521.587 1698.47 -1435.76 878.47 -1544.55 705.332C-1638.4 555.986 -1305.68 -315.962 -1802.55 -633.017C-2200.05 -886.661 -2564.99 -777.203 -2697.77 -690.769" stroke="white" stroke-linecap="round"/>
<path d="M981.715 1764.17C833.909 1589.77 412.344 1304.1 -25.8081 1471.66C-613.958 1696.6 -1450.07 835.45 -1543.94 658.901C-1624.92 506.613 -1233.39 -327.329 -1697.43 -669.281C-2068.65 -942.843 -2434.98 -858.406 -2571.73 -781.993" stroke="white" stroke-linecap="round"/>
</svg>
