<svg width="16" height="16" viewBox="0 0 16 16" fill="none" xmlns="http://www.w3.org/2000/svg">
<rect x="-0.5" y="-0.5" width="17" height="17" rx="1.5" fill="#073FF6" stroke="#073FF6"/>
<path d="M2.44271 7.41018C2.16657 7.41095 1.89629 7.48989 1.66315 7.63787C1.43 7.78584 1.24351 7.9968 1.12526 8.24633C1.007 8.49587 0.961817 8.77379 0.994925 9.04794C1.02803 9.32209 1.13808 9.58126 1.31234 9.79547L5.02711 14.3461C5.15956 14.5105 5.32934 14.641 5.52234 14.7267C5.71535 14.8123 5.92601 14.8507 6.13683 14.8386C6.58772 14.8144 6.9948 14.5732 7.25434 14.1766L14.9709 1.74919C14.9721 1.74713 14.9734 1.74507 14.9748 1.74304C15.0472 1.63187 15.0237 1.41156 14.8743 1.27316C14.8332 1.23516 14.7848 1.20596 14.7321 1.18736C14.6793 1.16877 14.6233 1.16117 14.5675 1.16504C14.5117 1.16892 14.4572 1.18417 14.4075 1.20987C14.3578 1.23557 14.3139 1.27118 14.2785 1.31449C14.2758 1.31789 14.2729 1.32125 14.27 1.32455L6.48775 10.1173C6.45814 10.1507 6.42218 10.178 6.38195 10.1974C6.34172 10.2169 6.29803 10.2281 6.25341 10.2305C6.20879 10.233 6.16414 10.2265 6.12205 10.2115C6.07996 10.1965 6.04126 10.1733 6.00821 10.1432L3.42545 7.79289C3.1572 7.54699 2.8066 7.41046 2.44271 7.41018Z" fill="white"/>
</svg>
