<svg width="30" height="40" viewBox="0 0 30 40" fill="none" xmlns="http://www.w3.org/2000/svg">
<path d="M24.9891 3.81001C22.9548 1.99258 20.4633 0.764313 17.7829 0.257393C15.1026 -0.249528 12.3347 -0.0159096 9.77716 0.933106C7.21966 1.88212 4.96936 3.5106 3.26845 5.64329C1.56754 7.77599 0.480414 10.3321 0.124067 13.0367C-0.195967 15.4081 0.0599863 17.8217 0.870265 20.0732C1.68054 22.3248 3.0213 24.348 4.77907 25.9717C5.86607 26.9249 6.7432 28.0935 7.35487 29.4035C7.96655 30.7135 8.29942 32.1363 8.3324 33.5817V33.85C8.33417 35.4805 8.98268 37.0438 10.1356 38.1968C11.2886 39.3497 12.8519 39.9982 14.4824 40H15.5157C17.1463 39.9982 18.7095 39.3497 19.8625 38.1968C21.0155 37.0438 21.664 35.4805 21.6657 33.85V32.935C21.6907 31.6574 21.9913 30.4004 22.5471 29.2497C23.1028 28.0991 23.9006 27.0821 24.8857 26.2683C26.4834 24.8691 27.7655 23.1463 28.647 21.2141C29.5286 19.282 29.9895 17.1845 29.9993 15.0608C30.0091 12.937 29.5675 10.8355 28.7037 8.89527C27.8399 6.95508 26.5738 5.22058 24.9891 3.80667V3.81001ZM15.5157 36.6667H14.4824C13.7356 36.6658 13.0197 36.3688 12.4917 35.8407C11.9637 35.3127 11.6666 34.5968 11.6657 33.85C11.6657 33.85 11.6541 33.4167 11.6524 33.3333H18.3324V33.85C18.3315 34.5968 18.0345 35.3127 17.5064 35.8407C16.9784 36.3688 16.2625 36.6658 15.5157 36.6667ZM22.6824 23.765C20.7848 25.4109 19.4144 27.5796 18.7424 30H16.6657V18.0267C17.6372 17.6832 18.4789 17.048 19.0756 16.2078C19.6723 15.3677 19.9948 14.3638 19.9991 13.3333C19.9991 12.8913 19.8235 12.4674 19.5109 12.1548C19.1984 11.8423 18.7744 11.6667 18.3324 11.6667C17.8904 11.6667 17.4665 11.8423 17.1539 12.1548C16.8413 12.4674 16.6657 12.8913 16.6657 13.3333C16.6657 13.7754 16.4901 14.1993 16.1776 14.5119C15.865 14.8244 15.4411 15 14.9991 15C14.557 15 14.1331 14.8244 13.8206 14.5119C13.508 14.1993 13.3324 13.7754 13.3324 13.3333C13.3324 12.8913 13.1568 12.4674 12.8442 12.1548C12.5317 11.8423 12.1078 11.6667 11.6657 11.6667C11.2237 11.6667 10.7998 11.8423 10.4872 12.1548C10.1747 12.4674 9.99907 12.8913 9.99907 13.3333C10.0033 14.3638 10.3259 15.3677 10.9225 16.2078C11.5192 17.048 12.3609 17.6832 13.3324 18.0267V30H11.1291C10.3774 27.5154 8.9676 25.2803 7.04907 23.5317C5.42066 22.0143 4.26027 20.0628 3.70485 17.9075C3.14943 15.7521 3.22214 13.4829 3.91442 11.3675C4.60669 9.25212 5.88963 7.37892 7.61185 5.96895C9.33406 4.55897 11.4237 3.67106 13.6341 3.41001C14.0923 3.35886 14.553 3.33326 15.0141 3.33334C17.8767 3.32483 20.6402 4.38105 22.7674 6.29667C24.0002 7.396 24.9853 8.74482 25.6573 10.2537C26.3293 11.7626 26.6729 13.3971 26.6654 15.0489C26.6578 16.7006 26.2992 18.3319 25.6134 19.8346C24.9276 21.3373 23.9302 22.677 22.6874 23.765H22.6824Z" fill="#064CBA"/>
</svg>
