<svg width="40" height="40" viewBox="0 0 40 40" fill="none" xmlns="http://www.w3.org/2000/svg">
<path d="M40.0004 3.33333V10C40.0004 10.92 39.2554 11.6667 38.3338 11.6667C37.4121 11.6667 36.6671 10.92 36.6671 10V5.69L29.8954 12.46C27.6554 14.7 24.0104 14.7017 21.7704 12.46L17.5387 8.23C16.5971 7.28833 15.0671 7.29167 14.1271 8.23L2.84542 19.5117C2.52042 19.8367 2.09375 20 1.66708 20C1.24042 20 0.81375 19.8367 0.48875 19.5117C-0.162917 18.86 -0.162917 17.8067 0.48875 17.155L11.7704 5.87333C14.0104 3.63333 17.6554 3.63167 19.8954 5.87333L24.1271 10.1033C25.0688 11.0467 26.5988 11.0417 27.5388 10.1033L34.3088 3.33333H29.9988C29.0771 3.33333 28.3321 2.58667 28.3321 1.66667C28.3321 0.746667 29.0771 0 29.9988 0H36.6654C38.5038 0 40.0004 1.495 40.0004 3.33333ZM36.1421 27.1117L31.0754 26.2683C30.4521 26.165 30.0004 25.6317 30.0004 25C30.0004 24.08 30.7471 23.3333 31.6671 23.3333H35.4471C36.0404 23.3333 36.5938 23.6517 36.8921 24.1683C37.3488 24.965 38.3671 25.24 39.1688 24.775C39.9654 24.315 40.2388 23.295 39.7754 22.4983C38.8854 20.9583 37.2254 20 35.4454 20H34.9988V18.3333C34.9988 17.4133 34.2538 16.6667 33.3321 16.6667C32.4104 16.6667 31.6654 17.4133 31.6654 18.3333V20C28.9088 20 26.6654 22.2433 26.6654 25C26.6654 27.265 28.2887 29.1833 30.5238 29.555L35.5904 30.3983C36.2138 30.5017 36.6654 31.035 36.6654 31.6667C36.6654 32.5867 35.9188 33.3333 34.9988 33.3333H31.2188C30.6254 33.3333 30.0721 33.015 29.7738 32.4983C29.3154 31.7 28.2937 31.4233 27.4971 31.8917C26.7004 32.3517 26.4271 33.3717 26.8904 34.1683C27.7804 35.71 29.4404 36.6667 31.2204 36.6667H31.6671V38.3333C31.6671 39.255 32.4121 40 33.3338 40C34.2554 40 35.0004 39.255 35.0004 38.3333V36.6667C37.7571 36.6667 40.0004 34.4233 40.0004 31.6667C40.0004 29.4017 38.3771 27.4833 36.1421 27.1117ZM3.33375 23.3333C2.41208 23.3333 1.66708 24.0783 1.66708 25V38.3333C1.66708 39.255 2.41208 40 3.33375 40C4.25542 40 5.00042 39.255 5.00042 38.3333V25C5.00042 24.0783 4.25542 23.3333 3.33375 23.3333ZM11.6671 15.8333C10.7454 15.8333 10.0004 16.58 10.0004 17.5V38.3333C10.0004 39.255 10.7454 40 11.6671 40C12.5887 40 13.3338 39.255 13.3338 38.3333V17.5C13.3338 16.58 12.5887 15.8333 11.6671 15.8333ZM20.0004 15.8333C19.0788 15.8333 18.3337 16.58 18.3337 17.5V38.3333C18.3337 39.255 19.0788 40 20.0004 40C20.9221 40 21.6671 39.255 21.6671 38.3333V17.5C21.6671 16.58 20.9221 15.8333 20.0004 15.8333Z" fill="#064CBA"/>
</svg>
