<svg width="62" height="62" viewBox="0 0 62 62" fill="none" xmlns="http://www.w3.org/2000/svg">
<path d="M30.9988 15.8652H4.76562" stroke="#064CBA" stroke-miterlimit="10"/>
<path d="M31 46.1348H57.2332" stroke="#064CBA" stroke-miterlimit="10"/>
<path d="M46.1348 31.0003V4.80078" stroke="#064CBA" stroke-miterlimit="10"/>
<path d="M15.8652 31V57.2332" stroke="#064CBA" stroke-miterlimit="10"/>
<path d="M41.6955 20.3049L23.1641 1.77344" stroke="#064CBA" stroke-miterlimit="10"/>
<path d="M20.3047 41.6953L38.8361 60.2604" stroke="#064CBA" stroke-miterlimit="10"/>
<path d="M41.6953 41.6953L60.2267 23.1641" stroke="#064CBA" stroke-miterlimit="10"/>
<path d="M20.3048 20.3047L1.77344 38.836" stroke="#064CBA" stroke-miterlimit="10"/>
<path d="M25.2153 17.043L1 27.0653" stroke="#064CBA" stroke-miterlimit="10"/>
<path d="M36.7852 44.9913L61.0004 34.9688" stroke="#064CBA" stroke-miterlimit="10"/>
<path d="M44.9917 25.2153L34.9355 1" stroke="#064CBA" stroke-miterlimit="10"/>
<path d="M17.0098 36.7852L27.0659 61.0339" stroke="#064CBA" stroke-miterlimit="10"/>
<path d="M36.7856 17.0424L12.5703 6.98633" stroke="#064CBA" stroke-miterlimit="10"/>
<path d="M25.2148 44.9922L49.4301 55.0145" stroke="#064CBA" stroke-miterlimit="10"/>
<path d="M44.9922 36.7856L55.0145 12.5703" stroke="#064CBA" stroke-miterlimit="10"/>
<path d="M17.0087 25.2148L6.98633 49.4301" stroke="#064CBA" stroke-miterlimit="10"/>
</svg>
