<svg width="24" height="24" viewBox="0 0 24 24" fill="none" xmlns="http://www.w3.org/2000/svg">
<path d="M6.00195 11.997V5.99854H12.0004C12.0004 9.31767 9.30775 11.997 6.00195 11.997Z" fill="white"/>
<path d="M6.00234 5.99854H0.00390625V11.997H6.00234V5.99854Z" fill="white"/>
<path d="M5.99805 0.00303507V6.00146H11.9965V0.00303507H5.99805Z" fill="white"/>
<path d="M6.00157 24H12V18.0016H6.00157L6.00157 24Z" fill="white"/>
<path d="M6.00234 23.9938V17.9954H0.00390625C0.00390625 21.3145 2.69653 23.9938 6.00234 23.9938Z" fill="white"/>
<path d="M0 12.0001L0 17.9985H5.99843V12.0001H0Z" fill="white"/>
<path d="M24 12.0001V6.00171L18.0016 6.00171V12.0001H24Z" fill="white"/>
<path d="M17.998 0V5.99843H23.9965C23.9965 2.69263 21.3038 0 17.998 0Z" fill="white"/>
<path d="M11.9996 6.00464L17.998 6.00464L17.998 0.0062089L11.9996 0.0062089L11.9996 6.00464Z" fill="white"/>
<path d="M18.002 23.997V17.9985H12.0035V23.997H18.002Z" fill="white"/>
<path d="M17.9984 11.9968V17.9953H12C12 14.6895 14.6926 11.9968 17.9984 11.9968Z" fill="white"/>
<path d="M23.9965 11.9968H17.998V17.9953H23.9965V11.9968Z" fill="white"/>
</svg>
