<svg width="24" height="24" viewBox="0 0 24 24" fill="none" xmlns="http://www.w3.org/2000/svg">
<path d="M6 12H12C12 15.32 9.32 18 6 18V12Z" fill="white"/>
<path d="M6 18V24C2.68 24 0 21.32 0 18H6Z" fill="white"/>
<path d="M6 12H12C12 8.68 9.32 6 6 6V12Z" fill="white"/>
<path d="M6 18V12C2.68 12 0 14.68 0 18H6Z" fill="white"/>
<path d="M6 6V0C2.68 0 0 2.68 0 6H6Z" fill="white"/>
<path d="M6 6V12C2.68 12 0 9.32 0 6H6Z" fill="white"/>
<path d="M6 24.0071L12 24.0071L12 18.0071L6 18.0071L6 24.0071Z" fill="white"/>
<path d="M6 6.00708L12 6.00708L12 0.0070796L6 0.0070796L6 6.00708Z" fill="white"/>
<path d="M18 12H12C12 15.32 14.68 18 18 18V12Z" fill="white"/>
<path d="M18 18V24C21.32 24 24 21.32 24 18H18Z" fill="white"/>
<path d="M18 12H12C12 8.68 14.68 6 18 6V12Z" fill="white"/>
<path d="M18 18V12C21.32 12 24 14.68 24 18H18Z" fill="white"/>
<path d="M18 6V0C21.32 0 24 2.68 24 6H18Z" fill="white"/>
<path d="M18 6V12C21.32 12 24 9.32 24 6H18Z" fill="white"/>
<path d="M18 18H12V24H18V18Z" fill="white"/>
<path d="M18 0H12V6H18V0Z" fill="white"/>
</svg>
