<svg width="24" height="24" viewBox="0 0 24 24" fill="none" xmlns="http://www.w3.org/2000/svg">
<path d="M6 11.9968H0V17.9968H6V11.9968Z" fill="white"/>
<path d="M6 11.9968V5.99683H12C12 9.31683 9.30667 11.9968 6 11.9968Z" fill="white"/>
<path d="M6 5.99683H0V11.9968H6V5.99683Z" fill="white"/>
<path d="M5.99609 -4.76837e-07V6H11.9961V-4.76837e-07H5.99609Z" fill="white"/>
<path d="M11.9961 -4.76837e-07V6H17.9961V-4.76837e-07H11.9961Z" fill="white"/>
<path d="M18 11.9968V5.99683H12C12 9.31683 14.6933 11.9968 18 11.9968Z" fill="white"/>
<path d="M6 11.9968V17.9968H12C12 14.6902 9.30667 11.9968 6 11.9968Z" fill="white"/>
<path d="M12.0039 24L12.0039 18H6.00391L6.00391 24H12.0039Z" fill="white"/>
<path d="M18.0039 24V18H12.0039V24H18.0039Z" fill="white"/>
<path d="M18 11.9968V17.9968H12C12 14.6902 14.6933 11.9968 18 11.9968Z" fill="white"/>
<path d="M24 5.99683H18V11.9968H24V5.99683Z" fill="white"/>
<path d="M24 11.9968H18V17.9968H24V11.9968Z" fill="white"/>
</svg>
