<svg width="24" height="24" viewBox="0 0 24 24" fill="none" xmlns="http://www.w3.org/2000/svg">
<path d="M18.002 5.99751V-0.00170898L12.0027 -0.00170898V5.99751L18.002 5.99751Z" fill="white"/>
<path d="M23.9973 5.99438H17.998V11.9936H23.9973V5.99438Z" fill="white"/>
<path d="M17.9992 5.99438H12V11.9936H17.9992V5.99438Z" fill="white"/>
<path d="M0.000781059 17.999H6L6 11.9998H0.000781059L0.000781059 17.999Z" fill="white"/>
<path d="M6.00078 17.999H12V11.9998H6.00078L6.00078 17.999Z" fill="white"/>
<path d="M12.002 23.9951V17.9958H6.00273L6.00273 23.9951H12.002Z" fill="white"/>
<path d="M0.000781059 11.9998H6L6 6.00054L0.000781059 6.00054L0.000781059 11.9998Z" fill="white"/>
<path d="M0.000781059 6.00073L6 6.00073L6 0.00151348L0.000781059 0.00151348L0.000781059 6.00073Z" fill="white"/>
<path d="M11.9988 23.9983H17.998V17.9991H11.9988V23.9983Z" fill="white"/>
<path d="M17.9988 23.9983H23.998V17.9991H17.9988V23.9983Z" fill="white"/>
<path d="M17.9988 17.999H23.998V11.9998H17.9988V17.999Z" fill="white"/>
<path d="M6.00078 6.00073L12 6.00073V0.00151348L6.00078 0.00151348L6.00078 6.00073Z" fill="white"/>
</svg>
