<svg width="590" height="523" viewBox="0 0 590 523" fill="none" xmlns="http://www.w3.org/2000/svg">
<path d="M588.731 258.724L131.595 522.141L0.984375 446.863L458.121 183.445L588.731 258.724Z" stroke="#424242" stroke-opacity="0.3" stroke-width="0.5" stroke-miterlimit="10"/>
<path d="M98.9414 503.316L556.078 239.898" stroke="#424242" stroke-opacity="0.3" stroke-width="0.5" stroke-miterlimit="10"/>
<path d="M33.6367 428.062L164.247 503.318" stroke="#424242" stroke-opacity="0.3" stroke-width="0.5" stroke-miterlimit="10"/>
<path d="M66.2891 409.236L196.899 484.492" stroke="#424242" stroke-opacity="0.3" stroke-width="0.5" stroke-miterlimit="10"/>
<path d="M229.3 465.554L98.9375 390.434" stroke="#424242" stroke-opacity="0.3" stroke-width="0.5" stroke-miterlimit="10"/>
<path d="M261.975 446.753L131.59 371.609" stroke="#424242" stroke-opacity="0.3" stroke-width="0.5" stroke-miterlimit="10"/>
<path d="M294.65 427.951L164.242 352.785" stroke="#424242" stroke-opacity="0.3" stroke-width="0.5" stroke-miterlimit="10"/>
<path d="M327.325 409.148L196.895 333.982" stroke="#424242" stroke-opacity="0.3" stroke-width="0.5" stroke-miterlimit="10"/>
<path d="M360.003 390.345L229.551 315.156" stroke="#424242" stroke-opacity="0.3" stroke-width="0.5" stroke-miterlimit="10"/>
<path d="M392.678 371.542L262.203 296.354" stroke="#424242" stroke-opacity="0.3" stroke-width="0.5" stroke-miterlimit="10"/>
<path d="M425.353 352.74L294.855 277.529" stroke="#424242" stroke-opacity="0.3" stroke-width="0.5" stroke-miterlimit="10"/>
<path d="M458.051 333.937L327.508 258.727" stroke="#424242" stroke-opacity="0.3" stroke-width="0.5" stroke-miterlimit="10"/>
<path d="M490.725 315.132L360.16 239.898" stroke="#424242" stroke-opacity="0.3" stroke-width="0.5" stroke-miterlimit="10"/>
<path d="M523.4 296.33L392.812 221.074" stroke="#424242" stroke-opacity="0.3" stroke-width="0.5" stroke-miterlimit="10"/>
<path d="M556.075 277.527L425.465 202.271" stroke="#424242" stroke-opacity="0.3" stroke-width="0.5" stroke-miterlimit="10"/>
<path d="M66.2891 484.49L523.425 221.072" stroke="#424242" stroke-opacity="0.3" stroke-width="0.5" stroke-miterlimit="10"/>
<path d="M33.6367 465.689L490.773 202.271" stroke="#424242" stroke-opacity="0.3" stroke-width="0.5" stroke-miterlimit="10"/>
<path opacity="0.6" d="M466.818 0.769531C466.818 0.769531 442.593 60.6638 412.013 68.6707C348.015 85.4267 370.843 160.143 337.582 161.087C304.321 162.032 320.072 226.065 289.47 232.812C195.997 253.459 243.207 249.051 196.876 312.206C150.567 375.362 134.252 359.91 112.461 371.628C90.3325 383.526 66.2656 446.884 66.2656 446.884L466.818 216.056V0.769531Z" fill="#00519E"/>
<path d="M499.474 19.5938C499.474 19.5938 445.977 140.709 421.189 121.119C396.401 101.552 385.967 196.105 352.684 197.05C319.423 197.995 309.62 310.406 285.486 290.456C261.351 270.506 254.816 297.698 208.507 360.854C162.199 424.009 157.624 409.278 138.718 408.018C119.789 406.759 98.9219 465.663 98.9219 465.663L499.474 234.88V19.5938Z" fill="#00519E"/>
<path opacity="0.6" d="M532.124 38.3984C532.124 38.3984 499.471 167.971 443 162.55C411.542 159.514 412.218 196.265 385.356 215.877C348.715 242.642 369.132 316.795 322.823 311.577C291.68 308.069 320.074 376.87 243.546 359.911C220.741 354.851 188.607 407.233 175.131 426.215C162.422 444.119 131.617 484.535 131.617 484.535L532.124 253.685V38.3984Z" fill="#5D97CF"/>
</svg>
