<svg width="150" height="150" viewBox="0 0 150 150" fill="none" xmlns="http://www.w3.org/2000/svg">
<path d="M75 75H112.5V37.5C91.8333 37.5 75 54.3333 75 75Z" fill="url(#paint0_linear_32_1358)"/>
<path d="M0 37.5H37.5V0C16.8333 0 0 16.8333 0 37.5Z" fill="url(#paint1_linear_32_1358)"/>
<path d="M37.5 37.5H75V75C54.3333 75 37.5 58.25 37.5 37.5Z" fill="url(#paint2_linear_32_1358)"/>
<path d="M75 75H37.5V112.5C58.1667 112.5 75 95.75 75 75Z" fill="url(#paint3_linear_32_1358)"/>
<path d="M150 112.5H112.5V150C133.167 150 150 133.25 150 112.5Z" fill="url(#paint4_linear_32_1358)"/>
<path d="M37.5 150V112.5H0C0 133.25 16.8333 150 37.5 150Z" fill="url(#paint5_linear_32_1358)"/>
<path d="M112.5 0V37.5H150C150 16.8333 133.167 0 112.5 0Z" fill="url(#paint6_linear_32_1358)"/>
<path d="M112.5 112.5H75V75C95.6667 75 112.5 91.8333 112.5 112.5Z" fill="url(#paint7_linear_32_1358)"/>
<path d="M37.5 37.5V0H75L37.5 37.5Z" fill="url(#paint8_linear_32_1358)"/>
<path d="M112.5 37.5V0H75L112.5 37.5Z" fill="url(#paint9_linear_32_1358)"/>
<path d="M112.5 112.5V150H75L112.5 112.5Z" fill="url(#paint10_linear_32_1358)"/>
<path d="M37.5 112.5V150H75L37.5 112.5Z" fill="url(#paint11_linear_32_1358)"/>
<path d="M112.5 112.5H150V75L112.5 112.5Z" fill="url(#paint12_linear_32_1358)"/>
<path d="M112.5 37.5H150V75L112.5 37.5Z" fill="url(#paint13_linear_32_1358)"/>
<path d="M37.5 37.5H0V75L37.5 37.5Z" fill="url(#paint14_linear_32_1358)"/>
<path d="M37.5 112.5H0V75L37.5 112.5Z" fill="url(#paint15_linear_32_1358)"/>
<defs>
<linearGradient id="paint0_linear_32_1358" x1="93.75" y1="37.5" x2="93.75" y2="75" gradientUnits="userSpaceOnUse">
<stop stop-color="white"/>
<stop offset="1" stop-color="#5B96CF"/>
</linearGradient>
<linearGradient id="paint1_linear_32_1358" x1="18.75" y1="0" x2="18.75" y2="37.5" gradientUnits="userSpaceOnUse">
<stop stop-color="white"/>
<stop offset="1" stop-color="#5B96CF"/>
</linearGradient>
<linearGradient id="paint2_linear_32_1358" x1="56.25" y1="37.5" x2="56.25" y2="75" gradientUnits="userSpaceOnUse">
<stop stop-color="white"/>
<stop offset="1" stop-color="#5B96CF"/>
</linearGradient>
<linearGradient id="paint3_linear_32_1358" x1="56.25" y1="75" x2="56.25" y2="112.5" gradientUnits="userSpaceOnUse">
<stop stop-color="white"/>
<stop offset="1" stop-color="#5B96CF"/>
</linearGradient>
<linearGradient id="paint4_linear_32_1358" x1="131.25" y1="112.5" x2="131.25" y2="150" gradientUnits="userSpaceOnUse">
<stop stop-color="white"/>
<stop offset="1" stop-color="#5B96CF"/>
</linearGradient>
<linearGradient id="paint5_linear_32_1358" x1="18.75" y1="112.5" x2="18.75" y2="150" gradientUnits="userSpaceOnUse">
<stop stop-color="white"/>
<stop offset="1" stop-color="#5B96CF"/>
</linearGradient>
<linearGradient id="paint6_linear_32_1358" x1="131.25" y1="0" x2="131.25" y2="37.5" gradientUnits="userSpaceOnUse">
<stop stop-color="white"/>
<stop offset="1" stop-color="#5B96CF"/>
</linearGradient>
<linearGradient id="paint7_linear_32_1358" x1="93.75" y1="75" x2="93.75" y2="112.5" gradientUnits="userSpaceOnUse">
<stop stop-color="white"/>
<stop offset="1" stop-color="#5B96CF"/>
</linearGradient>
<linearGradient id="paint8_linear_32_1358" x1="56.25" y1="0" x2="56.25" y2="37.5" gradientUnits="userSpaceOnUse">
<stop stop-color="white"/>
<stop offset="1" stop-color="#5B96CF"/>
</linearGradient>
<linearGradient id="paint9_linear_32_1358" x1="93.75" y1="0" x2="93.75" y2="37.5" gradientUnits="userSpaceOnUse">
<stop stop-color="white"/>
<stop offset="1" stop-color="#5B96CF"/>
</linearGradient>
<linearGradient id="paint10_linear_32_1358" x1="93.75" y1="112.5" x2="93.75" y2="150" gradientUnits="userSpaceOnUse">
<stop stop-color="white"/>
<stop offset="1" stop-color="#5B96CF"/>
</linearGradient>
<linearGradient id="paint11_linear_32_1358" x1="56.25" y1="112.5" x2="56.25" y2="150" gradientUnits="userSpaceOnUse">
<stop stop-color="white"/>
<stop offset="1" stop-color="#5B96CF"/>
</linearGradient>
<linearGradient id="paint12_linear_32_1358" x1="131.25" y1="75" x2="131.25" y2="112.5" gradientUnits="userSpaceOnUse">
<stop stop-color="white"/>
<stop offset="1" stop-color="#5B96CF"/>
</linearGradient>
<linearGradient id="paint13_linear_32_1358" x1="131.25" y1="37.5" x2="131.25" y2="75" gradientUnits="userSpaceOnUse">
<stop stop-color="white"/>
<stop offset="1" stop-color="#5B96CF"/>
</linearGradient>
<linearGradient id="paint14_linear_32_1358" x1="18.75" y1="37.5" x2="18.75" y2="75" gradientUnits="userSpaceOnUse">
<stop stop-color="white"/>
<stop offset="1" stop-color="#5B96CF"/>
</linearGradient>
<linearGradient id="paint15_linear_32_1358" x1="18.75" y1="75" x2="18.75" y2="112.5" gradientUnits="userSpaceOnUse">
<stop stop-color="white"/>
<stop offset="1" stop-color="#5B96CF"/>
</linearGradient>
</defs>
</svg>
