<svg width="50" height="38" viewBox="0 0 50 38" fill="none" xmlns="http://www.w3.org/2000/svg">
<path d="M14.2775 12.3613L7.13867 24.7502H21.4165L14.2775 12.3613Z" fill="#064CBA"/>
<path d="M21.4173 0L14.2783 12.3611H28.5839L21.4173 0Z" fill="#064CBA"/>
<path d="M35.722 24.75L28.583 37.1111H42.8608L35.722 24.75Z" fill="#064CBA"/>
<path d="M28.5836 12.3613L21.417 24.7502H35.7225L28.5836 12.3613Z" fill="#064CBA"/>
<path d="M42.8606 12.3613L35.7217 24.7502H49.9994L42.8606 12.3613Z" fill="#064CBA"/>
<path d="M35.722 0L28.583 12.3611H42.8608L35.722 0Z" fill="#064CBA"/>
<path d="M14.2775 37.1111L21.4165 24.75H7.13867L14.2775 37.1111Z" fill="#064CBA"/>
<path d="M7.13888 24.75L0 37.1111H14.2778L7.13888 24.75Z" fill="#064CBA"/>
<path d="M21.4173 24.75L14.2783 37.1111H28.5839L21.4173 24.75Z" fill="#064CBA"/>
</svg>
