<svg width="50" height="44" viewBox="0 0 50 44" fill="none" xmlns="http://www.w3.org/2000/svg">
<path d="M18.75 32.4722L12.5 43.3055H25L18.75 32.4722Z" fill="#064CBA"/>
<path d="M31.25 32.4722L25 43.3055H37.5L31.25 32.4722Z" fill="#064CBA"/>
<path d="M25 21.6387L18.75 32.472H31.25L25 21.6387Z" fill="#064CBA"/>
<path d="M31.25 10.8057L25 21.639H37.5L31.25 10.8057Z" fill="#064CBA"/>
<path d="M43.75 10.8057L37.5 21.639H50L43.75 10.8057Z" fill="#064CBA"/>
<path d="M37.5 0L31.25 10.8055H43.75L37.5 0Z" fill="#064CBA"/>
<path d="M6.25 10.8057L0 21.639H12.5L6.25 10.8057Z" fill="#064CBA"/>
<path d="M18.75 10.8057L12.5 21.639H25L18.75 10.8057Z" fill="#064CBA"/>
<path d="M12.5 0L6.25 10.8055H18.75L12.5 0Z" fill="#064CBA"/>
</svg>
