<svg width="50" height="44" viewBox="0 0 50 44" fill="none" xmlns="http://www.w3.org/2000/svg">
<path d="M25.0003 0L16.667 14.4166H33.3337L25.0003 0Z" fill="#064CBA"/>
<path d="M41.6663 0L33.333 14.4166H49.9997L41.6663 0Z" fill="#064CBA"/>
<path d="M8.33333 0L0 14.4166H16.6667L8.33333 0Z" fill="#064CBA"/>
<path d="M25.0003 14.4165L16.667 28.8609H33.3337L25.0003 14.4165Z" fill="#064CBA"/>
<path d="M41.6663 14.4165L33.333 28.8609H49.9997L41.6663 14.4165Z" fill="#064CBA"/>
<path d="M8.33333 14.4165L0 28.8609H16.6667L8.33333 14.4165Z" fill="#064CBA"/>
<path d="M25.0003 28.8613L16.667 43.3058H33.3337L25.0003 28.8613Z" fill="#064CBA"/>
<path d="M41.6663 28.8613L33.333 43.3058H49.9997L41.6663 28.8613Z" fill="#064CBA"/>
<path d="M8.33333 28.8608L0 43.3053H16.6667L8.33333 28.8608Z" fill="#064CBA"/>
</svg>
