<svg width="50" height="44" viewBox="0 0 50 44" fill="none" xmlns="http://www.w3.org/2000/svg">
<path d="M25 32.4722L18.75 43.3055H31.25L25 32.4722Z" fill="#064CBA"/>
<path d="M37.5 32.4722L31.25 43.3055H43.75L37.5 32.4722Z" fill="#064CBA"/>
<path d="M12.5 32.4722L6.25 43.3055H18.75L12.5 32.4722Z" fill="#064CBA"/>
<path d="M18.75 21.639L12.5 10.8057L6.25 21.639H18.75Z" fill="#064CBA"/>
<path d="M12.5 32.472L6.25 21.6387L0 32.472H12.5Z" fill="#064CBA"/>
<path d="M25 10.8055L18.75 0L12.5 10.8055H25Z" fill="#064CBA"/>
<path d="M31.25 21.639H43.75L37.5 10.8057L31.25 21.639Z" fill="#064CBA"/>
<path d="M25 10.8055H37.5L31.25 0L25 10.8055Z" fill="#064CBA"/>
<path d="M37.5 32.472H50L43.75 21.6387L37.5 32.472Z" fill="#064CBA"/>
</svg>
