<svg width="111" height="103" viewBox="0 0 111 103" fill="none" xmlns="http://www.w3.org/2000/svg">
<path d="M0 103L0 77.25C14.1911 77.25 30.25 65.7483 30.25 51.5H56C56 79.9394 28.4394 103 0 103Z" fill="#62DAC6"/>
<path d="M56 51.5H81.75C81.75 65.6911 96.7517 77.25 111 77.25V103C82.5606 103 56 79.9394 56 51.5Z" fill="#62DAC6"/>
<path d="M0 51.5L0 25.75C14.1911 25.75 30.25 14.2483 30.25 0H56C56 28.4394 28.4394 51.5 0 51.5Z" fill="#62DAC6"/>
<path d="M56 0H81.75C81.75 14.1911 96.7517 25.75 111 25.75V51.5C82.5606 51.5 56 28.4394 56 0Z" fill="#62DAC6"/>
</svg>
