<svg width="111" height="103" viewBox="0 0 111 103" fill="none" xmlns="http://www.w3.org/2000/svg">
<path d="M111 103V77.25C96.8089 77.25 81.25 65.7483 81.25 51.5H55.5C55.5 79.9394 82.5606 103 111 103Z" fill="#62DAC6"/>
<path d="M55.5 103H29.75C29.75 88.8089 14.2483 77.25 0 77.25V51.5C28.4394 51.5 55.5 74.5606 55.5 103Z" fill="#62DAC6"/>
<path d="M111 51.5V25.75C96.8089 25.75 81.25 14.2483 81.25 0H55.5C55.5 28.4394 82.5606 51.5 111 51.5Z" fill="#62DAC6"/>
<path d="M55.5 51.5H29.75C29.75 37.3089 14.2483 25.75 0 25.75V0C28.4394 0 55.5 23.0606 55.5 51.5Z" fill="#62DAC6"/>
</svg>
