<svg width="103" height="103" viewBox="0 0 103 103" fill="none" xmlns="http://www.w3.org/2000/svg">
<path d="M51.5 51.5V77.25C65.6911 77.25 77.25 88.7517 77.25 103H103C103 74.5606 79.9394 51.5 51.5 51.5Z" fill="#62DAC6"/>
<path d="M51.5 51.5V77.25C37.3089 77.25 25.75 88.7517 25.75 103H0C0 74.5606 23.0606 51.5 51.5 51.5Z" fill="#62DAC6"/>
<path d="M51.5 51.5V25.75C37.3089 25.75 25.75 14.2483 25.75 0H0C0 28.4394 23.0606 51.5 51.5 51.5Z" fill="#62DAC6"/>
<path d="M51.5 51.5V25.75C65.6911 25.75 77.25 14.2483 77.25 0H103C103 28.4394 79.9394 51.5 51.5 51.5Z" fill="#62DAC6"/>
</svg>
