<svg width="50" height="50" viewBox="0 0 50 50" fill="none" xmlns="http://www.w3.org/2000/svg">
<path d="M25 25V12.5H37.5L25 25Z" fill="#074CBA"/>
<path d="M25 0V12.5H37.5C37.5 5.61111 31.8889 0 25 0Z" fill="#074CBA"/>
<path d="M25 0V12.5H12.5C12.5 5.61111 18.1111 0 25 0Z" fill="#074CBA"/>
<path d="M25 25H37.5V37.5L25 25Z" fill="#074CBA"/>
<path d="M50 25H37.5V37.5C44.3889 37.5 50 31.9167 50 25Z" fill="#074CBA"/>
<path d="M50 25H37.5V12.5C44.3889 12.5 50 18.1111 50 25Z" fill="#074CBA"/>
<path d="M25 25V37.5H12.5L25 25Z" fill="#074CBA"/>
<path d="M25 50V37.5H12.5C12.5 44.4167 18.1111 50 25 50Z" fill="#074CBA"/>
<path d="M25 50V37.5H37.5C37.5 44.4167 31.8889 50 25 50Z" fill="#074CBA"/>
<path d="M25 25H12.5V12.5L25 25Z" fill="#074CBA"/>
<path d="M0 25H12.5V12.5C5.61111 12.5 0 18.1111 0 25Z" fill="#074CBA"/>
<path d="M0 25H12.5V37.5C5.61111 37.5 0 31.9167 0 25Z" fill="#074CBA"/>
</svg>
