<svg width="50" height="50" viewBox="0 0 50 50" fill="none" xmlns="http://www.w3.org/2000/svg">
<path d="M12.5036 24.9937V37.4904H0.00683594C0.00683594 30.6033 5.61649 24.9937 12.5036 24.9937Z" fill="#064CBA"/>
<path d="M12.5029 49.987V37.4902H24.9997C24.9997 44.4051 19.39 49.987 12.5029 49.987Z" fill="#064CBA"/>
<path d="M0 37.4967L0 49.9934H12.4967V37.4967H0Z" fill="#064CBA"/>
<path d="M37.4971 24.9933V12.4966H49.9938C49.9938 19.4114 44.3842 24.9933 37.4971 24.9933Z" fill="#064CBA"/>
<path d="M37.4967 0V12.4967H25C25 5.60965 30.6097 0 37.4967 0Z" fill="#064CBA"/>
<path d="M50 12.5033V0.0065918L37.5033 0.0065918V12.5033L50 12.5033Z" fill="#064CBA"/>
<path d="M25 37.4902H37.4967V49.987C30.6097 49.987 25 44.4051 25 37.4902Z" fill="#064CBA"/>
<path d="M49.9938 37.4904H37.4971V24.9937C44.3842 24.9937 49.9938 30.6033 49.9938 37.4904Z" fill="#064CBA"/>
<path d="M37.4964 50H49.9932V37.5033H37.4964V50Z" fill="#064CBA"/>
<path d="M24.9997 12.4967H12.5029V0C19.39 0 24.9997 5.60965 24.9997 12.4967Z" fill="#064CBA"/>
<path d="M0.00683594 12.4966H12.5036V24.9933C5.61649 24.9933 0.00683594 19.4114 0.00683594 12.4966Z" fill="#064CBA"/>
<path d="M12.5036 0H0.00683594V12.4967H12.5036V0Z" fill="#064CBA"/>
</svg>
