<svg width="50" height="50" viewBox="0 0 50 50" fill="none" xmlns="http://www.w3.org/2000/svg">
<path d="M12.5 12.5H25V0C18.1111 0 12.5 5.61111 12.5 12.5Z" fill="#074CBA"/>
<path d="M25 12.5V25H12.5L25 12.5Z" fill="#074CBA"/>
<path d="M37.5 12.5H25V0C31.8889 0 37.5 5.61111 37.5 12.5Z" fill="#074CBA"/>
<path d="M25 12.5V25H37.5L25 12.5Z" fill="#074CBA"/>
<path d="M37.5 37.5H25V50C31.8889 50 37.5 44.4167 37.5 37.5Z" fill="#074CBA"/>
<path d="M25 37.5V25H37.5L25 37.5Z" fill="#074CBA"/>
<path d="M12.5 37.5H25V50C18.1111 50 12.5 44.4167 12.5 37.5Z" fill="#074CBA"/>
<path d="M12.5 37.5V25H0C0 31.9167 5.61111 37.5 12.5 37.5Z" fill="#074CBA"/>
<path d="M12.5 12.5V25H0C0 18.1111 5.61111 12.5 12.5 12.5Z" fill="#074CBA"/>
<path d="M37.5 12.5V25H50C50 18.1111 44.3889 12.5 37.5 12.5Z" fill="#074CBA"/>
<path d="M37.5 37.5V25H50C50 31.9167 44.3889 37.5 37.5 37.5Z" fill="#074CBA"/>
<path d="M25 37.5V25H12.5L25 37.5Z" fill="#074CBA"/>
</svg>
