<svg width="270" height="270" viewBox="0 0 270 270" fill="none" xmlns="http://www.w3.org/2000/svg">
<path d="M23.4615 93.8438C36.4189 93.8438 46.9229 83.3397 46.9229 70.3823C46.9229 57.4249 36.4189 46.9209 23.4615 46.9209C10.5041 46.9209 0 57.4249 0 70.3823C0 83.3397 10.5041 93.8438 23.4615 93.8438Z" fill="#D9DDED"/>
<path d="M23.4615 225.848C36.4189 225.848 46.9229 215.344 46.9229 202.386C46.9229 189.429 36.4189 178.925 23.4615 178.925C10.5041 178.925 0 189.429 0 202.386C0 215.344 10.5041 225.848 23.4615 225.848Z" fill="#D9DDED"/>
<path d="M66.7281 269.998C79.6855 269.998 90.1895 259.494 90.1895 246.537C90.1895 233.579 79.6855 223.075 66.7281 223.075C53.7707 223.075 43.2666 233.579 43.2666 246.537C43.2666 259.494 53.7707 269.998 66.7281 269.998Z" fill="#D9DDED"/>
<path d="M111.475 181.848C124.432 181.848 134.937 171.344 134.937 158.386C134.937 145.429 124.432 134.925 111.475 134.925C98.5177 134.925 88.0137 145.429 88.0137 158.386C88.0137 171.344 98.5177 181.848 111.475 181.848Z" fill="#5D97CF"/>
<path d="M111.475 225.848C124.432 225.848 134.937 215.344 134.937 202.386C134.937 189.429 124.432 178.925 111.475 178.925C98.5177 178.925 88.0137 189.429 88.0137 202.386C88.0137 215.344 98.5177 225.848 111.475 225.848Z" fill="#5D97CF"/>
<path d="M66.7281 225.848C79.6855 225.848 90.1895 215.344 90.1895 202.386C90.1895 189.429 79.6855 178.925 66.7281 178.925C53.7707 178.925 43.2666 189.429 43.2666 202.386C43.2666 215.344 53.7707 225.848 66.7281 225.848Z" fill="#5D97CF"/>
<path d="M159.403 46.9229C172.36 46.9229 182.864 36.4188 182.864 23.4614C182.864 10.504 172.36 0 159.403 0C146.445 0 135.941 10.504 135.941 23.4614C135.941 36.4188 146.445 46.9229 159.403 46.9229Z" fill="#D9DDED"/>
<path d="M112.346 46.9229C125.304 46.9229 135.808 36.4188 135.808 23.4614C135.808 10.504 125.304 0 112.346 0C99.3888 0 88.8848 10.504 88.8848 23.4614C88.8848 36.4188 99.3888 46.9229 112.346 46.9229Z" fill="#D9DDED"/>
<path d="M23.4615 134.927C36.4189 134.927 46.9229 124.423 46.9229 111.465C46.9229 98.508 36.4189 88.0039 23.4615 88.0039C10.5041 88.0039 0 98.508 0 111.465C0 124.423 10.5041 134.927 23.4615 134.927Z" fill="#D9DDED"/>
<path d="M67.4663 90.9229C80.4237 90.9229 90.9277 80.4188 90.9277 67.4614C90.9277 54.504 80.4237 44 67.4663 44C54.5089 44 44.0049 54.504 44.0049 67.4614C44.0049 80.4188 54.5089 90.9229 67.4663 90.9229Z" fill="#D9DDED"/>
<path d="M67.4663 134.927C80.4237 134.927 90.9277 124.423 90.9277 111.465C90.9277 98.508 80.4237 88.0039 67.4663 88.0039C54.5089 88.0039 44.0049 98.508 44.0049 111.465C44.0049 124.423 54.5089 134.927 67.4663 134.927Z" fill="#5D97CF"/>
<path d="M158.397 181.848C171.354 181.848 181.858 171.344 181.858 158.386C181.858 145.429 171.354 134.925 158.397 134.925C145.44 134.925 134.936 145.429 134.936 158.386C134.936 171.344 145.44 181.848 158.397 181.848Z" fill="#5D97CF"/>
<path d="M246.411 225.847C259.368 225.847 269.872 215.343 269.872 202.385C269.872 189.428 259.368 178.924 246.411 178.924C233.453 178.924 222.949 189.428 222.949 202.385C222.949 215.343 233.453 225.847 246.411 225.847Z" fill="#D9DDED"/>
<path d="M158.397 269.85C171.354 269.85 181.858 259.346 181.858 246.388C181.858 233.431 171.354 222.927 158.397 222.927C145.44 222.927 134.936 233.431 134.936 246.388C134.936 259.346 145.44 269.85 158.397 269.85Z" fill="#D9DDED"/>
<path d="M203.276 269.85C216.233 269.85 226.737 259.346 226.737 246.388C226.737 233.431 216.233 222.927 203.276 222.927C190.319 222.927 179.814 233.431 179.814 246.388C179.814 259.346 190.319 269.85 203.276 269.85Z" fill="#D9DDED"/>
<path d="M158.397 225.847C171.354 225.847 181.858 215.343 181.858 202.385C181.858 189.428 171.354 178.924 158.397 178.924C145.44 178.924 134.936 189.428 134.936 202.385C134.936 215.343 145.44 225.847 158.397 225.847Z" fill="#5D97CF"/>
<path d="M246.407 181.505C259.364 181.505 269.868 171.001 269.868 158.043C269.868 145.086 259.364 134.582 246.407 134.582C233.449 134.582 222.945 145.086 222.945 158.043C222.945 171.001 233.449 181.505 246.407 181.505Z" fill="#D9DDED"/>
<path d="M202.402 180.768C215.359 180.768 225.863 170.264 225.863 157.306C225.863 144.349 215.359 133.845 202.402 133.845C189.444 133.845 178.94 144.349 178.94 157.306C178.94 170.264 189.444 180.768 202.402 180.768Z" fill="#5D97CF"/>
<path d="M202.406 46.9229C215.363 46.9229 225.867 36.4188 225.867 23.4614C225.867 10.504 215.363 0 202.406 0C189.448 0 178.944 10.504 178.944 23.4614C178.944 36.4188 189.448 46.9229 202.406 46.9229Z" fill="#D9DDED"/>
<path d="M246.539 46.9229C259.496 46.9229 270 36.4188 270 23.4614C270 10.504 259.496 0 246.539 0C233.581 0 223.077 10.504 223.077 23.4614C223.077 36.4188 233.581 46.9229 246.539 46.9229Z" fill="#D9DDED"/>
<path d="M158.396 90.9229C171.353 90.9229 181.857 80.4188 181.857 67.4614C181.857 54.504 171.353 44 158.396 44C145.439 44 134.935 54.504 134.935 67.4614C134.935 80.4188 145.439 90.9229 158.396 90.9229Z" fill="#5D97CF"/>
<path d="M158.396 134.927C171.353 134.927 181.857 124.423 181.857 111.465C181.857 98.508 171.353 88.0039 158.396 88.0039C145.439 88.0039 134.935 98.508 134.935 111.465C134.935 124.423 145.439 134.927 158.396 134.927Z" fill="#5D97CF"/>
<path d="M203.272 90.9229C216.229 90.9229 226.733 80.4188 226.733 67.4614C226.733 54.504 216.229 44 203.272 44C190.315 44 179.811 54.504 179.811 67.4614C179.811 80.4188 190.315 90.9229 203.272 90.9229Z" fill="#5D97CF"/>
<path d="M111.339 90.9229C124.297 90.9229 134.801 80.4188 134.801 67.4614C134.801 54.504 124.297 44 111.339 44C98.382 44 87.8779 54.504 87.8779 67.4614C87.8779 80.4188 98.382 90.9229 111.339 90.9229Z" fill="#D9DDED"/>
<path d="M111.339 134.927C124.297 134.927 134.801 124.423 134.801 111.465C134.801 98.508 124.297 88.0039 111.339 88.0039C98.382 88.0039 87.8779 98.508 87.8779 111.465C87.8779 124.423 98.382 134.927 111.339 134.927Z" fill="#5D97CF"/>
</svg>
