<svg width="282" height="280" viewBox="0 0 282 280" fill="none" xmlns="http://www.w3.org/2000/svg">
<path d="M27.0696 97.0893C40.475 97.0893 51.3423 86.222 51.3423 72.8166C51.3423 59.4112 40.475 48.5439 27.0696 48.5439C13.6642 48.5439 2.79688 59.4112 2.79688 72.8166C2.79688 86.222 13.6642 97.0893 27.0696 97.0893Z" fill="#D9DDED"/>
<path d="M27.0696 233.657C40.475 233.657 51.3423 222.789 51.3423 209.384C51.3423 195.979 40.475 185.111 27.0696 185.111C13.6642 185.111 2.79688 195.979 2.79688 209.384C2.79688 222.789 13.6642 233.657 27.0696 233.657Z" fill="#5D97CF"/>
<path d="M71.8294 233.657C85.2348 233.657 96.102 222.789 96.102 209.384C96.102 195.979 85.2348 185.111 71.8294 185.111C58.4239 185.111 47.5566 195.979 47.5566 209.384C47.5566 222.789 58.4239 233.657 71.8294 233.657Z" fill="#D9DDED"/>
<path d="M24.2727 279.182C37.6781 279.182 48.5453 268.315 48.5453 254.909C48.5453 241.504 37.6781 230.637 24.2727 230.637C10.8672 230.637 0 241.504 0 254.909C0 268.315 10.8672 279.182 24.2727 279.182Z" fill="#D9DDED"/>
<path d="M118.127 188.135C131.533 188.135 142.4 177.268 142.4 163.863C142.4 150.457 131.533 139.59 118.127 139.59C104.722 139.59 93.8545 150.457 93.8545 163.863C93.8545 177.268 104.722 188.135 118.127 188.135Z" fill="#D9DDED"/>
<path d="M72.6027 188.135C86.0082 188.135 96.8754 177.268 96.8754 163.863C96.8754 150.457 86.0082 139.59 72.6027 139.59C59.1973 139.59 48.3301 150.457 48.3301 163.863C48.3301 177.268 59.1973 188.135 72.6027 188.135Z" fill="#5D97CF"/>
<path d="M118.127 233.657C131.533 233.657 142.4 222.789 142.4 209.384C142.4 195.979 131.533 185.111 118.127 185.111C104.722 185.111 93.8545 195.979 93.8545 209.384C93.8545 222.789 104.722 233.657 118.127 233.657Z" fill="#5D97CF"/>
<path d="M167.712 48.5453C181.118 48.5453 191.985 37.6781 191.985 24.2727C191.985 10.8672 181.118 0 167.712 0C154.307 0 143.439 10.8672 143.439 24.2727C143.439 37.6781 154.307 48.5453 167.712 48.5453Z" fill="#D9DDED"/>
<path d="M72.5978 94.0668C86.0033 94.0668 96.8705 83.1996 96.8705 69.7941C96.8705 56.3887 86.0033 45.5215 72.5978 45.5215C59.1924 45.5215 48.3252 56.3887 48.3252 69.7941C48.3252 83.1996 59.1924 94.0668 72.5978 94.0668Z" fill="#D9DDED"/>
<path d="M27.0696 139.591C40.475 139.591 51.3423 128.724 51.3423 115.319C51.3423 101.913 40.475 91.0459 27.0696 91.0459C13.6642 91.0459 2.79688 101.913 2.79688 115.319C2.79688 128.724 13.6642 139.591 27.0696 139.591Z" fill="#D9DDED"/>
<path d="M27.0696 48.5453C40.475 48.5453 51.3423 37.6781 51.3423 24.2727C51.3423 10.8672 40.475 0 27.0696 0C13.6642 0 2.79688 10.8672 2.79688 24.2727C2.79688 37.6781 13.6642 48.5453 27.0696 48.5453Z" fill="#D9DDED"/>
<path d="M118.131 139.591C131.536 139.591 142.404 128.724 142.404 115.319C142.404 101.913 131.536 91.0459 118.131 91.0459C104.726 91.0459 93.8584 101.913 93.8584 115.319C93.8584 128.724 104.726 139.591 118.131 139.591Z" fill="#5D97CF"/>
<path d="M72.5978 139.591C86.0033 139.591 96.8705 128.724 96.8705 115.319C96.8705 101.913 86.0033 91.0459 72.5978 91.0459C59.1924 91.0459 48.3252 101.913 48.3252 115.319C48.3252 128.724 59.1924 139.591 72.5978 139.591Z" fill="#5D97CF"/>
<path d="M166.666 188.134C180.072 188.134 190.939 177.267 190.939 163.862C190.939 150.456 180.072 139.589 166.666 139.589C153.261 139.589 142.394 150.456 142.394 163.862C142.394 177.267 153.261 188.134 166.666 188.134Z" fill="#D9DDED"/>
<path d="M212.195 233.656C225.6 233.656 236.467 222.788 236.467 209.383C236.467 195.978 225.6 185.11 212.195 185.11C198.789 185.11 187.922 195.978 187.922 209.383C187.922 222.788 198.789 233.656 212.195 233.656Z" fill="#D9DDED"/>
<path d="M257.728 279.332C271.133 279.332 282 268.465 282 255.06C282 241.654 271.133 230.787 257.728 230.787C244.322 230.787 233.455 241.654 233.455 255.06C233.455 268.465 244.322 279.332 257.728 279.332Z" fill="#D9DDED"/>
<path d="M166.666 279.181C180.072 279.181 190.939 268.314 190.939 254.908C190.939 241.503 180.072 230.636 166.666 230.636C153.261 230.636 142.394 241.503 142.394 254.908C142.394 268.314 153.261 279.181 166.666 279.181Z" fill="#D9DDED"/>
<path d="M166.666 233.656C180.072 233.656 190.939 222.788 190.939 209.383C190.939 195.978 180.072 185.11 166.666 185.11C153.261 185.11 142.394 195.978 142.394 209.383C142.394 222.788 153.261 233.656 166.666 233.656Z" fill="#5D97CF"/>
<path d="M212.195 187.017C225.6 187.017 236.467 176.15 236.467 162.744C236.467 149.339 225.6 138.472 212.195 138.472C198.789 138.472 187.922 149.339 187.922 162.744C187.922 176.15 198.789 187.017 212.195 187.017Z" fill="#5D97CF"/>
<path d="M257.728 233.656C271.133 233.656 282 222.788 282 209.383C282 195.978 271.133 185.11 257.728 185.11C244.322 185.11 233.455 195.978 233.455 209.383C233.455 222.788 244.322 233.656 257.728 233.656Z" fill="#5D97CF"/>
<path d="M257.728 187.781C271.133 187.781 282 176.913 282 163.508C282 150.103 271.133 139.235 257.728 139.235C244.322 139.235 233.455 150.103 233.455 163.508C233.455 176.913 244.322 187.781 257.728 187.781Z" fill="#D9DDED"/>
<path d="M212.195 48.5453C225.6 48.5453 236.467 37.6781 236.467 24.2727C236.467 10.8672 225.6 0 212.195 0C198.789 0 187.922 10.8672 187.922 24.2727C187.922 37.6781 198.789 48.5453 212.195 48.5453Z" fill="#D9DDED"/>
<path d="M257.728 142.258C271.133 142.258 282 131.391 282 117.986C282 104.58 271.133 93.7129 257.728 93.7129C244.322 93.7129 233.455 104.58 233.455 117.986C233.455 131.391 244.322 142.258 257.728 142.258Z" fill="#D9DDED"/>
<path d="M166.666 94.0658C180.072 94.0658 190.939 83.1986 190.939 69.7932C190.939 56.3877 180.072 45.5205 166.666 45.5205C153.261 45.5205 142.394 56.3877 142.394 69.7932C142.394 83.1986 153.261 94.0658 166.666 94.0658Z" fill="#D9DDED"/>
<path d="M257.728 94.0668C271.133 94.0668 282 83.1996 282 69.7941C282 56.3887 271.133 45.5215 257.728 45.5215C244.322 45.5215 233.455 56.3887 233.455 69.7941C233.455 83.1996 244.322 94.0668 257.728 94.0668Z" fill="#D9DDED"/>
<path d="M166.666 139.591C180.072 139.591 190.939 128.724 190.939 115.319C190.939 101.913 180.072 91.0459 166.666 91.0459C153.261 91.0459 142.394 101.913 142.394 115.319C142.394 128.724 153.261 139.591 166.666 139.591Z" fill="#5D97CF"/>
<path d="M212.195 139.591C225.6 139.591 236.467 128.724 236.467 115.319C236.467 101.913 225.6 91.0459 212.195 91.0459C198.789 91.0459 187.922 101.913 187.922 115.319C187.922 128.724 198.789 139.591 212.195 139.591Z" fill="#5D97CF"/>
</svg>
