<svg width="282" height="282" viewBox="0 0 282 282" fill="none" xmlns="http://www.w3.org/2000/svg">
<path d="M24.5194 190.017C38.0589 190.017 49.0348 179.041 49.0348 165.502C49.0348 151.962 38.0589 140.986 24.5194 140.986C10.9799 140.986 0.00390625 151.962 0.00390625 165.502C0.00390625 179.041 10.9799 190.017 24.5194 190.017Z" fill="#D9DDED"/>
<path d="M24.5194 235.993C38.0589 235.993 49.0348 225.017 49.0348 211.477C49.0348 197.938 38.0589 186.962 24.5194 186.962C10.9799 186.962 0.00390625 197.938 0.00390625 211.477C0.00390625 225.017 10.9799 235.993 24.5194 235.993Z" fill="#D9DDED"/>
<path d="M116.489 281.974C130.029 281.974 141.004 270.998 141.004 257.459C141.004 243.919 130.029 232.943 116.489 232.943C102.95 232.943 91.9736 243.919 91.9736 257.459C91.9736 270.998 102.95 281.974 116.489 281.974Z" fill="#D9DDED"/>
<path d="M116.489 190.017C130.029 190.017 141.004 179.041 141.004 165.502C141.004 151.962 130.029 140.986 116.489 140.986C102.95 140.986 91.9736 151.962 91.9736 165.502C91.9736 179.041 102.95 190.017 116.489 190.017Z" fill="#D9DDED"/>
<path d="M70.5017 190.017C84.0412 190.017 95.0171 179.041 95.0171 165.502C95.0171 151.962 84.0412 140.986 70.5017 140.986C56.9622 140.986 45.9863 151.962 45.9863 165.502C45.9863 179.041 56.9622 190.017 70.5017 190.017Z" fill="#5D97CF"/>
<path d="M116.489 235.993C130.029 235.993 141.004 225.017 141.004 211.477C141.004 197.938 130.029 186.962 116.489 186.962C102.95 186.962 91.9736 197.938 91.9736 211.477C91.9736 225.017 102.95 235.993 116.489 235.993Z" fill="#5D97CF"/>
<path d="M70.5017 49.0308C84.0412 49.0308 95.0171 38.0549 95.0171 24.5154C95.0171 10.9759 84.0412 0 70.5017 0C56.9622 0 45.9863 10.9759 45.9863 24.5154C45.9863 38.0549 56.9622 49.0308 70.5017 49.0308Z" fill="#D9DDED"/>
<path d="M70.5017 95.0064C84.0412 95.0064 95.0171 84.0305 95.0171 70.491C95.0171 56.9515 84.0412 45.9756 70.5017 45.9756C56.9622 45.9756 45.9863 56.9515 45.9863 70.491C45.9863 84.0305 56.9622 95.0064 70.5017 95.0064Z" fill="#D9DDED"/>
<path d="M116.489 95.0064C130.029 95.0064 141.004 84.0305 141.004 70.491C141.004 56.9515 130.029 45.9756 116.489 45.9756C102.95 45.9756 91.9736 56.9515 91.9736 70.491C91.9736 84.0305 102.95 95.0064 116.489 95.0064Z" fill="#D9DDED"/>
<path d="M24.5194 140.988C38.0589 140.988 49.0348 130.012 49.0348 116.472C49.0348 102.933 38.0589 91.957 24.5194 91.957C10.9799 91.957 0.00390625 102.933 0.00390625 116.472C0.00390625 130.012 10.9799 140.988 24.5194 140.988Z" fill="#D9DDED"/>
<path d="M116.489 140.988C130.029 140.988 141.004 130.012 141.004 116.472C141.004 102.933 130.029 91.957 116.489 91.957C102.95 91.957 91.9736 102.933 91.9736 116.472C91.9736 130.012 102.95 140.988 116.489 140.988Z" fill="#D9DDED"/>
<path d="M70.5017 140.988C84.0412 140.988 95.0171 130.012 95.0171 116.472C95.0171 102.933 84.0412 91.957 70.5017 91.957C56.9622 91.957 45.9863 102.933 45.9863 116.472C45.9863 130.012 56.9622 140.988 70.5017 140.988Z" fill="#5D97CF"/>
<path d="M165.515 190.016C179.055 190.016 190.031 179.04 190.031 165.501C190.031 151.961 179.055 140.985 165.515 140.985C151.976 140.985 141 151.961 141 165.501C141 179.04 151.976 190.016 165.515 190.016Z" fill="#D9DDED"/>
<path d="M211.498 235.992C225.037 235.992 236.013 225.016 236.013 211.476C236.013 197.937 225.037 186.961 211.498 186.961C197.958 186.961 186.982 197.937 186.982 211.476C186.982 225.016 197.958 235.992 211.498 235.992Z" fill="#D9DDED"/>
<path d="M257.485 235.992C271.025 235.992 282.001 225.016 282.001 211.476C282.001 197.937 271.025 186.961 257.485 186.961C243.946 186.961 232.97 197.937 232.97 211.476C232.97 225.016 243.946 235.992 257.485 235.992Z" fill="#D9DDED"/>
<path d="M165.515 281.972C179.055 281.972 190.031 270.996 190.031 257.457C190.031 243.917 179.055 232.941 165.515 232.941C151.976 232.941 141 243.917 141 257.457C141 270.996 151.976 281.972 165.515 281.972Z" fill="#D9DDED"/>
<path d="M211.498 281.972C225.037 281.972 236.013 270.996 236.013 257.457C236.013 243.917 225.037 232.941 211.498 232.941C197.958 232.941 186.982 243.917 186.982 257.457C186.982 270.996 197.958 281.972 211.498 281.972Z" fill="#D9DDED"/>
<path d="M165.515 235.992C179.055 235.992 190.031 225.016 190.031 211.476C190.031 197.937 179.055 186.961 165.515 186.961C151.976 186.961 141 197.937 141 211.476C141 225.016 151.976 235.992 165.515 235.992Z" fill="#5D97CF"/>
<path d="M211.498 188.887C225.037 188.887 236.013 177.911 236.013 164.372C236.013 150.832 225.037 139.856 211.498 139.856C197.958 139.856 186.982 150.832 186.982 164.372C186.982 177.911 197.958 188.887 211.498 188.887Z" fill="#5D97CF"/>
<path d="M211.498 49.0308C225.037 49.0308 236.013 38.0549 236.013 24.5154C236.013 10.9759 225.037 0 211.498 0C197.958 0 186.982 10.9759 186.982 24.5154C186.982 38.0549 197.958 49.0308 211.498 49.0308Z" fill="#D9DDED"/>
<path d="M257.485 49.0308C271.025 49.0308 282.001 38.0549 282.001 24.5154C282.001 10.9759 271.025 0 257.485 0C243.946 0 232.97 10.9759 232.97 24.5154C232.97 38.0549 243.946 49.0308 257.485 49.0308Z" fill="#D9DDED"/>
<path d="M165.515 95.0074C179.055 95.0074 190.031 84.0314 190.031 70.492C190.031 56.9525 179.055 45.9766 165.515 45.9766C151.976 45.9766 141 56.9525 141 70.492C141 84.0314 151.976 95.0074 165.515 95.0074Z" fill="#D9DDED"/>
<path d="M211.498 95.0064C225.037 95.0064 236.013 84.0305 236.013 70.491C236.013 56.9515 225.037 45.9756 211.498 45.9756C197.958 45.9756 186.982 56.9515 186.982 70.491C186.982 84.0305 197.958 95.0064 211.498 95.0064Z" fill="#D9DDED"/>
<path d="M257.485 95.0064C271.025 95.0064 282.001 84.0305 282.001 70.491C282.001 56.9515 271.025 45.9756 257.485 45.9756C243.946 45.9756 232.97 56.9515 232.97 70.491C232.97 84.0305 243.946 95.0064 257.485 95.0064Z" fill="#D9DDED"/>
<path d="M165.515 140.987C179.055 140.987 190.031 130.011 190.031 116.471C190.031 102.932 179.055 91.9561 165.515 91.9561C151.976 91.9561 141 102.932 141 116.471C141 130.011 151.976 140.987 165.515 140.987Z" fill="#D9DDED"/>
<path d="M211.498 140.987C225.037 140.987 236.013 130.011 236.013 116.471C236.013 102.932 225.037 91.9561 211.498 91.9561C197.958 91.9561 186.982 102.932 186.982 116.471C186.982 130.011 197.958 140.987 211.498 140.987Z" fill="#5D97CF"/>
</svg>
