<svg width="393" height="600" viewBox="0 0 393 600" fill="none" xmlns="http://www.w3.org/2000/svg">
<mask id="mask0_78_1480" style="mask-type:alpha" maskUnits="userSpaceOnUse" x="97" y="0" width="297" height="600">
<rect x="97.5" y="0.5" width="296" height="599" fill="#D9D9D9" stroke="white"/>
</mask>
<g mask="url(#mask0_78_1480)">
<path opacity="0.0294118" d="M-116.905 -949.342C-134.188 -798.883 -112.487 -466.661 65.8061 -333.96C305.137 -155.83 249.415 637.897 216.381 763.567C187.887 871.967 -200.846 1066.54 -186.179 1444.82C-174.446 1747.44 -44.0434 1883.86 19.6909 1914.25" stroke="white" stroke-linecap="round"/>
<path opacity="0.0588235" d="M-32.7937 -935.614C-58.5869 -788.898 -56.3093 -460.004 112.434 -314.648C338.946 -119.531 237.956 657.376 198.011 778.387C163.555 882.768 -232.314 1042.3 -239.656 1415.96C-245.53 1714.88 -124.387 1859.96 -63.0812 1895.13" stroke="white" stroke-linecap="round"/>
<path opacity="0.0882353" d="M49.1988 -915.134C15.2522 -772.818 -1.39509 -448.811 157.177 -291.718C370.036 -80.8447 225.487 675.709 179.018 791.543C138.935 891.459 -261.836 1015.73 -290.572 1383.02C-313.561 1676.84 -202.06 1829.71 -143.436 1869.42" stroke="white" stroke-linecap="round"/>
<path opacity="0.117647" d="M128.694 -888.186C86.9863 -750.889 52.0003 -433.259 199.841 -265.386C398.295 -40.0423 212.092 692.822 159.514 803.003C114.162 898.043 -289.288 987.04 -338.704 1346.27C-378.236 1633.66 -276.705 1793.46 -220.998 1837.43" stroke="white" stroke-linecap="round"/>
<path opacity="0.147059" d="M205.333 -855.072C156.29 -723.368 103.634 -413.536 240.247 -235.874C423.628 2.6079 197.855 708.66 139.608 812.755C89.3647 902.545 -314.564 956.439 -383.851 1306.03C-439.281 1585.7 -347.993 1751.54 -295.42 1799.5" stroke="white" stroke-linecap="round"/>
<path opacity="0.176471" d="M278.778 -816.136C222.854 -690.555 153.275 -389.861 278.227 -203.432C445.955 46.8186 182.859 723.164 119.402 820.783C64.6651 904.987 -337.575 924.141 -425.841 1262.59C-496.454 1533.35 -415.626 1704.33 -366.385 1755.97" stroke="white" stroke-linecap="round"/>
<path opacity="0.205882" d="M348.716 -771.74C286.392 -652.765 200.709 -362.465 313.633 -168.313C465.215 92.3053 167.19 736.286 99.0012 827.085C40.1828 905.407 -358.248 890.369 -464.521 1216.28C-549.538 1477.01 -479.331 1652.22 -433.6 1707.24" stroke="white" stroke-linecap="round"/>
<path opacity="0.235294" d="M414.866 -722.266C346.647 -610.33 245.741 -331.592 346.336 -130.778C481.368 138.783 150.938 747.988 78.5102 831.671C16.0355 903.855 -376.522 855.35 -499.757 1167.43C-598.345 1417.09 -538.863 1595.64 -496.799 1653.7" stroke="white" stroke-linecap="round"/>
<path opacity="0.264706" d="M476.975 -668.123C403.385 -563.608 288.198 -297.504 376.229 -91.1013C494.396 185.962 134.197 758.238 58.0347 834.556C-7.66114 900.387 -392.349 819.311 -531.438 1116.38C-642.709 1354.03 -594.005 1535 -555.745 1595.78" stroke="white" stroke-linecap="round"/>
<path opacity="0.294118" d="M534.816 -609.726C456.394 -512.965 327.92 -260.47 403.217 -49.5569C504.293 233.561 117.055 767.014 37.6716 835.766C-30.8028 895.07 -405.701 782.485 -559.481 1063.47C-682.505 1288.25 -644.576 1470.76 -610.233 1533.92" stroke="white" stroke-linecap="round"/>
<path opacity="0.323529" d="M588.192 -547.513C505.491 -458.784 364.766 -220.773 427.229 -6.42884C511.075 281.294 99.6042 774.301 17.518 835.334C-53.288 887.979 -416.565 745.101 -583.824 1009.05C-717.631 1220.2 -690.42 1403.36 -660.089 1468.55" stroke="white" stroke-linecap="round"/>
<path opacity="0.352941" d="M636.941 -481.934C550.523 -401.464 398.623 -178.706 448.212 37.9943C514.777 328.88 81.9397 780.086 -2.32917 833.295C-75.0179 879.191 -424.938 707.384 -604.424 953.46C-748.012 1150.32 -731.414 1333.27 -705.166 1400.14" stroke="white" stroke-linecap="round"/>
<path opacity="0.382353" d="M680.927 -413.437C591.36 -341.398 429.389 -134.559 466.13 83.4337C515.45 376.055 64.1508 784.377 -21.7815 829.704C-95.9051 868.802 -430.837 669.564 -621.266 897.062C-773.609 1079.06 -767.467 1260.96 -745.353 1329.15" stroke="white" stroke-linecap="round"/>
<path opacity="0.411765" d="M720.045 -342.487C627.897 -279.002 456.985 -88.6387 480.968 129.599C513.161 422.548 46.3263 787.177 -40.7542 824.611C-115.868 856.901 -434.293 631.859 -634.358 840.192C-794.41 1006.86 -798.52 1186.88 -780.568 1256.05" stroke="white" stroke-linecap="round"/>
<path opacity="0.441176" d="M754.228 -269.545C660.067 -214.682 481.36 -41.2469 492.732 176.208C507.998 468.106 28.5603 788.5 -59.1603 818.078C-134.826 843.591 -435.343 594.484 -643.722 783.188C-810.426 934.152 -824.538 1111.5 -810.757 1181.3" stroke="white" stroke-linecap="round"/>
<path opacity="0.470588" d="M783.428 -195.072C687.817 -148.848 502.468 7.31484 501.438 222.985C500.055 512.489 10.932 788.374 -76.9304 810.174C-152.719 828.979 -434.052 557.651 -649.417 726.387C-821.708 861.375 -845.531 1035.29 -835.906 1105.38" stroke="white" stroke-linecap="round"/>
<path opacity="0.5" d="M807.633 -119.528C711.128 -81.9119 520.294 56.7413 507.125 269.656C489.449 555.46 -6.47186 786.824 -93.9907 800.971C-169.483 813.173 -430.487 521.559 -651.509 670.107C-828.326 788.945 -861.526 958.71 -856.023 1028.74" stroke="white" stroke-linecap="round"/>
<path opacity="0.529412" d="M826.868 -43.3658C730.013 -14.2761 534.844 106.734 509.855 315.956C476.311 596.804 -23.5657 783.889 -110.271 790.546C-185.061 796.288 -424.726 486.402 -650.085 614.663C-830.373 717.271 -872.578 882.194 -871.145 951.829" stroke="white" stroke-linecap="round"/>
<path opacity="0.558824" d="M841.174 32.9693C744.499 53.6606 546.136 156.998 509.695 361.629C460.78 636.315 -40.276 779.611 -125.715 778.983C-199.414 778.441 -416.867 452.362 -645.261 560.353C-827.976 646.746 -878.781 806.18 -881.345 875.098" stroke="white" stroke-linecap="round"/>
<path opacity="0.588235" d="M850.629 109.042C754.646 121.508 554.211 207.243 506.735 406.427C443.007 673.802 -56.5264 774.037 -140.268 766.365C-212.502 759.747 -407.012 419.609 -637.161 507.463C-821.281 577.747 -880.248 731.087 -886.716 798.972" stroke="white" stroke-linecap="round"/>
<path opacity="0.617647" d="M855.332 184.433C760.535 188.889 559.125 257.188 501.077 450.116C423.156 709.092 -72.2473 767.223 -153.881 752.784C-224.297 740.328 -395.277 388.303 -625.933 456.263C-810.458 510.632 -877.119 657.319 -887.384 723.867" stroke="white" stroke-linecap="round"/>
<path opacity="0.647059" d="M855.416 258.738C762.277 255.441 560.96 306.566 492.842 492.477C401.405 742.033 -87.3673 759.231 -166.509 738.333C-234.775 720.306 -381.781 358.594 -611.732 407.009C-795.693 445.74 -869.555 585.263 -883.491 650.182" stroke="white" stroke-linecap="round"/>
<path opacity="0.676471" d="M851.026 331.568C759.992 320.813 559.8 355.113 482.153 533.297C377.925 772.482 -101.832 750.122 -178.122 723.104C-243.928 699.799 -366.661 330.614 -594.741 359.932C-777.205 383.385 -857.751 515.279 -875.216 578.293" stroke="white" stroke-linecap="round"/>
<path opacity="0.705882" d="M842.345 402.558C753.835 384.673 555.759 402.583 469.159 572.387C352.913 800.321 -115.576 739.967 -188.683 707.196C-251.744 678.928 -350.049 304.486 -575.14 315.25C-755.212 323.862 -841.908 447.711 -862.746 508.559" stroke="white" stroke-linecap="round"/>
<path opacity="0.735294" d="M829.563 471.359C743.969 446.706 548.953 448.742 454.006 609.566C326.555 825.447 -128.553 728.839 -198.175 690.704C-258.231 657.809 -332.095 280.313 -553.134 273.157C-729.966 267.433 -822.258 382.874 -846.301 441.31" stroke="white" stroke-linecap="round"/>
<path opacity="0.764706" d="M812.899 537.65C730.581 506.62 539.521 493.369 436.859 644.675C299.052 847.779 -140.712 716.814 -206.579 673.726C-263.394 636.56 -312.945 258.187 -528.931 233.828C-701.72 214.342 -799.045 321.061 -826.11 376.857" stroke="white" stroke-linecap="round"/>
<path opacity="0.794118" d="M792.588 601.135C713.876 564.144 527.611 536.264 417.89 677.571C270.607 867.253 -152.011 703.972 -213.882 656.361C-267.25 615.293 -292.754 238.186 -502.749 197.417C-670.745 164.801 -772.529 262.537 -802.422 315.482" stroke="white" stroke-linecap="round"/>
<path opacity="0.823529" d="M768.877 661.54C694.067 619.027 513.378 577.237 397.272 708.126C241.418 883.824 -162.414 690.394 -220.081 638.704C-269.824 594.117 -271.678 220.37 -474.814 164.051C-637.322 118.995 -742.985 207.537 -775.503 257.44" stroke="white" stroke-linecap="round"/>
<path opacity="0.852941" d="M742.03 718.623C671.384 671.045 496.992 616.122 375.19 736.235C211.69 897.469 -171.89 676.166 -225.179 620.852C-271.145 573.139 -249.878 204.786 -445.358 133.839C-601.741 77.0817 -710.7 156.27 -745.631 202.959" stroke="white" stroke-linecap="round"/>
<path opacity="0.882353" d="M712.325 772.169C646.071 720 478.633 652.767 351.835 761.81C181.628 908.183 -180.41 661.375 -229.179 602.901C-271.246 552.462 -227.51 191.464 -414.612 106.866C-564.293 39.188 -675.964 108.914 -713.089 152.237" stroke="white" stroke-linecap="round"/>
<path opacity="0.911765" d="M680.044 821.986C618.373 765.711 458.478 687.037 327.39 784.776C151.426 915.974 -187.96 646.102 -232.1 584.937C-270.174 532.178 -204.738 180.416 -382.819 83.1896C-525.284 5.40852 -639.087 65.6131 -678.181 105.438" stroke="white" stroke-linecap="round"/>
<path opacity="0.941176" d="M645.481 867.922C588.55 808.037 436.72 718.825 302.053 805.087C121.284 920.88 -194.521 630.439 -233.957 567.056C-267.973 512.382 -181.719 171.647 -350.214 62.8519C-485.011 -24.184 -600.373 26.4886 -641.205 62.7043" stroke="white" stroke-linecap="round"/>
<path opacity="0.970588" d="M608.936 909.848C556.865 846.851 413.552 748.034 276.015 822.709C91.3932 922.948 -200.085 614.473 -234.774 549.34C-264.696 493.158 -158.609 165.139 -317.035 45.8663C-443.776 -49.5522 -560.134 -8.37506 -602.47 24.1408" stroke="white" stroke-linecap="round"/>
<path d="M570.711 947.665C523.584 882.058 389.17 774.59 249.468 837.627C61.94 922.244 -204.649 598.289 -234.581 531.873C-260.4 474.584 -135.563 160.863 -283.518 32.2239C-401.881 -70.6874 -518.681 -38.9231 -562.286 -10.1771" stroke="white" stroke-linecap="round"/>
</g>
<mask id="mask1_78_1480" style="mask-type:alpha" maskUnits="userSpaceOnUse" x="0" y="0" width="394" height="600">
<path d="M393.5 0.5H0.5V599.5H393.5V0.5Z" fill="#D9D9D9" stroke="white"/>
</mask>
<g mask="url(#mask1_78_1480)">
<path opacity="0.0294118" d="M-125.409 -770.643C-24.3194 -657.353 140.355 -367.683 40.2625 -139.993C-94.0966 165.645 404.522 786.695 507.143 869.041C595.662 940.071 1084.66 844.698 1281.99 1167.89C1439.84 1426.45 1388.66 1625.61 1343.34 1692.87" stroke="white" stroke-linecap="round"/>
<path opacity="0.0588235" d="M-199.975 -703.738C-92.6573 -599.168 89.1481 -325.078 5.47431 -93.2053C-106.845 218.048 426.629 795.272 533.401 869.194C625.501 932.958 1101.87 803.83 1318.13 1108.67C1491.14 1352.54 1453.85 1552.75 1413.58 1622.37" stroke="white" stroke-linecap="round"/>
<path opacity="0.0882353" d="M-268.695 -632.636C-155.867 -537.096 41.7103 -279.55 -25.4498 -44.6638C-115.602 270.634 449.077 802.233 559.332 867.557C654.436 923.905 1115.87 762.318 1349.49 1047.75C1536.38 1276.1 1512.88 1476.41 1477.77 1548.02" stroke="white" stroke-linecap="round"/>
<path opacity="0.117647" d="M-331.351 -557.813C-213.742 -471.556 -1.80029 -231.403 -52.4345 5.33282C-120.403 323.113 471.751 807.579 584.817 864.186C682.345 913.013 1126.66 720.42 1375.99 985.528C1575.46 1197.61 1565.59 1397.08 1535.72 1470.31" stroke="white" stroke-linecap="round"/>
<path opacity="0.147059" d="M-387.764 -479.776C-266.112 -402.999 -41.2553 -180.973 -75.4328 56.4619C-121.311 375.181 494.535 811.302 609.74 859.121C709.112 900.368 1134.25 678.367 1397.62 922.364C1608.32 1117.56 1611.84 1315.27 1587.27 1389.73" stroke="white" stroke-linecap="round"/>
<path opacity="0.176471" d="M-437.795 -399.02C-312.841 -331.86 -76.549 -128.58 -94.418 108.423C-118.404 426.562 517.316 813.422 633.991 852.434C734.632 886.085 1138.69 636.406 1414.38 858.64C1634.93 1036.43 1651.56 1231.49 1632.31 1306.8" stroke="white" stroke-linecap="round"/>
<path opacity="0.205882" d="M-481.343 -316.052C-353.826 -258.591 -107.603 -74.5594 -109.388 160.904C-111.785 476.977 539.981 813.952 657.467 844.189C758.808 870.27 1140 594.767 1426.29 794.722C1655.31 954.686 1684.7 1146.25 1670.77 1222.04" stroke="white" stroke-linecap="round"/>
<path opacity="0.235294" d="M-518.346 -231.378C-389.004 -183.643 -134.364 -19.2426 -120.365 213.603C-101.575 526.161 562.421 812.921 680.07 834.462C781.552 853.042 1138.28 553.678 1433.41 730.971C1669.51 872.806 1711.25 1060.05 1702.61 1135.95" stroke="white" stroke-linecap="round"/>
<path opacity="0.264706" d="M-548.783 -145.497C-418.342 -107.459 -156.806 37.0417 -127.395 266.225C-87.9146 573.867 584.527 810.366 701.707 823.337C802.784 834.526 1133.59 513.364 1435.82 667.745C1677.61 791.25 1731.25 973.395 1727.84 1049.03" stroke="white" stroke-linecap="round"/>
<path opacity="0.294118" d="M-572.668 -58.9099C-441.84 -30.4876 -174.926 93.9613 -130.54 318.476C-70.9594 619.852 606.2 806.326 722.296 810.899C822.438 814.844 1126.04 474.03 1433.64 605.382C1679.72 710.463 1744.75 886.767 1746.51 961.784" stroke="white" stroke-linecap="round"/>
<path opacity="0.323529" d="M-590.052 27.8904C-459.535 46.8309 -188.746 151.188 -129.889 370.073C-50.8832 663.89 627.34 800.844 741.759 797.235C840.456 794.123 1115.74 435.874 1426.99 544.208C1675.98 630.875 1751.87 800.644 1758.68 874.695" stroke="white" stroke-linecap="round"/>
<path opacity="0.352941" d="M-601.026 114.426C-471.495 124.068 -198.312 208.406 -125.549 420.744C-27.8752 705.775 647.852 793.978 760.028 782.444C856.789 772.494 1102.83 399.087 1416.03 484.539C1666.59 552.901 1752.73 715.489 1764.48 788.237" stroke="white" stroke-linecap="round"/>
<path opacity="0.382353" d="M-605.711 200.235C-477.817 200.808 -203.695 265.305 -117.645 470.233C-2.13712 745.316 667.648 785.789 777.04 766.624C871.4 750.093 1087.43 363.847 1400.94 426.677C1651.75 476.941 1747.52 631.75 1764.06 702.871" stroke="white" stroke-linecap="round"/>
<path opacity="0.411765" d="M-604.264 284.864C-478.633 276.646 -204.988 321.583 -106.325 518.291C26.1153 782.339 686.642 776.343 792.741 749.879C884.26 727.051 1069.71 330.316 1381.92 370.901C1631.69 403.369 1736.44 549.854 1757.59 619.037" stroke="white" stroke-linecap="round"/>
<path opacity="0.441176" d="M-596.873 367.884C-474.098 351.19 -202.301 376.952 -91.745 564.685C56.6594 816.688 704.759 765.709 807.088 732.311C895.354 703.502 1049.83 298.645 1359.19 317.473C1606.67 332.535 1719.71 470.204 1745.29 537.156" stroke="white" stroke-linecap="round"/>
<path opacity="0.470588" d="M-583.754 448.883C-464.396 424.072 -195.769 431.134 -74.0836 609.201C89.2603 848.227 721.926 753.966 820.042 714.028C904.674 679.578 1027.96 268.97 1332.97 266.636C1576.98 264.768 1697.59 393.185 1727.4 457.627" stroke="white" stroke-linecap="round"/>
<path opacity="0.5" d="M-565.155 527.476C-449.738 494.94 -185.545 483.868 -53.5313 651.638C123.676 876.841 738.077 741.193 831.573 695.139C912.222 655.413 1004.27 241.412 1303.52 218.612C1542.92 200.371 1670.38 319.154 1704.18 380.825" stroke="white" stroke-linecap="round"/>
<path opacity="0.529412" d="M-541.347 603.295C-430.359 563.462 -171.799 534.906 -30.2934 691.811C159.656 902.431 753.15 727.473 841.66 675.749C918.008 631.132 978.969 216.075 1271.11 173.597C1504.82 139.615 1638.37 248.439 1675.94 307.098" stroke="white" stroke-linecap="round"/>
<path opacity="0.558824" d="M-512.623 676.006C-406.51 629.331 -154.717 584.019 -4.58121 729.559C196.952 924.924 767.096 712.895 850.292 655.968C922.055 606.864 952.236 193.051 1236 131.771C1463.01 82.7468 1601.9 181.344 1642.97 236.77" stroke="white" stroke-linecap="round"/>
<path opacity="0.588235" d="M-479.302 745.298C-378.469 692.263 -134.498 630.994 23.3801 764.735C235.307 944.261 779.868 697.549 857.462 635.905C924.394 582.732 924.273 172.413 1198.49 93.2847C1417.86 29.982 1561.32 118.14 1605.63 170.132" stroke="white" stroke-linecap="round"/>
<path opacity="0.617647" d="M-441.717 810.887C-346.526 751.997 -111.359 675.635 53.3577 797.21C274.463 960.406 791.426 681.524 863.173 615.663C925.061 558.852 895.279 154.216 1158.86 58.2643C1369.72 -18.4967 1516.98 59.0685 1564.26 107.446" stroke="white" stroke-linecap="round"/>
<path opacity="0.647059" d="M-400.219 872.526C-310.987 808.304 -85.5203 717.769 85.1161 826.88C314.169 973.345 801.743 664.917 867.438 595.348C924.106 535.339 865.461 138.502 1117.41 26.8162C1318.97 -62.5325 1469.27 4.3404 1519.22 48.9455" stroke="white" stroke-linecap="round"/>
<path opacity="0.676471" d="M-355.177 929.99C-272.176 860.976 -57.2239 757.239 118.407 853.656C354.163 983.081 810.787 647.819 870.27 575.061C921.579 512.301 835.017 125.295 1074.45 -0.982688C1266 -102.005 1418.56 -45.8684 1470.9 -5.17223" stroke="white" stroke-linecap="round"/>
<path opacity="0.705882" d="M-306.965 983.093C-230.422 909.836 -26.7095 793.913 152.987 877.473C394.2 989.639 818.546 630.327 871.697 554.902C917.545 489.841 804.153 114.605 1030.28 -25.076C1211.19 -136.821 1365.26 -91.4106 1419.69 -54.7374" stroke="white" stroke-linecap="round"/>
<path opacity="0.735294" d="M-255.969 1031.68C-186.064 954.736 5.7731 827.676 188.607 898.284C434.034 993.063 825.008 612.537 871.751 534.967C912.07 468.056 773.07 106.424 985.212 -45.4339C1154.93 -166.92 1309.77 -132.174 1365.98 -99.6151" stroke="white" stroke-linecap="round"/>
<path opacity="0.764706" d="M-202.58 1075.62C-139.447 995.556 39.9683 858.438 225.02 916.063C473.423 993.416 830.169 594.545 870.468 515.35C905.229 447.037 741.965 100.73 939.539 -62.0494C1097.6 -192.273 1252.48 -168.078 1310.17 -139.702" stroke="white" stroke-linecap="round"/>
<path opacity="0.794118" d="M-147.195 1114.83C-90.9238 1032.2 75.6175 886.126 261.978 930.804C512.136 990.777 834.033 576.443 867.893 496.137C897.101 426.866 711.029 97.4848 893.562 -74.9412C1039.59 -212.882 1193.81 -199.076 1252.66 -174.93" stroke="white" stroke-linecap="round"/>
<path opacity="0.823529" d="M-90.2097 1149.23C-40.8447 1064.61 112.46 910.687 299.235 942.516C549.95 985.24 836.607 558.32 864.075 477.408C887.767 407.615 680.45 96.6309 847.575 -84.1542C981.274 -228.782 1134.14 -225.157 1193.86 -205.265" stroke="white" stroke-linecap="round"/>
<path opacity="0.852941" d="M-32.0163 1178.82C10.4429 1092.75 150.241 932.097 336.556 951.235C586.655 976.923 837.912 540.273 859.071 459.248C877.321 389.357 650.412 98.1075 801.866 -89.7462C923.028 -240.029 1073.88 -246.331 1134.17 -230.697" stroke="white" stroke-linecap="round"/>
<path opacity="0.882353" d="M26.9936 1203.59C62.5896 1116.61 188.701 950.346 373.707 957.01C622.048 965.954 837.969 522.387 852.939 441.727C865.852 372.152 621.087 101.832 756.71 -91.8047C865.208 -246.714 1013.42 -262.649 1073.97 -251.253" stroke="white" stroke-linecap="round"/>
<path opacity="0.911765" d="M86.4366 1223.56C115.254 1136.21 227.587 965.444 410.462 959.907C655.942 952.474 836.807 504.746 845.745 424.912C853.455 356.049 592.638 107.711 712.374 -90.4375C808.162 -248.956 953.133 -274.19 1013.65 -266.993" stroke="white" stroke-linecap="round"/>
<path opacity="0.941176" d="M145.937 1238.82C168.099 1151.6 266.649 977.425 446.602 960.013C688.161 936.641 834.458 487.433 837.554 408.866C840.225 341.095 565.221 115.64 669.11 -85.7679C752.221 -246.894 893.383 -281.058 953.576 -277.999" stroke="white" stroke-linecap="round"/>
<path opacity="0.970588" d="M205.13 1249.44C220.799 1162.85 305.645 986.338 481.922 957.428C718.545 918.621 830.963 470.527 828.439 393.644C826.261 327.326 538.98 125.503 627.159 -77.9411C697.702 -240.697 834.525 -283.387 894.118 -284.388" stroke="white" stroke-linecap="round"/>
<path d="M263.669 1255.55C273.042 1170.06 344.346 992.252 516.228 952.267C746.952 898.593 826.37 454.101 818.475 379.295C811.666 314.769 514.05 137.174 586.749 -67.1196C644.908 -230.555 776.896 -281.339 835.62 -286.301" stroke="white" stroke-linecap="round"/>
</g>
</svg>
