<svg width="1515" height="363" viewBox="0 0 1515 363" fill="none" xmlns="http://www.w3.org/2000/svg">
<mask id="mask0_2044_2333" style="mask-type:alpha" maskUnits="userSpaceOnUse" x="959" y="0" width="556" height="363">
<rect x="959.5" y="0.5" width="555" height="362" fill="#D9D9D9" stroke="white"/>
</mask>
<g mask="url(#mask0_2044_2333)">
<path opacity="0.0294118" d="M745.095 -1186.34C727.811 -1035.88 749.512 -703.661 927.806 -570.96C1167.14 -392.83 1111.41 400.897 1078.38 526.567C1049.89 634.967 661.154 829.544 675.82 1207.82C687.554 1510.44 817.956 1646.86 881.69 1677.25" stroke="white" stroke-linecap="round"/>
<path opacity="0.0588235" d="M829.206 -1172.61C803.413 -1025.9 805.69 -697.004 974.434 -551.648C1200.95 -356.531 1099.96 420.376 1060.01 541.387C1025.55 645.768 629.686 805.301 622.343 1178.96C616.469 1477.88 737.613 1622.96 798.918 1658.13" stroke="white" stroke-linecap="round"/>
<path opacity="0.0882353" d="M911.198 -1152.13C877.252 -1009.82 860.604 -685.811 1019.18 -528.718C1232.04 -317.845 1087.49 438.709 1041.02 554.543C1000.93 654.459 600.164 778.733 571.428 1146.02C548.439 1439.84 659.94 1592.71 718.564 1632.42" stroke="white" stroke-linecap="round"/>
<path opacity="0.117647" d="M990.693 -1125.19C948.986 -987.889 914 -670.259 1061.84 -502.386C1260.29 -277.042 1074.09 455.822 1021.51 566.003C976.161 661.043 572.711 750.04 523.296 1109.27C483.764 1396.66 585.295 1556.46 641.001 1600.43" stroke="white" stroke-linecap="round"/>
<path opacity="0.147059" d="M1067.33 -1092.07C1018.29 -960.368 965.634 -650.536 1102.25 -472.874C1285.63 -234.392 1059.85 471.66 1001.61 575.755C951.364 665.545 547.436 719.439 478.148 1069.03C422.718 1348.7 514.007 1514.54 566.579 1562.5" stroke="white" stroke-linecap="round"/>
<path opacity="0.176471" d="M1140.78 -1053.14C1084.85 -927.555 1015.27 -626.861 1140.23 -440.432C1307.95 -190.181 1044.86 486.164 981.402 583.783C926.665 667.987 524.424 687.141 436.158 1025.59C365.546 1296.35 446.374 1467.33 495.615 1518.97" stroke="white" stroke-linecap="round"/>
<path opacity="0.205882" d="M1210.72 -1008.74C1148.39 -889.765 1062.71 -599.465 1175.63 -405.313C1327.21 -144.695 1029.19 499.286 961.001 590.085C902.182 668.407 503.751 653.369 397.479 979.281C312.461 1240.01 382.669 1415.22 428.4 1470.24" stroke="white" stroke-linecap="round"/>
<path opacity="0.235294" d="M1276.87 -959.266C1208.65 -847.33 1107.74 -568.592 1208.34 -367.778C1343.37 -98.2168 1012.94 510.988 940.51 594.671C878.035 666.855 485.477 618.35 362.243 930.43C263.655 1180.09 323.136 1358.64 365.2 1416.7" stroke="white" stroke-linecap="round"/>
<path opacity="0.264706" d="M1338.97 -905.123C1265.38 -800.608 1150.2 -534.504 1238.23 -328.101C1356.4 -51.0375 996.196 521.238 920.034 597.556C854.338 663.387 469.651 582.311 330.561 879.376C219.29 1117.03 267.994 1298 306.255 1358.78" stroke="white" stroke-linecap="round"/>
<path opacity="0.294118" d="M1396.82 -846.726C1318.39 -749.965 1189.92 -497.47 1265.22 -286.557C1366.29 -3.43921 979.054 530.014 899.671 598.766C831.197 658.07 456.298 545.485 302.518 826.466C179.494 1051.25 217.424 1233.76 251.767 1296.92" stroke="white" stroke-linecap="round"/>
<path opacity="0.323529" d="M1450.19 -784.513C1367.49 -695.784 1226.77 -457.773 1289.23 -243.429C1373.07 44.2938 961.604 537.301 879.518 598.334C808.712 650.979 445.434 508.101 278.176 772.046C144.369 983.201 171.579 1166.36 201.91 1231.55" stroke="white" stroke-linecap="round"/>
<path opacity="0.352941" d="M1498.94 -718.934C1412.52 -638.464 1260.62 -415.706 1310.21 -199.006C1376.78 91.88 943.939 543.086 859.67 596.295C786.982 642.191 437.061 470.384 257.576 716.46C113.987 913.321 130.586 1096.27 156.833 1163.14" stroke="white" stroke-linecap="round"/>
<path opacity="0.382353" d="M1542.93 -650.437C1453.36 -578.398 1291.39 -371.559 1328.13 -153.566C1377.45 139.055 926.15 547.377 840.218 592.704C766.094 631.802 431.162 432.564 240.733 660.062C88.3904 842.061 94.5328 1023.96 116.647 1092.15" stroke="white" stroke-linecap="round"/>
<path opacity="0.411765" d="M1582.04 -579.487C1489.9 -516.002 1318.98 -325.639 1342.97 -107.401C1375.16 185.548 908.326 550.177 821.245 587.611C746.131 619.901 427.707 394.859 227.641 603.192C67.5892 769.858 63.4796 949.876 81.4313 1019.05" stroke="white" stroke-linecap="round"/>
<path opacity="0.441176" d="M1616.23 -506.545C1522.07 -451.682 1343.36 -278.247 1354.73 -60.7923C1370 231.106 890.56 551.5 802.839 581.078C727.173 606.591 426.657 357.484 218.277 546.188C51.5734 697.152 37.461 874.501 51.2428 944.305" stroke="white" stroke-linecap="round"/>
<path opacity="0.470588" d="M1645.43 -432.072C1549.82 -385.848 1364.47 -229.685 1363.44 -14.0148C1362.05 275.489 872.932 551.374 785.069 573.174C709.281 591.979 427.948 320.651 212.583 489.387C40.291 624.375 16.4685 798.295 26.0937 868.381" stroke="white" stroke-linecap="round"/>
<path opacity="0.5" d="M1669.63 -356.528C1573.13 -318.912 1382.29 -180.259 1369.12 32.6559C1351.45 318.46 855.528 549.824 768.009 563.971C692.517 576.173 431.513 284.559 210.491 433.107C33.6734 551.945 0.473743 721.71 5.9761 791.738" stroke="white" stroke-linecap="round"/>
<path opacity="0.529412" d="M1688.87 -280.366C1592.01 -251.276 1396.84 -130.266 1371.85 78.9563C1338.31 359.804 838.434 546.889 751.729 553.546C676.938 559.288 437.274 249.402 211.914 377.663C31.6267 480.271 -10.5789 645.194 -9.14585 714.829" stroke="white" stroke-linecap="round"/>
<path opacity="0.558824" d="M1703.17 -204.031C1606.5 -183.339 1408.14 -80.0021 1371.69 124.629C1322.78 399.315 821.724 542.611 736.284 541.983C662.586 541.441 445.133 215.362 216.739 323.353C34.0238 409.746 -16.7818 569.18 -19.3452 638.098" stroke="white" stroke-linecap="round"/>
<path opacity="0.588235" d="M1712.63 -127.958C1616.65 -115.492 1416.21 -29.7573 1368.73 169.427C1305.01 436.802 805.473 537.037 721.732 529.365C649.498 522.747 454.987 182.609 224.838 270.463C40.7189 340.747 -18.2482 494.087 -24.7168 561.972" stroke="white" stroke-linecap="round"/>
<path opacity="0.617647" d="M1717.33 -52.5673C1622.53 -48.1108 1421.12 20.1882 1363.08 213.116C1285.16 472.092 789.752 530.223 708.118 515.784C637.702 503.328 466.722 151.303 236.066 219.263C51.5416 273.632 -15.1195 420.319 -25.3844 486.867" stroke="white" stroke-linecap="round"/>
<path opacity="0.647059" d="M1717.42 21.7379C1624.28 18.4414 1422.96 69.5658 1354.84 255.477C1263.4 505.033 774.632 522.231 695.491 501.333C627.225 483.306 480.219 121.594 250.267 170.009C66.3062 208.74 -7.55559 348.263 -21.4913 413.182" stroke="white" stroke-linecap="round"/>
<path opacity="0.676471" d="M1713.03 94.568C1621.99 83.8127 1421.8 118.113 1344.15 296.297C1239.92 535.482 760.168 513.122 683.878 486.104C618.072 462.799 495.339 93.6144 267.259 122.932C84.7949 146.385 4.24859 278.279 -13.2166 341.293" stroke="white" stroke-linecap="round"/>
<path opacity="0.705882" d="M1704.34 165.558C1615.83 147.673 1417.76 165.583 1331.16 335.387C1214.91 563.321 746.424 502.967 673.316 470.196C610.255 441.928 511.951 67.4858 286.86 78.2501C106.787 86.8615 20.0919 210.711 -0.746701 271.559" stroke="white" stroke-linecap="round"/>
<path opacity="0.735294" d="M1691.56 234.359C1605.97 209.706 1410.95 211.742 1316.01 372.566C1188.55 588.447 733.447 491.839 663.824 453.704C603.769 420.809 529.905 43.3125 308.866 36.1573C132.034 30.4332 39.7412 145.874 15.6988 204.31" stroke="white" stroke-linecap="round"/>
<path opacity="0.764706" d="M1674.9 300.65C1592.58 269.62 1401.52 256.369 1298.86 407.675C1161.05 610.779 721.288 479.814 655.421 436.726C598.605 399.56 549.054 21.1869 333.068 -3.1715C160.28 -22.6582 62.954 84.0611 35.8898 139.857" stroke="white" stroke-linecap="round"/>
<path opacity="0.794118" d="M1654.59 364.135C1575.88 327.144 1389.61 299.264 1279.89 440.571C1132.61 630.253 709.989 466.972 648.118 419.361C594.749 378.293 569.246 1.18601 359.251 -39.5834C191.255 -72.1989 89.4704 25.5371 59.5777 78.482" stroke="white" stroke-linecap="round"/>
<path opacity="0.823529" d="M1630.88 424.54C1556.07 382.027 1375.38 340.237 1259.27 471.126C1103.42 646.824 699.586 453.394 641.918 401.704C592.176 357.117 590.321 -16.6302 387.186 -72.9494C224.678 -118.005 119.015 -29.4629 86.4966 20.4401" stroke="white" stroke-linecap="round"/>
<path opacity="0.852941" d="M1604.03 481.623C1533.38 434.045 1358.99 379.122 1237.19 499.235C1073.69 660.469 690.109 439.166 636.82 383.852C590.854 336.139 612.121 -32.2144 416.642 -103.161C260.258 -159.918 151.3 -80.7298 116.369 -34.0409" stroke="white" stroke-linecap="round"/>
<path opacity="0.882353" d="M1574.32 535.169C1508.07 483 1340.63 415.767 1213.83 524.81C1043.63 671.183 681.589 424.375 632.82 365.901C590.753 315.462 634.49 -45.5362 447.388 -130.134C297.706 -197.812 186.035 -128.086 148.91 -84.763" stroke="white" stroke-linecap="round"/>
<path opacity="0.911765" d="M1542.04 584.986C1480.37 528.711 1320.48 450.037 1189.39 547.776C1013.43 678.974 674.039 409.102 629.899 347.937C591.825 295.178 657.261 -56.584 479.18 -153.81C336.716 -231.591 222.912 -171.387 183.819 -131.562" stroke="white" stroke-linecap="round"/>
<path opacity="0.941176" d="M1507.48 630.922C1450.55 571.037 1298.72 481.825 1164.05 568.087C983.283 683.88 667.478 393.439 628.043 330.056C594.026 275.382 680.281 -65.3532 511.785 -174.148C376.989 -261.184 261.626 -210.511 220.795 -174.296" stroke="white" stroke-linecap="round"/>
<path opacity="0.970588" d="M1470.94 672.848C1418.86 609.851 1275.55 511.034 1138.01 585.709C953.393 685.948 661.914 377.473 627.225 312.34C597.303 256.158 703.39 -71.8607 544.964 -191.134C418.223 -286.552 301.866 -245.375 259.53 -212.859" stroke="white" stroke-linecap="round"/>
<path d="M1432.71 710.665C1385.58 645.058 1251.17 537.59 1111.47 600.627C923.94 685.244 657.35 361.289 627.418 294.873C601.6 237.584 726.436 -76.137 578.482 -204.776C460.118 -307.687 343.318 -275.923 299.714 -247.177" stroke="white" stroke-linecap="round"/>
</g>
<mask id="mask1_2044_2333" style="mask-type:alpha" maskUnits="userSpaceOnUse" x="0" y="0" width="608" height="363">
<rect x="-0.5" y="0.5" width="607" height="362" transform="matrix(-1 0 0 1 607 0)" fill="#D9D9D9" stroke="white"/>
</mask>
<g mask="url(#mask1_2044_2333)">
<path opacity="0.0294118" d="M35.5912 -1007.64C136.681 -894.351 301.356 -604.681 201.263 -376.991C66.9039 -71.3535 565.523 549.697 668.144 632.043C756.663 703.073 1245.66 607.7 1442.99 930.896C1600.84 1189.45 1549.66 1388.61 1504.34 1455.87" stroke="white" stroke-linecap="round"/>
<path opacity="0.0588235" d="M-38.9748 -940.736C68.3427 -836.166 250.148 -562.076 166.474 -330.203C54.1554 -18.9503 587.629 558.274 694.401 632.196C786.501 695.96 1262.87 566.831 1479.13 871.67C1652.14 1115.54 1614.85 1315.75 1574.58 1385.38" stroke="white" stroke-linecap="round"/>
<path opacity="0.0882353" d="M-107.695 -869.632C5.13319 -774.092 202.711 -516.546 135.551 -281.66C45.3989 33.6376 610.077 565.237 720.332 630.561C815.436 686.909 1276.87 525.322 1510.49 810.755C1697.38 1039.1 1673.88 1239.41 1638.77 1311.02" stroke="white" stroke-linecap="round"/>
<path opacity="0.117647" d="M-170.351 -794.813C-52.7418 -708.556 159.2 -468.403 108.565 -231.667C40.5969 86.1132 632.751 570.579 745.817 627.186C843.345 676.013 1287.66 483.42 1536.99 748.528C1736.46 960.614 1726.59 1160.08 1696.72 1233.31" stroke="white" stroke-linecap="round"/>
<path opacity="0.147059" d="M-226.764 -716.774C-105.112 -639.997 119.745 -417.971 85.5672 -180.536C39.6893 138.183 655.535 574.304 770.74 622.123C870.112 663.37 1295.25 441.369 1558.62 685.366C1769.32 880.563 1772.84 1078.27 1748.27 1152.73" stroke="white" stroke-linecap="round"/>
<path opacity="0.176471" d="M-276.795 -636.018C-151.84 -568.857 84.4515 -365.578 66.5826 -128.575C42.5963 189.564 678.317 576.424 794.991 615.436C895.633 649.087 1299.69 399.408 1575.38 621.642C1795.93 799.43 1812.56 994.497 1793.31 1069.81" stroke="white" stroke-linecap="round"/>
<path opacity="0.205882" d="M-320.343 -553.048C-192.826 -495.587 53.3974 -311.555 51.6118 -76.092C49.215 239.981 700.981 576.956 818.467 607.193C919.808 633.274 1301 357.771 1587.29 557.726C1816.31 717.69 1845.7 909.257 1831.77 985.045" stroke="white" stroke-linecap="round"/>
<path opacity="0.235294" d="M-357.346 -468.374C-228.004 -420.639 26.6357 -256.239 40.6341 -23.3933C59.4247 289.165 723.42 575.925 841.069 597.466C942.551 616.046 1299.28 316.682 1594.41 493.975C1830.51 635.81 1872.25 823.056 1863.61 898.95" stroke="white" stroke-linecap="round"/>
<path opacity="0.264706" d="M-387.783 -382.495C-257.341 -344.457 4.19399 -199.956 33.6055 29.2266C73.0859 336.869 745.528 573.368 862.707 586.339C963.784 597.528 1294.59 276.366 1596.82 430.747C1838.61 554.252 1892.25 736.397 1888.84 812.032" stroke="white" stroke-linecap="round"/>
<path opacity="0.294118" d="M-411.668 -295.91C-280.84 -267.488 -13.926 -143.039 30.4597 81.4762C90.0406 382.852 767.2 569.326 883.296 573.899C983.438 577.844 1287.04 237.03 1594.64 368.382C1840.72 473.463 1905.75 649.767 1907.51 724.784" stroke="white" stroke-linecap="round"/>
<path opacity="0.323529" d="M-429.052 -209.11C-298.535 -190.169 -27.7456 -85.8116 31.111 133.073C110.117 426.89 788.34 563.844 902.759 560.235C1001.46 557.123 1276.74 198.874 1587.99 307.208C1836.98 393.875 1912.87 563.644 1919.68 637.695" stroke="white" stroke-linecap="round"/>
<path opacity="0.352941" d="M-440.026 -122.574C-310.495 -112.932 -37.3122 -28.5943 35.4513 183.744C133.125 468.775 808.852 556.978 921.028 545.444C1017.79 535.494 1263.83 162.087 1577.03 247.539C1827.59 315.901 1913.73 478.489 1925.48 551.237" stroke="white" stroke-linecap="round"/>
<path opacity="0.382353" d="M-444.711 -36.7654C-316.817 -36.1917 -42.6952 28.3047 43.3546 233.233C158.863 508.316 828.648 548.789 938.04 529.624C1032.4 513.093 1248.43 126.847 1561.94 189.677C1812.75 239.941 1908.52 394.75 1925.06 465.871" stroke="white" stroke-linecap="round"/>
<path opacity="0.411765" d="M-443.264 47.8644C-317.633 39.6456 -43.9873 84.5834 54.6759 281.291C187.116 545.339 847.643 539.343 953.742 512.879C1045.26 490.051 1230.71 93.3164 1542.92 133.901C1792.69 166.369 1897.44 312.854 1918.59 382.037" stroke="white" stroke-linecap="round"/>
<path opacity="0.441176" d="M-435.873 130.884C-313.098 114.19 -41.3012 139.952 69.255 327.685C217.659 579.688 865.759 528.709 968.088 495.311C1056.35 466.502 1210.83 61.6451 1520.19 80.4728C1767.67 95.535 1880.71 233.204 1906.29 300.156" stroke="white" stroke-linecap="round"/>
<path opacity="0.470588" d="M-422.754 211.883C-303.396 187.072 -34.7693 194.134 86.9164 372.201C250.26 611.227 882.926 516.966 981.042 477.028C1065.67 442.578 1188.96 31.97 1493.97 29.6358C1737.98 27.7685 1858.59 156.185 1888.4 220.627" stroke="white" stroke-linecap="round"/>
<path opacity="0.5" d="M-404.155 290.476C-288.738 257.94 -24.5447 246.868 107.469 414.638C284.676 639.841 899.077 504.193 992.573 458.139C1073.22 418.413 1165.27 4.41246 1464.52 -18.3882C1703.92 -36.6286 1831.38 82.1539 1865.18 143.825" stroke="white" stroke-linecap="round"/>
<path opacity="0.529412" d="M-380.347 366.295C-269.359 326.462 -10.7995 297.906 130.707 454.811C320.656 665.431 914.15 490.473 1002.66 438.749C1079.01 394.132 1139.97 -20.9245 1432.11 -63.4027C1665.82 -97.3852 1799.37 11.4385 1836.94 70.0982" stroke="white" stroke-linecap="round"/>
<path opacity="0.558824" d="M-351.623 439.006C-245.51 392.331 6.28337 347.019 156.419 492.559C357.952 687.924 928.096 475.895 1011.29 418.968C1083.06 369.864 1113.24 -43.9486 1397 -105.229C1624.01 -154.253 1762.9 -55.6564 1803.97 -0.230022" stroke="white" stroke-linecap="round"/>
<path opacity="0.588235" d="M-318.302 508.298C-217.469 455.263 26.5019 393.994 184.38 527.735C396.307 707.261 940.868 460.549 1018.46 398.905C1085.39 345.732 1085.27 -64.5869 1359.49 -143.715C1578.86 -207.018 1722.32 -118.86 1766.63 -66.8675" stroke="white" stroke-linecap="round"/>
<path opacity="0.617647" d="M-280.717 573.887C-185.526 514.997 49.6415 438.635 214.358 560.21C435.463 723.406 952.426 444.524 1024.17 378.663C1086.06 321.852 1056.28 -82.7845 1319.86 -178.736C1530.72 -255.497 1677.98 -177.932 1725.26 -129.554" stroke="white" stroke-linecap="round"/>
<path opacity="0.647059" d="M-239.219 635.526C-149.987 571.304 75.4797 480.769 246.116 589.88C475.169 736.345 962.743 427.917 1028.44 358.348C1085.11 298.339 1026.46 -98.4978 1278.41 -210.184C1479.97 -299.533 1630.27 -232.66 1680.22 -188.055" stroke="white" stroke-linecap="round"/>
<path opacity="0.676471" d="M-194.176 692.99C-111.176 623.976 103.777 520.239 279.407 616.656C515.164 746.081 971.787 410.819 1031.27 338.061C1082.58 275.301 996.017 -111.705 1235.45 -237.983C1427 -339.005 1579.56 -282.868 1631.9 -242.172" stroke="white" stroke-linecap="round"/>
<path opacity="0.705882" d="M-145.965 746.093C-69.4219 672.836 134.29 556.913 313.987 640.473C555.2 752.639 979.546 393.327 1032.7 317.902C1078.54 252.841 965.153 -122.395 1191.28 -262.076C1372.19 -373.821 1526.26 -328.411 1580.69 -291.737" stroke="white" stroke-linecap="round"/>
<path opacity="0.735294" d="M-94.9688 794.677C-25.0636 717.736 166.773 590.676 349.607 661.284C595.034 756.063 986.008 375.537 1032.75 297.967C1073.07 231.056 934.07 -130.576 1146.21 -282.434C1315.93 -403.92 1470.77 -369.174 1526.98 -336.615" stroke="white" stroke-linecap="round"/>
<path opacity="0.764706" d="M-41.58 838.619C21.5526 758.556 200.968 621.438 386.02 679.063C634.423 756.416 991.169 357.545 1031.47 278.35C1066.23 210.037 902.965 -136.27 1100.54 -299.049C1258.6 -429.273 1413.48 -405.078 1471.17 -376.702" stroke="white" stroke-linecap="round"/>
<path opacity="0.794118" d="M13.8053 877.827C70.0762 795.204 236.617 649.126 422.978 693.804C673.136 753.777 995.033 339.443 1028.89 259.137C1058.1 189.866 872.029 -139.515 1054.56 -311.941C1200.59 -449.882 1354.81 -436.076 1413.66 -411.93" stroke="white" stroke-linecap="round"/>
<path opacity="0.823529" d="M70.7903 912.235C120.155 827.611 273.46 673.687 460.235 705.516C710.95 748.24 997.607 321.32 1025.07 240.408C1048.77 170.615 841.45 -140.369 1008.57 -321.154C1142.27 -465.782 1295.14 -462.157 1354.86 -442.265" stroke="white" stroke-linecap="round"/>
<path opacity="0.852941" d="M128.984 941.821C171.443 855.749 311.241 695.097 497.556 714.235C747.655 739.923 998.912 303.273 1020.07 222.248C1038.32 152.357 811.412 -138.893 962.866 -326.746C1084.03 -477.029 1234.88 -483.331 1295.17 -467.697" stroke="white" stroke-linecap="round"/>
<path opacity="0.882353" d="M187.994 966.587C223.59 879.61 349.701 713.346 534.707 720.01C783.048 728.954 998.969 285.387 1013.94 204.727C1026.85 135.152 782.087 -135.168 917.71 -328.805C1026.21 -483.714 1174.42 -499.649 1234.97 -488.253" stroke="white" stroke-linecap="round"/>
<path opacity="0.911765" d="M247.437 986.565C276.254 899.21 388.587 728.444 571.462 722.907C816.942 715.474 997.807 267.746 1006.74 187.912C1014.45 119.049 753.638 -129.289 873.374 -327.437C969.162 -485.956 1114.13 -511.19 1174.65 -503.993" stroke="white" stroke-linecap="round"/>
<path opacity="0.941176" d="M306.937 1001.82C329.099 914.6 427.649 740.425 607.602 723.013C849.161 699.641 995.458 250.433 998.554 171.866C1001.22 104.095 726.221 -121.36 830.11 -322.768C913.221 -483.894 1054.38 -518.058 1114.58 -514.999" stroke="white" stroke-linecap="round"/>
<path opacity="0.970588" d="M366.13 1012.44C381.799 925.852 466.645 749.338 642.922 720.428C879.545 681.621 991.963 233.527 989.439 156.644C987.261 90.3263 699.98 -111.497 788.159 -314.941C858.702 -477.697 995.525 -520.387 1055.12 -521.388" stroke="white" stroke-linecap="round"/>
<path d="M424.669 1018.55C434.042 933.06 505.346 755.252 677.228 715.267C907.952 661.593 987.37 217.101 979.475 142.295C972.666 77.769 675.05 -99.826 747.749 -304.12C805.908 -467.555 937.896 -518.339 996.62 -523.301" stroke="white" stroke-linecap="round"/>
</g>
</svg>
