<svg width="60" height="60" viewBox="0 0 60 60" fill="none" xmlns="http://www.w3.org/2000/svg">
<g clip-path="url(#clip0_97_6080)">
<path d="M52.5002 53.75V60H47.5002V53.75C47.5002 50.4375 44.9027 47.745 41.6402 47.54L35.0002 57.5L30.0002 50L25.0002 57.5L18.3602 47.54C15.0977 47.745 12.5002 50.4375 12.5002 53.75V60H7.50016V53.75C7.50016 47.5475 12.5477 42.5 18.7502 42.5H41.2502C47.4527 42.5 52.5002 47.5475 52.5002 53.75ZM32.0602 15.2375C35.1977 15.96 37.7552 18.4975 38.4977 21.63C39.0002 23.7475 38.7252 25.7775 37.9027 27.5H41.1677C42.4202 27.5 43.5152 26.58 43.6602 25.335C43.8302 23.8675 43.7677 22.33 43.4327 20.7575C42.3227 15.56 38.1052 11.3675 32.9002 10.2975C24.0577 8.48002 16.2527 15.2225 16.2527 23.75C16.2527 27.4225 17.7002 30.7625 20.0527 33.23C20.1527 31.11 20.9177 29.1625 22.1427 27.59C21.5727 26.43 21.2527 25.125 21.2527 23.7475C21.2527 18.25 26.3477 13.92 32.0627 15.235L32.0602 15.2375ZM17.1777 10.07C21.0002 6.48752 26.0052 4.71752 31.2527 5.04252C41.0627 5.67752 48.7502 14.215 48.7502 24.4775C48.7502 28.9025 45.1527 32.5 40.7277 32.5H34.7127C34.1027 30.4275 32.2077 28.9025 29.9377 28.9025C27.1752 28.9025 24.9377 31.14 24.9377 33.9025C24.9377 36.665 27.1752 38.9025 29.9377 38.9025C31.2827 38.9025 32.5002 38.365 33.3977 37.5H40.7277C47.9077 37.5 53.7502 31.6575 53.7502 24.4775C53.7502 11.585 44.0102 0.855018 31.5752 0.0525183C24.9152 -0.379982 18.5977 1.88252 13.7602 6.42252C9.29266 10.61 6.60766 16.4125 6.28516 22.5025H11.2927C11.6002 17.745 13.6627 13.3675 17.1802 10.07H17.1777Z" fill="#064CBA"/>
</g>
<defs>
<clipPath id="clip0_97_6080">
<rect width="60" height="60" fill="white"/>
</clipPath>
</defs>
</svg>
