<svg width="60" height="60" viewBox="0 0 60 60" fill="none" xmlns="http://www.w3.org/2000/svg">
<g clip-path="url(#clip0_97_6073)">
<path d="M0 27.5H27.5V0H0V27.5ZM5 5H22.5V22.5H5V5ZM10 10H17.5V17.5H10V10ZM60 0H32.5V27.5H60V0ZM55 22.5H37.5V5H55V22.5ZM50 17.5H42.5V10H50V17.5ZM0 60H27.5V32.5H0V60ZM5 37.5H22.5V55H5V37.5ZM10 42.5H17.5V50H10V42.5ZM42.5 32.5V42.5H32.5V32.5H42.5ZM42.5 42.5H50V50H42.5V42.5ZM32.5 50H42.5V60H32.5V50ZM60 32.5V42.5H50V32.5H60Z" fill="#064CBA"/>
</g>
<defs>
<clipPath id="clip0_97_6073">
<rect width="60" height="60" fill="white"/>
</clipPath>
</defs>
</svg>
