<svg width="60" height="60" viewBox="0 0 60 60" fill="none" xmlns="http://www.w3.org/2000/svg">
<path d="M20 0H10C7.34784 0 4.8043 1.05357 2.92893 2.92893C1.05357 4.8043 0 7.34784 0 10L0 12.5C0 15.1522 1.05357 17.6957 2.92893 19.5711C4.8043 21.4464 7.34784 22.5 10 22.5H12.5V27.5H7.5C6.83696 27.5 6.20107 27.7634 5.73223 28.2322C5.26339 28.7011 5 29.337 5 30C5 30.663 5.26339 31.2989 5.73223 31.7678C6.20107 32.2366 6.83696 32.5 7.5 32.5H22.5C23.163 32.5 23.7989 32.2366 24.2678 31.7678C24.7366 31.2989 25 30.663 25 30C25 29.337 24.7366 28.7011 24.2678 28.2322C23.7989 27.7634 23.163 27.5 22.5 27.5H17.5V22.5H20C22.6522 22.5 25.1957 21.4464 27.0711 19.5711C28.9464 17.6957 30 15.1522 30 12.5V10C30 7.34784 28.9464 4.8043 27.0711 2.92893C25.1957 1.05357 22.6522 0 20 0ZM25 12.5C25 13.8261 24.4732 15.0979 23.5355 16.0355C22.5979 16.9732 21.3261 17.5 20 17.5H10C8.67392 17.5 7.40215 16.9732 6.46447 16.0355C5.52678 15.0979 5 13.8261 5 12.5V10C5 8.67392 5.52678 7.40215 6.46447 6.46447C7.40215 5.52678 8.67392 5 10 5H20C21.3261 5 22.5979 5.52678 23.5355 6.46447C24.4732 7.40215 25 8.67392 25 10V12.5ZM50 27.5H45C42.3478 27.5 39.8043 28.5536 37.9289 30.4289C36.0536 32.3043 35 34.8478 35 37.5V50C35 52.6522 36.0536 55.1957 37.9289 57.0711C39.8043 58.9464 42.3478 60 45 60H50C52.6522 60 55.1957 58.9464 57.0711 57.0711C58.9464 55.1957 60 52.6522 60 50V37.5C60 34.8478 58.9464 32.3043 57.0711 30.4289C55.1957 28.5536 52.6522 27.5 50 27.5ZM55 50C55 51.3261 54.4732 52.5979 53.5355 53.5355C52.5979 54.4732 51.3261 55 50 55H45C43.6739 55 42.4021 54.4732 41.4645 53.5355C40.5268 52.5979 40 51.3261 40 50V37.5C40 36.1739 40.5268 34.9021 41.4645 33.9645C42.4021 33.0268 43.6739 32.5 45 32.5H50C51.3261 32.5 52.5979 33.0268 53.5355 33.9645C54.4732 34.9021 55 36.1739 55 37.5V50ZM35 10C35 9.33696 35.2634 8.70107 35.7322 8.23223C36.2011 7.76339 36.837 7.5 37.5 7.5H42.5C44.4891 7.5 46.3968 8.29018 47.8033 9.6967C49.2098 11.1032 50 13.0109 50 15V20C50 20.663 49.7366 21.2989 49.2678 21.7678C48.7989 22.2366 48.163 22.5 47.5 22.5C46.837 22.5 46.2011 22.2366 45.7322 21.7678C45.2634 21.2989 45 20.663 45 20V15C45 14.337 44.7366 13.7011 44.2678 13.2322C43.7989 12.7634 43.163 12.5 42.5 12.5H37.5C36.837 12.5 36.2011 12.2366 35.7322 11.7678C35.2634 11.2989 35 10.663 35 10ZM30 50C30 50.663 29.7366 51.2989 29.2678 51.7678C28.7989 52.2366 28.163 52.5 27.5 52.5H20C18.0109 52.5 16.1032 51.7098 14.6967 50.3033C13.2902 48.8968 12.5 46.9891 12.5 45V40C12.5 39.337 12.7634 38.7011 13.2322 38.2322C13.7011 37.7634 14.337 37.5 15 37.5C15.663 37.5 16.2989 37.7634 16.7678 38.2322C17.2366 38.7011 17.5 39.337 17.5 40V45C17.5 45.663 17.7634 46.2989 18.2322 46.7678C18.7011 47.2366 19.337 47.5 20 47.5H27.5C28.163 47.5 28.7989 47.7634 29.2678 48.2322C29.7366 48.7011 30 49.337 30 50ZM50 50C50 50.4945 49.8534 50.9778 49.5787 51.3889C49.304 51.8 48.9135 52.1205 48.4567 52.3097C47.9999 52.4989 47.4972 52.5484 47.0123 52.452C46.5273 52.3555 46.0819 52.1174 45.7322 51.7678C45.3826 51.4181 45.1445 50.9727 45.048 50.4877C44.9516 50.0028 45.0011 49.5001 45.1903 49.0433C45.3795 48.5865 45.7 48.196 46.1111 47.9213C46.5222 47.6466 47.0055 47.5 47.5 47.5C48.163 47.5 48.7989 47.7634 49.2678 48.2322C49.7366 48.7011 50 49.337 50 50Z" fill="#064CBA"/>
</svg>
